<svg width="100%" height="100%" xmlns="http://www.w3.org/2000/svg" xmlns:xlink="http://www.w3.org/1999/xlink" viewBox="0.00 0.00 196.00 274.40">
<g id="graph0" class="graph" transform="translate(4,270.3999938964844) scale(1)">
<polygon fill="white" stroke="none" points="-4,4 -4,-270.4 192,-270.4 192,4 -4,4"/>
<text text-anchor="middle" x="94" y="-249.8" font-family="Futura" font-size="14.00">Blackjack</text>
<g id="clust1" class="cluster">
<title>cluster_table</title>
<polygon fill="ghostwhite" stroke="black" points="8,-8 8,-233.6 100,-233.6 100,-8 8,-8"/>
<text text-anchor="middle" x="54" y="-217" font-family="Futura" font-size="14.00">table</text>
</g>
<g id="clust2" class="cluster">
<title>cluster_p1</title>
<polygon fill="ghostwhite" stroke="black" points="108,-80 108,-156.8 180,-156.8 180,-80 108,-80"/>
<text text-anchor="middle" x="144" y="-140.2" font-family="Futura" font-size="14.00">p1</text>
</g>
<!-- table_INVISIBLE_STOCK_0 -->
<g id="node1" class="node">
<title>table_INVISIBLE_STOCK_0</title>
<path fill="khaki" stroke="black" stroke-width="3" d="M79.95,-200.8C79.95,-200.8 42.05,-200.8 42.05,-200.8 36.05,-200.8 30.05,-194.8 30.05,-188.8 30.05,-188.8 30.05,-176.8 30.05,-176.8 30.05,-170.8 36.05,-164.8 42.05,-164.8 42.05,-164.8 79.95,-164.8 79.95,-164.8 85.95,-164.8 91.95,-170.8 91.95,-176.8 91.95,-176.8 91.95,-188.8 91.95,-188.8 91.95,-194.8 85.95,-200.8 79.95,-200.8"/>
<text text-anchor="middle" x="61" y="-178.6" font-family="Futura" font-size="14.00">STOCK</text>
</g>
<!-- table_INVISIBLE_HAND_0 -->
<g id="node2" class="node">
<title>table_INVISIBLE_HAND_0</title>
<path fill="khaki" stroke="black" d="M60.22,-124C60.22,-124 27.78,-124 27.78,-124 21.78,-124 15.78,-118 15.78,-112 15.78,-112 15.78,-100 15.78,-100 15.78,-94 21.78,-88 27.78,-88 27.78,-88 60.22,-88 60.22,-88 66.22,-88 72.22,-94 72.22,-100 72.22,-100 72.22,-112 72.22,-112 72.22,-118 66.22,-124 60.22,-124"/>
<text text-anchor="middle" x="44" y="-101.8" font-family="Futura" font-size="14.00">HAND</text>
</g>
<!-- table_INVISIBLE_STOCK_0&#45;&gt;table_INVISIBLE_HAND_0 -->
<g id="edge1" class="edge">
<title>table_INVISIBLE_STOCK_0-&gt;table_INVISIBLE_HAND_0</title>
<path fill="none" stroke="black" d="M56.8,-163.31C54.89,-154.91 52.59,-144.79 50.47,-135.46"/>
<polygon fill="black" stroke="black" points="53.89,-134.7 48.26,-125.73 47.06,-136.25 53.89,-134.7"/>
</g>
<!-- table_VISIBLE_HAND_0 -->
<g id="node3" class="node">
<title>table_VISIBLE_HAND_0</title>
<path fill="lightgreen" stroke="black" d="M70.22,-52C70.22,-52 37.78,-52 37.78,-52 31.78,-52 25.78,-46 25.78,-40 25.78,-40 25.78,-28 25.78,-28 25.78,-22 31.78,-16 37.78,-16 37.78,-16 70.22,-16 70.22,-16 76.22,-16 82.22,-22 82.22,-28 82.22,-28 82.22,-40 82.22,-40 82.22,-46 76.22,-52 70.22,-52"/>
<text text-anchor="middle" x="54" y="-29.8" font-family="Futura" font-size="14.00">HAND</text>
</g>
<!-- table_INVISIBLE_STOCK_0&#45;&gt;table_VISIBLE_HAND_0 -->
<g id="edge2" class="edge">
<title>table_INVISIBLE_STOCK_0-&gt;table_VISIBLE_HAND_0</title>
<path fill="none" stroke="green" stroke-width="3" d="M77.77,-163.51C79.07,-161.36 80.19,-159.11 81,-156.8 92.3,-124.59 90.11,-112.89 81,-80 79.55,-74.78 77.32,-69.55 74.74,-64.6"/>
<polygon fill="green" stroke="green" stroke-width="3" points="77.89,-63.05 69.76,-56.26 71.88,-66.64 77.89,-63.05"/>
</g>
<!-- p1_VISIBLE_HAND_0 -->
<g id="node4" class="node">
<title>p1_VISIBLE_HAND_0</title>
<path fill="lightgreen" stroke="black" d="M160.22,-124C160.22,-124 127.78,-124 127.78,-124 121.78,-124 115.78,-118 115.78,-112 115.78,-112 115.78,-100 115.78,-100 115.78,-94 121.78,-88 127.78,-88 127.78,-88 160.22,-88 160.22,-88 166.22,-88 172.22,-94 172.22,-100 172.22,-100 172.22,-112 172.22,-112 172.22,-118 166.22,-124 160.22,-124"/>
<text text-anchor="middle" x="144" y="-101.8" font-family="Futura" font-size="14.00">HAND</text>
</g>
<!-- table_INVISIBLE_STOCK_0&#45;&gt;p1_VISIBLE_HAND_0 -->
<g id="edge3" class="edge">
<title>table_INVISIBLE_STOCK_0-&gt;p1_VISIBLE_HAND_0</title>
<path fill="none" stroke="green" stroke-width="3" d="M93.36,-164.76C97.09,-162.28 100.73,-159.62 104,-156.8 111.09,-150.7 117.84,-143.22 123.72,-135.93"/>
<polygon fill="green" stroke="green" stroke-width="3" points="126.4,-138.18 129.67,-128.1 120.83,-133.95 126.4,-138.18"/>
</g>
<!-- table_INVISIBLE_HAND_0&#45;&gt;table_VISIBLE_HAND_0 -->
<g id="edge4" class="edge">
<title>table_INVISIBLE_HAND_0-&gt;table_VISIBLE_HAND_0</title>
<path fill="none" stroke="green" stroke-width="3" d="M46.47,-87.7C47.39,-81.25 48.47,-73.73 49.51,-66.41"/>
<polygon fill="green" stroke="green" stroke-width="3" points="52.96,-66.99 50.91,-56.6 46.04,-66 52.96,-66.99"/>
</g>
</g>
</svg>