<svg width="100%" height="100%" xmlns="http://www.w3.org/2000/svg" xmlns:xlink="http://www.w3.org/1999/xlink" viewBox="0.00 0.00 594.00 282.40">
<g id="graph0" class="graph" transform="translate(4,278.3999938964844) scale(1)">
<polygon fill="white" stroke="none" points="-4,4 -4,-278.4 590,-278.4 590,4 -4,4"/>
<text text-anchor="middle" x="293" y="-257.8" font-family="Futura" font-size="14.00">Cuckoo</text>
<g id="clust1" class="cluster">
<title>cluster_table</title>
<polygon fill="ghostwhite" stroke="black" points="322,-164.8 322,-241.6 486,-241.6 486,-164.8 322,-164.8"/>
<text text-anchor="middle" x="404" y="-225" font-family="Futura" font-size="14.00">table</text>
</g>
<g id="clust2" class="cluster">
<title>cluster_p1</title>
<polygon fill="ghostwhite" stroke="black" points="254,-8 254,-156.8 326,-156.8 326,-8 254,-8"/>
<text text-anchor="middle" x="290" y="-140.2" font-family="Futura" font-size="14.00">p1</text>
</g>
<g id="clust3" class="cluster">
<title>cluster_p2</title>
<polygon fill="ghostwhite" stroke="black" points="334,-8 334,-156.8 406,-156.8 406,-8 334,-8"/>
<text text-anchor="middle" x="370" y="-140.2" font-family="Futura" font-size="14.00">p2</text>
</g>
<g id="clust4" class="cluster">
<title>cluster_p3</title>
<polygon fill="ghostwhite" stroke="black" points="8,-8 8,-156.8 166,-156.8 166,-8 8,-8"/>
<text text-anchor="middle" x="87" y="-140.2" font-family="Futura" font-size="14.00">p3</text>
</g>
<g id="clust5" class="cluster">
<title>cluster_p4</title>
<polygon fill="ghostwhite" stroke="black" points="174,-8 174,-156.8 246,-156.8 246,-8 174,-8"/>
<text text-anchor="middle" x="210" y="-140.2" font-family="Futura" font-size="14.00">p4</text>
</g>
<g id="clust6" class="cluster">
<title>cluster_p5</title>
<polygon fill="ghostwhite" stroke="black" points="414,-8 414,-156.8 486,-156.8 486,-8 414,-8"/>
<text text-anchor="middle" x="450" y="-140.2" font-family="Futura" font-size="14.00">p5</text>
</g>
<g id="clust7" class="cluster">
<title>cluster_p6</title>
<polygon fill="ghostwhite" stroke="black" points="494,-8 494,-241.6 578,-241.6 578,-8 494,-8"/>
<text text-anchor="middle" x="536" y="-225" font-family="Futura" font-size="14.00">p6</text>
</g>
<!-- table_INVISIBLE_STOCK_0 -->
<g id="node1" class="node">
<title>table_INVISIBLE_STOCK_0</title>
<path fill="khaki" stroke="black" stroke-width="3" d="M379.95,-208.8C379.95,-208.8 342.05,-208.8 342.05,-208.8 336.05,-208.8 330.05,-202.8 330.05,-196.8 330.05,-196.8 330.05,-184.8 330.05,-184.8 330.05,-178.8 336.05,-172.8 342.05,-172.8 342.05,-172.8 379.95,-172.8 379.95,-172.8 385.95,-172.8 391.95,-178.8 391.95,-184.8 391.95,-184.8 391.95,-196.8 391.95,-196.8 391.95,-202.8 385.95,-208.8 379.95,-208.8"/>
<text text-anchor="middle" x="361" y="-186.6" font-family="Futura" font-size="14.00">STOCK</text>
</g>
<!-- p1_INVISIBLE_HAND_0 -->
<g id="node3" class="node">
<title>p1_INVISIBLE_HAND_0</title>
<path fill="lightblue" stroke="black" d="M306.22,-124C306.22,-124 273.78,-124 273.78,-124 267.78,-124 261.78,-118 261.78,-112 261.78,-112 261.78,-100 261.78,-100 261.78,-94 267.78,-88 273.78,-88 273.78,-88 306.22,-88 306.22,-88 312.22,-88 318.22,-94 318.22,-100 318.22,-100 318.22,-112 318.22,-112 318.22,-118 312.22,-124 306.22,-124"/>
<text text-anchor="middle" x="290" y="-101.8" font-family="Futura" font-size="14.00">HAND</text>
</g>
<!-- table_INVISIBLE_STOCK_0&#45;&gt;p1_INVISIBLE_HAND_0 -->
<g id="edge1" class="edge">
<title>table_INVISIBLE_STOCK_0-&gt;p1_INVISIBLE_HAND_0</title>
<path fill="none" stroke="black" d="M343.36,-171.53C338.93,-166.8 334.23,-161.67 330,-156.8 323.48,-149.3 316.63,-140.95 310.47,-133.27"/>
<polygon fill="black" stroke="black" points="313.28,-131.17 304.32,-125.51 307.79,-135.52 313.28,-131.17"/>
</g>
<!-- p2_INVISIBLE_HAND_0 -->
<g id="node5" class="node">
<title>p2_INVISIBLE_HAND_0</title>
<path fill="lightblue" stroke="black" d="M386.22,-124C386.22,-124 353.78,-124 353.78,-124 347.78,-124 341.78,-118 341.78,-112 341.78,-112 341.78,-100 341.78,-100 341.78,-94 347.78,-88 353.78,-88 353.78,-88 386.22,-88 386.22,-88 392.22,-88 398.22,-94 398.22,-100 398.22,-100 398.22,-112 398.22,-112 398.22,-118 392.22,-124 386.22,-124"/>
<text text-anchor="middle" x="370" y="-101.8" font-family="Futura" font-size="14.00">HAND</text>
</g>
<!-- table_INVISIBLE_STOCK_0&#45;&gt;p2_INVISIBLE_HAND_0 -->
<g id="edge2" class="edge">
<title>table_INVISIBLE_STOCK_0-&gt;p2_INVISIBLE_HAND_0</title>
<path fill="none" stroke="black" d="M363,-171.42C364.14,-160.92 365.6,-147.51 366.89,-135.65"/>
<polygon fill="black" stroke="black" points="370.34,-136.3 367.94,-125.98 363.38,-135.54 370.34,-136.3"/>
</g>
<!-- p3_INVISIBLE_HAND_0 -->
<g id="node7" class="node">
<title>p3_INVISIBLE_HAND_0</title>
<path fill="lightblue" stroke="black" d="M60.22,-124C60.22,-124 27.78,-124 27.78,-124 21.78,-124 15.78,-118 15.78,-112 15.78,-112 15.78,-100 15.78,-100 15.78,-94 21.78,-88 27.78,-88 27.78,-88 60.22,-88 60.22,-88 66.22,-88 72.22,-94 72.22,-100 72.22,-100 72.22,-112 72.22,-112 72.22,-118 66.22,-124 60.22,-124"/>
<text text-anchor="middle" x="44" y="-101.8" font-family="Futura" font-size="14.00">HAND</text>
</g>
<!-- table_INVISIBLE_STOCK_0&#45;&gt;p3_INVISIBLE_HAND_0 -->
<g id="edge3" class="edge">
<title>table_INVISIBLE_STOCK_0-&gt;p3_INVISIBLE_HAND_0</title>
<path fill="none" stroke="black" d="M328.91,-189.17C264.59,-187.41 122.52,-180.82 81,-156.8 71.65,-151.39 63.95,-142.58 58.04,-133.86"/>
<polygon fill="black" stroke="black" points="61.14,-132.22 52.93,-125.53 55.18,-135.89 61.14,-132.22"/>
</g>
<!-- p4_INVISIBLE_HAND_0 -->
<g id="node10" class="node">
<title>p4_INVISIBLE_HAND_0</title>
<path fill="lightblue" stroke="black" d="M226.22,-124C226.22,-124 193.78,-124 193.78,-124 187.78,-124 181.78,-118 181.78,-112 181.78,-112 181.78,-100 181.78,-100 181.78,-94 187.78,-88 193.78,-88 193.78,-88 226.22,-88 226.22,-88 232.22,-88 238.22,-94 238.22,-100 238.22,-100 238.22,-112 238.22,-112 238.22,-118 232.22,-124 226.22,-124"/>
<text text-anchor="middle" x="210" y="-101.8" font-family="Futura" font-size="14.00">HAND</text>
</g>
<!-- table_INVISIBLE_STOCK_0&#45;&gt;p4_INVISIBLE_HAND_0 -->
<g id="edge4" class="edge">
<title>table_INVISIBLE_STOCK_0-&gt;p4_INVISIBLE_HAND_0</title>
<path fill="none" stroke="black" d="M328.67,-185.47C305.26,-181.13 273.7,-172.72 250,-156.8 240.9,-150.69 232.87,-141.88 226.43,-133.36"/>
<polygon fill="black" stroke="black" points="229.36,-131.43 220.75,-125.26 223.63,-135.46 229.36,-131.43"/>
</g>
<!-- p5_INVISIBLE_HAND_0 -->
<g id="node12" class="node">
<title>p5_INVISIBLE_HAND_0</title>
<path fill="lightblue" stroke="black" d="M466.22,-124C466.22,-124 433.78,-124 433.78,-124 427.78,-124 421.78,-118 421.78,-112 421.78,-112 421.78,-100 421.78,-100 421.78,-94 427.78,-88 433.78,-88 433.78,-88 466.22,-88 466.22,-88 472.22,-88 478.22,-94 478.22,-100 478.22,-100 478.22,-112 478.22,-112 478.22,-118 472.22,-124 466.22,-124"/>
<text text-anchor="middle" x="450" y="-101.8" font-family="Futura" font-size="14.00">HAND</text>
</g>
<!-- table_INVISIBLE_STOCK_0&#45;&gt;p5_INVISIBLE_HAND_0 -->
<g id="edge5" class="edge">
<title>table_INVISIBLE_STOCK_0-&gt;p5_INVISIBLE_HAND_0</title>
<path fill="none" stroke="black" d="M391.35,-171.45C397.79,-166.99 404.34,-162.01 410,-156.8 417.63,-149.79 425.02,-141.26 431.32,-133.26"/>
<polygon fill="black" stroke="black" points="434.01,-135.51 437.27,-125.43 428.43,-131.28 434.01,-135.51"/>
</g>
<!-- p6_INVISIBLE_HAND_0 -->
<g id="node14" class="node">
<title>p6_INVISIBLE_HAND_0</title>
<path fill="lightblue" stroke="black" d="M546.22,-124C546.22,-124 513.78,-124 513.78,-124 507.78,-124 501.78,-118 501.78,-112 501.78,-112 501.78,-100 501.78,-100 501.78,-94 507.78,-88 513.78,-88 513.78,-88 546.22,-88 546.22,-88 552.22,-88 558.22,-94 558.22,-100 558.22,-100 558.22,-112 558.22,-112 558.22,-118 552.22,-124 546.22,-124"/>
<text text-anchor="middle" x="530" y="-101.8" font-family="Futura" font-size="14.00">HAND</text>
</g>
<!-- table_INVISIBLE_STOCK_0&#45;&gt;p6_INVISIBLE_HAND_0 -->
<g id="edge6" class="edge">
<title>table_INVISIBLE_STOCK_0-&gt;p6_INVISIBLE_HAND_0</title>
<path fill="none" stroke="black" d="M386.37,-171.52C391.05,-168.87 396.03,-166.47 401,-164.8 438.65,-152.15 454.99,-175.56 490,-156.8 499.91,-151.49 508.24,-142.58 514.69,-133.75"/>
<polygon fill="black" stroke="black" points="517.46,-135.9 520.1,-125.64 511.64,-132.02 517.46,-135.9"/>
</g>
<!-- table_INVISIBLE_PASSED_0 -->
<g id="node2" class="node">
<title>table_INVISIBLE_PASSED_0</title>
<path fill="khaki" stroke="black" d="M466.07,-208.8C466.07,-208.8 421.93,-208.8 421.93,-208.8 415.93,-208.8 409.93,-202.8 409.93,-196.8 409.93,-196.8 409.93,-184.8 409.93,-184.8 409.93,-178.8 415.93,-172.8 421.93,-172.8 421.93,-172.8 466.07,-172.8 466.07,-172.8 472.07,-172.8 478.07,-178.8 478.07,-184.8 478.07,-184.8 478.07,-196.8 478.07,-196.8 478.07,-202.8 472.07,-208.8 466.07,-208.8"/>
<text text-anchor="middle" x="444" y="-186.6" font-family="Futura" font-size="14.00">PASSED</text>
</g>
<!-- p1_VISIBLE_HAND_0 -->
<g id="node4" class="node">
<title>p1_VISIBLE_HAND_0</title>
<path fill="lightgreen" stroke="black" d="M306.22,-52C306.22,-52 273.78,-52 273.78,-52 267.78,-52 261.78,-46 261.78,-40 261.78,-40 261.78,-28 261.78,-28 261.78,-22 267.78,-16 273.78,-16 273.78,-16 306.22,-16 306.22,-16 312.22,-16 318.22,-22 318.22,-28 318.22,-28 318.22,-40 318.22,-40 318.22,-46 312.22,-52 306.22,-52"/>
<text text-anchor="middle" x="290" y="-29.8" font-family="Futura" font-size="14.00">HAND</text>
</g>
<!-- p1_INVISIBLE_HAND_0&#45;&gt;p1_VISIBLE_HAND_0 -->
<g id="edge14" class="edge">
<title>p1_INVISIBLE_HAND_0-&gt;p1_VISIBLE_HAND_0</title>
<path fill="none" stroke="green" stroke-width="3" d="M290,-87.7C290,-81.25 290,-73.73 290,-66.41"/>
<polygon fill="green" stroke="green" stroke-width="3" points="293.5,-66.64 290,-56.64 286.5,-66.64 293.5,-66.64"/>
</g>
<!-- p2_VISIBLE_HAND_0 -->
<g id="node6" class="node">
<title>p2_VISIBLE_HAND_0</title>
<path fill="lightgreen" stroke="black" d="M386.22,-52C386.22,-52 353.78,-52 353.78,-52 347.78,-52 341.78,-46 341.78,-40 341.78,-40 341.78,-28 341.78,-28 341.78,-22 347.78,-16 353.78,-16 353.78,-16 386.22,-16 386.22,-16 392.22,-16 398.22,-22 398.22,-28 398.22,-28 398.22,-40 398.22,-40 398.22,-46 392.22,-52 386.22,-52"/>
<text text-anchor="middle" x="370" y="-29.8" font-family="Futura" font-size="14.00">HAND</text>
</g>
<!-- p2_INVISIBLE_HAND_0&#45;&gt;p2_VISIBLE_HAND_0 -->
<g id="edge15" class="edge">
<title>p2_INVISIBLE_HAND_0-&gt;p2_VISIBLE_HAND_0</title>
<path fill="none" stroke="green" stroke-width="3" d="M370,-87.7C370,-81.25 370,-73.73 370,-66.41"/>
<polygon fill="green" stroke="green" stroke-width="3" points="373.5,-66.64 370,-56.64 366.5,-66.64 373.5,-66.64"/>
</g>
<!-- p3_INVISIBLE_PASSED_0 -->
<g id="node8" class="node">
<title>p3_INVISIBLE_PASSED_0</title>
<path fill="lightblue" stroke="black" d="M146.07,-124C146.07,-124 101.93,-124 101.93,-124 95.93,-124 89.93,-118 89.93,-112 89.93,-112 89.93,-100 89.93,-100 89.93,-94 95.93,-88 101.93,-88 101.93,-88 146.07,-88 146.07,-88 152.07,-88 158.07,-94 158.07,-100 158.07,-100 158.07,-112 158.07,-112 158.07,-118 152.07,-124 146.07,-124"/>
<text text-anchor="middle" x="124" y="-101.8" font-family="Futura" font-size="14.00">PASSED</text>
</g>
<!-- p2_INVISIBLE_HAND_0&#45;&gt;p3_INVISIBLE_PASSED_0 -->
<g id="edge7" class="edge">
<title>p2_INVISIBLE_HAND_0-&gt;p3_INVISIBLE_PASSED_0</title>
<path fill="none" stroke="blue" stroke-width="3" d="M361.39,-124.36C353.33,-138.69 339.73,-156.83 321,-160.8 305.57,-164.08 194.43,-164.08 179,-160.8 164.32,-157.68 152.01,-146.92 142.78,-135.74"/>
<polygon fill="blue" stroke="blue" stroke-width="3" points="145.75,-133.87 137,-127.9 140.12,-138.03 145.75,-133.87"/>
</g>
<!-- p3_VISIBLE_HAND_0 -->
<g id="node9" class="node">
<title>p3_VISIBLE_HAND_0</title>
<path fill="lightgreen" stroke="black" d="M60.22,-52C60.22,-52 27.78,-52 27.78,-52 21.78,-52 15.78,-46 15.78,-40 15.78,-40 15.78,-28 15.78,-28 15.78,-22 21.78,-16 27.78,-16 27.78,-16 60.22,-16 60.22,-16 66.22,-16 72.22,-22 72.22,-28 72.22,-28 72.22,-40 72.22,-40 72.22,-46 66.22,-52 60.22,-52"/>
<text text-anchor="middle" x="44" y="-29.8" font-family="Futura" font-size="14.00">HAND</text>
</g>
<!-- p3_INVISIBLE_HAND_0&#45;&gt;p3_VISIBLE_HAND_0 -->
<g id="edge9" class="edge">
<title>p3_INVISIBLE_HAND_0-&gt;p3_VISIBLE_HAND_0</title>
<path fill="none" stroke="green" stroke-width="3" d="M44,-87.7C44,-81.25 44,-73.73 44,-66.41"/>
<polygon fill="green" stroke="green" stroke-width="3" points="47.5,-66.64 44,-56.64 40.5,-66.64 47.5,-66.64"/>
</g>
<!-- p3_INVISIBLE_PASSED_0&#45;&gt;p2_INVISIBLE_HAND_0 -->
<g id="edge8" class="edge">
<title>p3_INVISIBLE_PASSED_0-&gt;p2_INVISIBLE_HAND_0</title>
<path fill="none" stroke="blue" stroke-width="3" d="M134.31,-124.25C143.74,-138.51 159.22,-156.6 179,-160.8 194.43,-164.08 305.57,-164.08 321,-160.8 334.61,-157.91 345.51,-147.55 353.54,-136.6"/>
<polygon fill="blue" stroke="blue" stroke-width="3" points="356.49,-138.49 358.94,-128.18 350.59,-134.72 356.49,-138.49"/>
</g>
<!-- p4_VISIBLE_HAND_0 -->
<g id="node11" class="node">
<title>p4_VISIBLE_HAND_0</title>
<path fill="lightgreen" stroke="black" d="M226.22,-52C226.22,-52 193.78,-52 193.78,-52 187.78,-52 181.78,-46 181.78,-40 181.78,-40 181.78,-28 181.78,-28 181.78,-22 187.78,-16 193.78,-16 193.78,-16 226.22,-16 226.22,-16 232.22,-16 238.22,-22 238.22,-28 238.22,-28 238.22,-40 238.22,-40 238.22,-46 232.22,-52 226.22,-52"/>
<text text-anchor="middle" x="210" y="-29.8" font-family="Futura" font-size="14.00">HAND</text>
</g>
<!-- p4_INVISIBLE_HAND_0&#45;&gt;p4_VISIBLE_HAND_0 -->
<g id="edge16" class="edge">
<title>p4_INVISIBLE_HAND_0-&gt;p4_VISIBLE_HAND_0</title>
<path fill="none" stroke="green" stroke-width="3" d="M210,-87.7C210,-81.25 210,-73.73 210,-66.41"/>
<polygon fill="green" stroke="green" stroke-width="3" points="213.5,-66.64 210,-56.64 206.5,-66.64 213.5,-66.64"/>
</g>
<!-- p5_VISIBLE_HAND_0 -->
<g id="node13" class="node">
<title>p5_VISIBLE_HAND_0</title>
<path fill="lightgreen" stroke="black" d="M466.22,-52C466.22,-52 433.78,-52 433.78,-52 427.78,-52 421.78,-46 421.78,-40 421.78,-40 421.78,-28 421.78,-28 421.78,-22 427.78,-16 433.78,-16 433.78,-16 466.22,-16 466.22,-16 472.22,-16 478.22,-22 478.22,-28 478.22,-28 478.22,-40 478.22,-40 478.22,-46 472.22,-52 466.22,-52"/>
<text text-anchor="middle" x="450" y="-29.8" font-family="Futura" font-size="14.00">HAND</text>
</g>
<!-- p5_INVISIBLE_HAND_0&#45;&gt;p5_VISIBLE_HAND_0 -->
<g id="edge17" class="edge">
<title>p5_INVISIBLE_HAND_0-&gt;p5_VISIBLE_HAND_0</title>
<path fill="none" stroke="green" stroke-width="3" d="M450,-87.7C450,-81.25 450,-73.73 450,-66.41"/>
<polygon fill="green" stroke="green" stroke-width="3" points="453.5,-66.64 450,-56.64 446.5,-66.64 453.5,-66.64"/>
</g>
<!-- p6_INVISIBLE_PASSED_0 -->
<g id="node15" class="node">
<title>p6_INVISIBLE_PASSED_0</title>
<path fill="lightblue" stroke="black" d="M558.07,-208.8C558.07,-208.8 513.93,-208.8 513.93,-208.8 507.93,-208.8 501.93,-202.8 501.93,-196.8 501.93,-196.8 501.93,-184.8 501.93,-184.8 501.93,-178.8 507.93,-172.8 513.93,-172.8 513.93,-172.8 558.07,-172.8 558.07,-172.8 564.07,-172.8 570.07,-178.8 570.07,-184.8 570.07,-184.8 570.07,-196.8 570.07,-196.8 570.07,-202.8 564.07,-208.8 558.07,-208.8"/>
<text text-anchor="middle" x="536" y="-186.6" font-family="Futura" font-size="14.00">PASSED</text>
</g>
<!-- p5_INVISIBLE_HAND_0&#45;&gt;p6_INVISIBLE_PASSED_0 -->
<g id="edge10" class="edge">
<title>p5_INVISIBLE_HAND_0-&gt;p6_INVISIBLE_PASSED_0</title>
<path fill="none" stroke="blue" stroke-width="3" d="M461.92,-124.11C469.38,-134.2 479.53,-146.89 490,-156.8 492.47,-159.14 495.11,-161.45 497.83,-163.69"/>
<polygon fill="blue" stroke="blue" stroke-width="3" points="495.59,-166.38 505.65,-169.7 499.85,-160.83 495.59,-166.38"/>
</g>
<!-- p6_INVISIBLE_HAND_0&#45;&gt;table_INVISIBLE_PASSED_0 -->
<g id="edge13" class="edge">
<title>p6_INVISIBLE_HAND_0-&gt;table_INVISIBLE_PASSED_0</title>
<path fill="none" stroke="blue" stroke-width="3" d="M518.08,-124.11C510.62,-134.2 500.47,-146.89 490,-156.8 487.53,-159.14 484.89,-161.45 482.17,-163.69"/>
<polygon fill="blue" stroke="blue" stroke-width="3" points="480.15,-160.83 474.35,-169.7 484.41,-166.38 480.15,-160.83"/>
</g>
<!-- p6_INVISIBLE_HAND_0&#45;&gt;p5_INVISIBLE_HAND_0 -->
<g id="edge11" class="edge">
<title>p6_INVISIBLE_HAND_0-&gt;p5_INVISIBLE_HAND_0</title>
<path fill="none" stroke="blue" stroke-width="3" d="M501.4,-106C498.53,-106 495.66,-106 492.79,-106"/>
<polygon fill="blue" stroke="blue" stroke-width="3" points="492.98,-102.5 482.98,-106 492.98,-109.5 492.98,-102.5"/>
</g>
<!-- p6_VISIBLE_HAND_0 -->
<g id="node16" class="node">
<title>p6_VISIBLE_HAND_0</title>
<path fill="lightgreen" stroke="black" d="M546.22,-52C546.22,-52 513.78,-52 513.78,-52 507.78,-52 501.78,-46 501.78,-40 501.78,-40 501.78,-28 501.78,-28 501.78,-22 507.78,-16 513.78,-16 513.78,-16 546.22,-16 546.22,-16 552.22,-16 558.22,-22 558.22,-28 558.22,-28 558.22,-40 558.22,-40 558.22,-46 552.22,-52 546.22,-52"/>
<text text-anchor="middle" x="530" y="-29.8" font-family="Futura" font-size="14.00">HAND</text>
</g>
<!-- p6_INVISIBLE_HAND_0&#45;&gt;p6_VISIBLE_HAND_0 -->
<g id="edge18" class="edge">
<title>p6_INVISIBLE_HAND_0-&gt;p6_VISIBLE_HAND_0</title>
<path fill="none" stroke="green" stroke-width="3" d="M530,-87.7C530,-81.25 530,-73.73 530,-66.41"/>
<polygon fill="green" stroke="green" stroke-width="3" points="533.5,-66.64 530,-56.64 526.5,-66.64 533.5,-66.64"/>
</g>
<!-- p6_INVISIBLE_PASSED_0&#45;&gt;p6_INVISIBLE_HAND_0 -->
<g id="edge12" class="edge">
<title>p6_INVISIBLE_PASSED_0-&gt;p6_INVISIBLE_HAND_0</title>
<path fill="none" stroke="black" d="M534.76,-172.64C533.98,-161.95 532.96,-147.92 532.07,-135.57"/>
<polygon fill="black" stroke="black" points="535.59,-135.65 531.37,-125.93 528.6,-136.16 535.59,-135.65"/>
</g>
</g>
</svg>