<svg width="100%" height="100%" xmlns="http://www.w3.org/2000/svg" xmlns:xlink="http://www.w3.org/1999/xlink" viewBox="0.00 0.00 372.82 431.20">
<g id="graph0" class="graph" transform="translate(4,427.20001220703125) scale(1)">
<polygon fill="white" stroke="none" points="-4,4 -4,-427.2 368.82,-427.2 368.82,4 -4,4"/>
<text text-anchor="middle" x="182.41" y="-406.6" font-family="Futura" font-size="14.00">Euchre</text>
<g id="clust1" class="cluster">
<title>cluster_table</title>
<polygon fill="ghostwhite" stroke="black" points="96,-80 96,-233.6 270,-233.6 270,-80 96,-80"/>
<text text-anchor="middle" x="183" y="-217" font-family="Futura" font-size="14.00">table</text>
</g>
<g id="clust2" class="cluster">
<title>cluster_p1</title>
<polygon fill="ghostwhite" stroke="black" points="8,-241.6 8,-390.4 82,-390.4 82,-241.6 8,-241.6"/>
<text text-anchor="middle" x="45" y="-373.8" font-family="Futura" font-size="14.00">p1</text>
</g>
<g id="clust3" class="cluster">
<title>cluster_p2</title>
<polygon fill="ghostwhite" stroke="black" points="122,-241.6 122,-390.4 196,-390.4 196,-241.6 122,-241.6"/>
<text text-anchor="middle" x="159" y="-373.8" font-family="Futura" font-size="14.00">p2</text>
</g>
<g id="clust4" class="cluster">
<title>cluster_p3</title>
<polygon fill="ghostwhite" stroke="black" points="236,-241.6 236,-390.4 310,-390.4 310,-241.6 236,-241.6"/>
<text text-anchor="middle" x="273" y="-373.8" font-family="Futura" font-size="14.00">p3</text>
</g>
<g id="clust5" class="cluster">
<title>cluster_p4</title>
<polygon fill="ghostwhite" stroke="black" points="278,-8 278,-156.8 352,-156.8 352,-8 278,-8"/>
<text text-anchor="middle" x="315" y="-140.2" font-family="Futura" font-size="14.00">p4</text>
</g>
<!-- table_INVISIBLE_STOCK_0 -->
<g id="node1" class="node">
<title>table_INVISIBLE_STOCK_0</title>
<path fill="khaki" stroke="black" stroke-width="3" d="M249.95,-200.8C249.95,-200.8 212.05,-200.8 212.05,-200.8 206.05,-200.8 200.05,-194.8 200.05,-188.8 200.05,-188.8 200.05,-176.8 200.05,-176.8 200.05,-170.8 206.05,-164.8 212.05,-164.8 212.05,-164.8 249.95,-164.8 249.95,-164.8 255.95,-164.8 261.95,-170.8 261.95,-176.8 261.95,-176.8 261.95,-188.8 261.95,-188.8 261.95,-194.8 255.95,-200.8 249.95,-200.8"/>
<text text-anchor="middle" x="231" y="-178.6" font-family="Futura" font-size="14.00">STOCK</text>
</g>
<!-- table_VISIBLE_TURNED_0 -->
<g id="node2" class="node">
<title>table_VISIBLE_TURNED_0</title>
<path fill="lightgreen" stroke="black" d="M250.39,-124C250.39,-124 201.61,-124 201.61,-124 195.61,-124 189.61,-118 189.61,-112 189.61,-112 189.61,-100 189.61,-100 189.61,-94 195.61,-88 201.61,-88 201.61,-88 250.39,-88 250.39,-88 256.39,-88 262.39,-94 262.39,-100 262.39,-100 262.39,-112 262.39,-112 262.39,-118 256.39,-124 250.39,-124"/>
<text text-anchor="middle" x="226" y="-101.8" font-family="Futura" font-size="14.00">TURNED</text>
</g>
<!-- table_INVISIBLE_STOCK_0&#45;&gt;table_VISIBLE_TURNED_0 -->
<g id="edge5" class="edge">
<title>table_INVISIBLE_STOCK_0-&gt;table_VISIBLE_TURNED_0</title>
<path fill="none" stroke="green" stroke-width="3" d="M229.76,-163.31C229.27,-155.85 228.68,-147.02 228.11,-138.6"/>
<polygon fill="green" stroke="green" stroke-width="3" points="231.62,-138.53 227.46,-128.78 224.63,-138.99 231.62,-138.53"/>
</g>
<!-- p1_INVISIBLE_HAND_0 -->
<g id="node4" class="node">
<title>p1_INVISIBLE_HAND_0</title>
<path fill="lightblue" stroke="black" d="M61.22,-357.6C61.22,-357.6 28.78,-357.6 28.78,-357.6 22.78,-357.6 16.78,-351.6 16.78,-345.6 16.78,-345.6 16.78,-333.6 16.78,-333.6 16.78,-327.6 22.78,-321.6 28.78,-321.6 28.78,-321.6 61.22,-321.6 61.22,-321.6 67.22,-321.6 73.22,-327.6 73.22,-333.6 73.22,-333.6 73.22,-345.6 73.22,-345.6 73.22,-351.6 67.22,-357.6 61.22,-357.6"/>
<text text-anchor="middle" x="45" y="-335.4" font-family="Futura" font-size="14.00">HAND</text>
</g>
<!-- table_INVISIBLE_STOCK_0&#45;&gt;p1_INVISIBLE_HAND_0 -->
<g id="edge1" class="edge">
<title>table_INVISIBLE_STOCK_0-&gt;p1_INVISIBLE_HAND_0</title>
<path fill="none" stroke="black" d="M221.28,-202.08C214.38,-213.15 204.03,-226.45 191,-233.6 162.38,-249.29 146.37,-225.46 118,-241.6 114.19,-243.77 84.5,-284.09 64.17,-312.06"/>
<polygon fill="black" stroke="black" points="61.36,-309.98 58.32,-320.13 67.03,-314.09 61.36,-309.98"/>
</g>
<!-- p2_INVISIBLE_HAND_0 -->
<g id="node6" class="node">
<title>p2_INVISIBLE_HAND_0</title>
<path fill="lightblue" stroke="black" d="M175.22,-357.6C175.22,-357.6 142.78,-357.6 142.78,-357.6 136.78,-357.6 130.78,-351.6 130.78,-345.6 130.78,-345.6 130.78,-333.6 130.78,-333.6 130.78,-327.6 136.78,-321.6 142.78,-321.6 142.78,-321.6 175.22,-321.6 175.22,-321.6 181.22,-321.6 187.22,-327.6 187.22,-333.6 187.22,-333.6 187.22,-345.6 187.22,-345.6 187.22,-351.6 181.22,-357.6 175.22,-357.6"/>
<text text-anchor="middle" x="159" y="-335.4" font-family="Futura" font-size="14.00">HAND</text>
</g>
<!-- table_INVISIBLE_STOCK_0&#45;&gt;p2_INVISIBLE_HAND_0 -->
<g id="edge2" class="edge">
<title>table_INVISIBLE_STOCK_0-&gt;p2_INVISIBLE_HAND_0</title>
<path fill="none" stroke="black" d="M226.66,-202.11C221.31,-223.01 211.15,-257.89 197,-285.6 192.34,-294.73 186.22,-304.04 180.26,-312.25"/>
<polygon fill="black" stroke="black" points="177.56,-310.01 174.34,-320.1 183.15,-314.22 177.56,-310.01"/>
</g>
<!-- p3_INVISIBLE_HAND_0 -->
<g id="node8" class="node">
<title>p3_INVISIBLE_HAND_0</title>
<path fill="lightblue" stroke="black" d="M289.22,-357.6C289.22,-357.6 256.78,-357.6 256.78,-357.6 250.78,-357.6 244.78,-351.6 244.78,-345.6 244.78,-345.6 244.78,-333.6 244.78,-333.6 244.78,-327.6 250.78,-321.6 256.78,-321.6 256.78,-321.6 289.22,-321.6 289.22,-321.6 295.22,-321.6 301.22,-327.6 301.22,-333.6 301.22,-333.6 301.22,-345.6 301.22,-345.6 301.22,-351.6 295.22,-357.6 289.22,-357.6"/>
<text text-anchor="middle" x="273" y="-335.4" font-family="Futura" font-size="14.00">HAND</text>
</g>
<!-- table_INVISIBLE_STOCK_0&#45;&gt;p3_INVISIBLE_HAND_0 -->
<g id="edge3" class="edge">
<title>table_INVISIBLE_STOCK_0-&gt;p3_INVISIBLE_HAND_0</title>
<path fill="none" stroke="black" d="M263.1,-197.83C280.7,-207.4 300.94,-221.92 311,-241.6 319.9,-259.01 316.98,-266.98 311,-285.6 307.91,-295.21 302.37,-304.55 296.45,-312.64"/>
<polygon fill="black" stroke="black" points="293.84,-310.31 290.4,-320.33 299.34,-314.64 293.84,-310.31"/>
</g>
<!-- p4_INVISIBLE_HAND_0 -->
<g id="node10" class="node">
<title>p4_INVISIBLE_HAND_0</title>
<path fill="lightblue" stroke="black" d="M330.22,-124C330.22,-124 297.78,-124 297.78,-124 291.78,-124 285.78,-118 285.78,-112 285.78,-112 285.78,-100 285.78,-100 285.78,-94 291.78,-88 297.78,-88 297.78,-88 330.22,-88 330.22,-88 336.22,-88 342.22,-94 342.22,-100 342.22,-100 342.22,-112 342.22,-112 342.22,-118 336.22,-124 330.22,-124"/>
<text text-anchor="middle" x="314" y="-101.8" font-family="Futura" font-size="14.00">HAND</text>
</g>
<!-- table_INVISIBLE_STOCK_0&#45;&gt;p4_INVISIBLE_HAND_0 -->
<g id="edge4" class="edge">
<title>table_INVISIBLE_STOCK_0-&gt;p4_INVISIBLE_HAND_0</title>
<path fill="none" stroke="black" d="M263.44,-170.03C270.36,-166.26 277.24,-161.76 283,-156.8 290.77,-150.12 298.14,-141.77 303.97,-133.83"/>
<polygon fill="black" stroke="black" points="306.73,-136 309.39,-125.74 300.92,-132.1 306.73,-136"/>
</g>
<!-- table_VISIBLE_TURNED_0&#45;&gt;p4_INVISIBLE_HAND_0 -->
<g id="edge6" class="edge">
<title>table_VISIBLE_TURNED_0-&gt;p4_INVISIBLE_HAND_0</title>
<path fill="none" stroke="red" stroke-width="3" d="M262.78,-106C265.63,-106 268.48,-106 271.33,-106"/>
<polygon fill="red" stroke="red" stroke-width="3" points="271.05,-109.5 281.05,-106 271.05,-102.5 271.05,-109.5"/>
</g>
<!-- table_VISIBLE_DISCARD_0 -->
<g id="node3" class="node">
<title>table_VISIBLE_DISCARD_0</title>
<path fill="lightgreen" stroke="black" d="M169.73,-200.8C169.73,-200.8 116.27,-200.8 116.27,-200.8 110.27,-200.8 104.27,-194.8 104.27,-188.8 104.27,-188.8 104.27,-176.8 104.27,-176.8 104.27,-170.8 110.27,-164.8 116.27,-164.8 116.27,-164.8 169.73,-164.8 169.73,-164.8 175.73,-164.8 181.73,-170.8 181.73,-176.8 181.73,-176.8 181.73,-188.8 181.73,-188.8 181.73,-194.8 175.73,-200.8 169.73,-200.8"/>
<text text-anchor="middle" x="143" y="-178.6" font-family="Futura" font-size="14.00">DISCARD</text>
</g>
<!-- p1_VISIBLE_TRICK_0 -->
<g id="node5" class="node">
<title>p1_VISIBLE_TRICK_0</title>
<path fill="lightgreen" stroke="black" d="M62,-285.6C62,-285.6 28,-285.6 28,-285.6 22,-285.6 16,-279.6 16,-273.6 16,-273.6 16,-261.6 16,-261.6 16,-255.6 22,-249.6 28,-249.6 28,-249.6 62,-249.6 62,-249.6 68,-249.6 74,-255.6 74,-261.6 74,-261.6 74,-273.6 74,-273.6 74,-279.6 68,-285.6 62,-285.6"/>
<text text-anchor="middle" x="45" y="-263.4" font-family="Futura" font-size="14.00">TRICK</text>
</g>
<!-- p1_INVISIBLE_HAND_0&#45;&gt;p1_VISIBLE_TRICK_0 -->
<g id="edge8" class="edge">
<title>p1_INVISIBLE_HAND_0-&gt;p1_VISIBLE_TRICK_0</title>
<path fill="none" stroke="green" stroke-width="3" d="M45,-321.3C45,-314.85 45,-307.33 45,-300.01"/>
<polygon fill="green" stroke="green" stroke-width="3" points="48.5,-300.24 45,-290.24 41.5,-300.24 48.5,-300.24"/>
</g>
<!-- p1_VISIBLE_TRICK_0&#45;&gt;table_VISIBLE_DISCARD_0 -->
<g id="edge12" class="edge">
<title>p1_VISIBLE_TRICK_0-&gt;table_VISIBLE_DISCARD_0</title>
<path fill="none" stroke="green" stroke-width="3" d="M65.31,-249.44C78.62,-238.2 96.3,-223.26 111.43,-210.48"/>
<polygon fill="green" stroke="green" stroke-width="3" points="113.54,-213.28 118.91,-204.15 109.02,-207.93 113.54,-213.28"/>
</g>
<!-- p2_VISIBLE_TRICK_0 -->
<g id="node7" class="node">
<title>p2_VISIBLE_TRICK_0</title>
<path fill="lightgreen" stroke="black" d="M176,-285.6C176,-285.6 142,-285.6 142,-285.6 136,-285.6 130,-279.6 130,-273.6 130,-273.6 130,-261.6 130,-261.6 130,-255.6 136,-249.6 142,-249.6 142,-249.6 176,-249.6 176,-249.6 182,-249.6 188,-255.6 188,-261.6 188,-261.6 188,-273.6 188,-273.6 188,-279.6 182,-285.6 176,-285.6"/>
<text text-anchor="middle" x="159" y="-263.4" font-family="Futura" font-size="14.00">TRICK</text>
</g>
<!-- p2_INVISIBLE_HAND_0&#45;&gt;p2_VISIBLE_TRICK_0 -->
<g id="edge9" class="edge">
<title>p2_INVISIBLE_HAND_0-&gt;p2_VISIBLE_TRICK_0</title>
<path fill="none" stroke="green" stroke-width="3" d="M159,-321.3C159,-314.85 159,-307.33 159,-300.01"/>
<polygon fill="green" stroke="green" stroke-width="3" points="162.5,-300.24 159,-290.24 155.5,-300.24 162.5,-300.24"/>
</g>
<!-- p2_VISIBLE_TRICK_0&#45;&gt;table_VISIBLE_DISCARD_0 -->
<g id="edge13" class="edge">
<title>p2_VISIBLE_TRICK_0-&gt;table_VISIBLE_DISCARD_0</title>
<path fill="none" stroke="green" stroke-width="3" d="M155.68,-249.44C153.79,-239.63 151.35,-227.01 149.12,-215.46"/>
<polygon fill="green" stroke="green" stroke-width="3" points="152.56,-214.83 147.23,-205.68 145.69,-216.16 152.56,-214.83"/>
</g>
<!-- p3_VISIBLE_TRICK_0 -->
<g id="node9" class="node">
<title>p3_VISIBLE_TRICK_0</title>
<path fill="lightgreen" stroke="black" d="M290,-285.6C290,-285.6 256,-285.6 256,-285.6 250,-285.6 244,-279.6 244,-273.6 244,-273.6 244,-261.6 244,-261.6 244,-255.6 250,-249.6 256,-249.6 256,-249.6 290,-249.6 290,-249.6 296,-249.6 302,-255.6 302,-261.6 302,-261.6 302,-273.6 302,-273.6 302,-279.6 296,-285.6 290,-285.6"/>
<text text-anchor="middle" x="273" y="-263.4" font-family="Futura" font-size="14.00">TRICK</text>
</g>
<!-- p3_INVISIBLE_HAND_0&#45;&gt;p3_VISIBLE_TRICK_0 -->
<g id="edge10" class="edge">
<title>p3_INVISIBLE_HAND_0-&gt;p3_VISIBLE_TRICK_0</title>
<path fill="none" stroke="green" stroke-width="3" d="M273,-321.3C273,-314.85 273,-307.33 273,-300.01"/>
<polygon fill="green" stroke="green" stroke-width="3" points="276.5,-300.24 273,-290.24 269.5,-300.24 276.5,-300.24"/>
</g>
<!-- p3_VISIBLE_TRICK_0&#45;&gt;table_VISIBLE_DISCARD_0 -->
<g id="edge14" class="edge">
<title>p3_VISIBLE_TRICK_0-&gt;table_VISIBLE_DISCARD_0</title>
<path fill="none" stroke="green" stroke-width="3" d="M243.83,-258.21C227.47,-252.7 207.16,-244.49 191,-233.6 182.07,-227.58 173.5,-219.66 166.14,-211.91"/>
<polygon fill="green" stroke="green" stroke-width="3" points="168.94,-209.79 159.65,-204.68 163.72,-214.46 168.94,-209.79"/>
</g>
<!-- p4_INVISIBLE_HAND_0&#45;&gt;table_INVISIBLE_STOCK_0 -->
<g id="edge7" class="edge">
<title>p4_INVISIBLE_HAND_0-&gt;table_INVISIBLE_STOCK_0</title>
<path fill="none" stroke="blue" stroke-width="3" d="M294.59,-124.48C287.8,-132.63 279.98,-142.34 267.09,-154.13"/>
<polygon fill="blue" stroke="blue" stroke-width="3" points="264.9,-151.4 259.62,-160.59 269.47,-156.7 264.9,-151.4"/>
</g>
<!-- p4_VISIBLE_TRICK_0 -->
<g id="node11" class="node">
<title>p4_VISIBLE_TRICK_0</title>
<path fill="lightgreen" stroke="black" d="M332,-52C332,-52 298,-52 298,-52 292,-52 286,-46 286,-40 286,-40 286,-28 286,-28 286,-22 292,-16 298,-16 298,-16 332,-16 332,-16 338,-16 344,-22 344,-28 344,-28 344,-40 344,-40 344,-46 338,-52 332,-52"/>
<text text-anchor="middle" x="315" y="-29.8" font-family="Futura" font-size="14.00">TRICK</text>
</g>
<!-- p4_INVISIBLE_HAND_0&#45;&gt;p4_VISIBLE_TRICK_0 -->
<g id="edge11" class="edge">
<title>p4_INVISIBLE_HAND_0-&gt;p4_VISIBLE_TRICK_0</title>
<path fill="none" stroke="green" stroke-width="3" d="M314.25,-87.7C314.34,-81.25 314.45,-73.73 314.55,-66.41"/>
<polygon fill="green" stroke="green" stroke-width="3" points="318.05,-66.69 314.69,-56.64 311.05,-66.59 318.05,-66.69"/>
</g>
<!-- p4_VISIBLE_TRICK_0&#45;&gt;table_VISIBLE_DISCARD_0 -->
<g id="edge15" class="edge">
<title>p4_VISIBLE_TRICK_0-&gt;table_VISIBLE_DISCARD_0</title>
<path fill="none" stroke="green" stroke-width="3" d="M333.22,-52.08C340.2,-59.85 347.36,-69.62 351,-80 362.3,-112.21 374.53,-132.07 351,-156.8 340.27,-168.08 239.19,-163.1 196.38,-165.42"/>
<polygon fill="green" stroke="green" stroke-width="3" points="196.13,-161.93 186.55,-166.46 196.86,-168.89 196.13,-161.93"/>
</g>
</g>
</svg>