<svg width="100%" height="100%" xmlns="http://www.w3.org/2000/svg" xmlns:xlink="http://www.w3.org/1999/xlink" viewBox="0.00 0.00 1233.74 359.20">
<g id="graph0" class="graph" transform="translate(4,355.20001220703125) scale(1)">
<polygon fill="white" stroke="none" points="-4,4 -4,-355.2 1229.74,-355.2 1229.74,4 -4,4"/>
<text text-anchor="middle" x="612.87" y="-334.6" font-family="Futura" font-size="14.00">GolfSix</text>
<g id="clust1" class="cluster">
<title>cluster_table</title>
<polygon fill="ghostwhite" stroke="black" points="520,-164.8 520,-241.6 694,-241.6 694,-164.8 520,-164.8"/>
<text text-anchor="middle" x="607" y="-225" font-family="Futura" font-size="14.00">table</text>
</g>
<g id="clust2" class="cluster">
<title>cluster_p1</title>
<polygon fill="ghostwhite" stroke="black" points="8,-164.8 8,-318.4 512,-318.4 512,-164.8 8,-164.8"/>
<text text-anchor="middle" x="260" y="-301.8" font-family="Futura" font-size="14.00">p1</text>
</g>
<g id="clust3" class="cluster">
<title>cluster_p2</title>
<polygon fill="ghostwhite" stroke="black" points="702,-164.8 702,-318.4 1206,-318.4 1206,-164.8 702,-164.8"/>
<text text-anchor="middle" x="954" y="-301.8" font-family="Futura" font-size="14.00">p2</text>
</g>
<g id="clust4" class="cluster">
<title>cluster_p3</title>
<polygon fill="ghostwhite" stroke="black" points="64,-8 64,-156.8 568,-156.8 568,-8 64,-8"/>
<text text-anchor="middle" x="316" y="-140.2" font-family="Futura" font-size="14.00">p3</text>
</g>
<g id="clust5" class="cluster">
<title>cluster_p4</title>
<polygon fill="ghostwhite" stroke="black" points="684,-8 684,-156.8 1188,-156.8 1188,-8 684,-8"/>
<text text-anchor="middle" x="936" y="-140.2" font-family="Futura" font-size="14.00">p4</text>
</g>
<!-- table_INVISIBLE_STOCK_0 -->
<g id="node1" class="node">
<title>table_INVISIBLE_STOCK_0</title>
<path fill="khaki" stroke="black" stroke-width="3" d="M577.95,-208.8C577.95,-208.8 540.05,-208.8 540.05,-208.8 534.05,-208.8 528.05,-202.8 528.05,-196.8 528.05,-196.8 528.05,-184.8 528.05,-184.8 528.05,-178.8 534.05,-172.8 540.05,-172.8 540.05,-172.8 577.95,-172.8 577.95,-172.8 583.95,-172.8 589.95,-178.8 589.95,-184.8 589.95,-184.8 589.95,-196.8 589.95,-196.8 589.95,-202.8 583.95,-208.8 577.95,-208.8"/>
<text text-anchor="middle" x="559" y="-186.6" font-family="Futura" font-size="14.00">STOCK</text>
</g>
<!-- p1_HIDDEN_LOC_1 -->
<g id="node3" class="node">
<title>p1_HIDDEN_LOC_1</title>
<path fill="khaki" stroke="black" d="M348,-285.6C348,-285.6 318,-285.6 318,-285.6 312,-285.6 306,-279.6 306,-273.6 306,-273.6 306,-261.6 306,-261.6 306,-255.6 312,-249.6 318,-249.6 318,-249.6 348,-249.6 348,-249.6 354,-249.6 360,-255.6 360,-261.6 360,-261.6 360,-273.6 360,-273.6 360,-279.6 354,-285.6 348,-285.6"/>
<text text-anchor="start" x="315.5" y="-264.4" font-family="Futura" font-size="14.00">LOC</text>
<text text-anchor="start" x="343.5" y="-264.4" font-family="Futura" baseline-shift="sub" font-size="14.00">1</text>
</g>
<!-- table_INVISIBLE_STOCK_0&#45;&gt;p1_HIDDEN_LOC_1 -->
<g id="edge1" class="edge">
<title>table_INVISIBLE_STOCK_0-&gt;p1_HIDDEN_LOC_1</title>
<path fill="none" stroke="black" d="M548.54,-210.1C541.04,-221.33 529.84,-234.8 516,-241.6 489.1,-254.81 414.75,-243.8 371.24,-250.23"/>
<polygon fill="black" stroke="black" points="370.71,-246.77 361.59,-252.17 372.09,-253.63 370.71,-246.77"/>
</g>
<!-- p1_HIDDEN_LOC_2 -->
<g id="node4" class="node">
<title>p1_HIDDEN_LOC_2</title>
<path fill="khaki" stroke="black" d="M58,-285.6C58,-285.6 28,-285.6 28,-285.6 22,-285.6 16,-279.6 16,-273.6 16,-273.6 16,-261.6 16,-261.6 16,-255.6 22,-249.6 28,-249.6 28,-249.6 58,-249.6 58,-249.6 64,-249.6 70,-255.6 70,-261.6 70,-261.6 70,-273.6 70,-273.6 70,-279.6 64,-285.6 58,-285.6"/>
<text text-anchor="start" x="25.5" y="-264.4" font-family="Futura" font-size="14.00">LOC</text>
<text text-anchor="start" x="53.5" y="-264.4" font-family="Futura" baseline-shift="sub" font-size="14.00">2</text>
</g>
<!-- table_INVISIBLE_STOCK_0&#45;&gt;p1_HIDDEN_LOC_2 -->
<g id="edge2" class="edge">
<title>table_INVISIBLE_STOCK_0-&gt;p1_HIDDEN_LOC_2</title>
<path fill="none" stroke="black" d="M548.62,-210.27C541.16,-221.56 529.96,-235.05 516,-241.6 495.52,-251.2 154.43,-245.06 81.88,-250.75"/>
<polygon fill="black" stroke="black" points="81.46,-247.28 71.99,-252.02 82.35,-254.22 81.46,-247.28"/>
</g>
<!-- p1_HIDDEN_LOC_3 -->
<g id="node5" class="node">
<title>p1_HIDDEN_LOC_3</title>
<path fill="khaki" stroke="black" d="M202,-285.6C202,-285.6 172,-285.6 172,-285.6 166,-285.6 160,-279.6 160,-273.6 160,-273.6 160,-261.6 160,-261.6 160,-255.6 166,-249.6 172,-249.6 172,-249.6 202,-249.6 202,-249.6 208,-249.6 214,-255.6 214,-261.6 214,-261.6 214,-273.6 214,-273.6 214,-279.6 208,-285.6 202,-285.6"/>
<text text-anchor="start" x="169.5" y="-264.4" font-family="Futura" font-size="14.00">LOC</text>
<text text-anchor="start" x="197.5" y="-264.4" font-family="Futura" baseline-shift="sub" font-size="14.00">3</text>
</g>
<!-- table_INVISIBLE_STOCK_0&#45;&gt;p1_HIDDEN_LOC_3 -->
<g id="edge3" class="edge">
<title>table_INVISIBLE_STOCK_0-&gt;p1_HIDDEN_LOC_3</title>
<path fill="none" stroke="black" d="M548.6,-210.23C541.13,-221.5 529.93,-234.99 516,-241.6 488.64,-254.58 286.29,-243.81 225.67,-250.42"/>
<polygon fill="black" stroke="black" points="225.29,-246.93 215.99,-251.99 226.42,-253.84 225.29,-246.93"/>
</g>
<!-- p1_HIDDEN_LOC_4 -->
<g id="node6" class="node">
<title>p1_HIDDEN_LOC_4</title>
<path fill="khaki" stroke="black" d="M420,-285.6C420,-285.6 390,-285.6 390,-285.6 384,-285.6 378,-279.6 378,-273.6 378,-273.6 378,-261.6 378,-261.6 378,-255.6 384,-249.6 390,-249.6 390,-249.6 420,-249.6 420,-249.6 426,-249.6 432,-255.6 432,-261.6 432,-261.6 432,-273.6 432,-273.6 432,-279.6 426,-285.6 420,-285.6"/>
<text text-anchor="start" x="387.5" y="-264.4" font-family="Futura" font-size="14.00">LOC</text>
<text text-anchor="start" x="415.5" y="-264.4" font-family="Futura" baseline-shift="sub" font-size="14.00">4</text>
</g>
<!-- table_INVISIBLE_STOCK_0&#45;&gt;p1_HIDDEN_LOC_4 -->
<g id="edge4" class="edge">
<title>table_INVISIBLE_STOCK_0-&gt;p1_HIDDEN_LOC_4</title>
<path fill="none" stroke="black" d="M548.25,-210.11C540.71,-221.19 529.56,-234.5 516,-241.6 489.09,-255.69 475.86,-243.37 443.01,-249.93"/>
<polygon fill="black" stroke="black" points="442.48,-246.46 433.62,-252.26 444.17,-253.25 442.48,-246.46"/>
</g>
<!-- p1_HIDDEN_LOC_5 -->
<g id="node7" class="node">
<title>p1_HIDDEN_LOC_5</title>
<path fill="khaki" stroke="black" d="M130,-285.6C130,-285.6 100,-285.6 100,-285.6 94,-285.6 88,-279.6 88,-273.6 88,-273.6 88,-261.6 88,-261.6 88,-255.6 94,-249.6 100,-249.6 100,-249.6 130,-249.6 130,-249.6 136,-249.6 142,-255.6 142,-261.6 142,-261.6 142,-273.6 142,-273.6 142,-279.6 136,-285.6 130,-285.6"/>
<text text-anchor="start" x="97.5" y="-264.4" font-family="Futura" font-size="14.00">LOC</text>
<text text-anchor="start" x="125.5" y="-264.4" font-family="Futura" baseline-shift="sub" font-size="14.00">5</text>
</g>
<!-- table_INVISIBLE_STOCK_0&#45;&gt;p1_HIDDEN_LOC_5 -->
<g id="edge5" class="edge">
<title>table_INVISIBLE_STOCK_0-&gt;p1_HIDDEN_LOC_5</title>
<path fill="none" stroke="black" d="M548.61,-210.26C541.15,-221.54 529.95,-235.03 516,-241.6 481.52,-257.84 224.53,-242.41 153.74,-250.37"/>
<polygon fill="black" stroke="black" points="153.28,-246.9 143.98,-251.97 154.42,-253.81 153.28,-246.9"/>
</g>
<!-- p1_HIDDEN_LOC_6 -->
<g id="node8" class="node">
<title>p1_HIDDEN_LOC_6</title>
<path fill="khaki" stroke="black" d="M492,-285.6C492,-285.6 462,-285.6 462,-285.6 456,-285.6 450,-279.6 450,-273.6 450,-273.6 450,-261.6 450,-261.6 450,-255.6 456,-249.6 462,-249.6 462,-249.6 492,-249.6 492,-249.6 498,-249.6 504,-255.6 504,-261.6 504,-261.6 504,-273.6 504,-273.6 504,-279.6 498,-285.6 492,-285.6"/>
<text text-anchor="start" x="459.5" y="-264.4" font-family="Futura" font-size="14.00">LOC</text>
<text text-anchor="start" x="487.5" y="-264.4" font-family="Futura" baseline-shift="sub" font-size="14.00">6</text>
</g>
<!-- table_INVISIBLE_STOCK_0&#45;&gt;p1_HIDDEN_LOC_6 -->
<g id="edge6" class="edge">
<title>table_INVISIBLE_STOCK_0-&gt;p1_HIDDEN_LOC_6</title>
<path fill="none" stroke="black" d="M545.41,-209.99C537.46,-219.96 526.87,-232.17 516,-241.6 515.09,-242.39 514.15,-243.17 513.19,-243.95"/>
<polygon fill="black" stroke="black" points="511.33,-240.97 505.38,-249.73 515.5,-246.59 511.33,-240.97"/>
</g>
<!-- p1_INVISIBLE_HAND_0 -->
<g id="node11" class="node">
<title>p1_INVISIBLE_HAND_0</title>
<path fill="lightblue" stroke="black" d="M276.22,-285.6C276.22,-285.6 243.78,-285.6 243.78,-285.6 237.78,-285.6 231.78,-279.6 231.78,-273.6 231.78,-273.6 231.78,-261.6 231.78,-261.6 231.78,-255.6 237.78,-249.6 243.78,-249.6 243.78,-249.6 276.22,-249.6 276.22,-249.6 282.22,-249.6 288.22,-255.6 288.22,-261.6 288.22,-261.6 288.22,-273.6 288.22,-273.6 288.22,-279.6 282.22,-285.6 276.22,-285.6"/>
<text text-anchor="middle" x="260" y="-263.4" font-family="Futura" font-size="14.00">HAND</text>
</g>
<!-- table_INVISIBLE_STOCK_0&#45;&gt;p1_INVISIBLE_HAND_0 -->
<g id="edge33" class="edge">
<title>table_INVISIBLE_STOCK_0-&gt;p1_INVISIBLE_HAND_0</title>
<path fill="none" stroke="black" d="M548.58,-210.19C541.1,-221.44 529.9,-234.93 516,-241.6 495.93,-251.23 349.37,-245.23 299.89,-250.35"/>
<polygon fill="black" stroke="black" points="299.53,-246.87 290.19,-251.88 300.61,-253.78 299.53,-246.87"/>
</g>
<!-- p2_HIDDEN_LOC_1 -->
<g id="node16" class="node">
<title>p2_HIDDEN_LOC_1</title>
<path fill="khaki" stroke="black" d="M752,-285.6C752,-285.6 722,-285.6 722,-285.6 716,-285.6 710,-279.6 710,-273.6 710,-273.6 710,-261.6 710,-261.6 710,-255.6 716,-249.6 722,-249.6 722,-249.6 752,-249.6 752,-249.6 758,-249.6 764,-255.6 764,-261.6 764,-261.6 764,-273.6 764,-273.6 764,-279.6 758,-285.6 752,-285.6"/>
<text text-anchor="start" x="719.5" y="-264.4" font-family="Futura" font-size="14.00">LOC</text>
<text text-anchor="start" x="747.5" y="-264.4" font-family="Futura" baseline-shift="sub" font-size="14.00">1</text>
</g>
<!-- table_INVISIBLE_STOCK_0&#45;&gt;p2_HIDDEN_LOC_1 -->
<g id="edge7" class="edge">
<title>table_INVISIBLE_STOCK_0-&gt;p2_HIDDEN_LOC_1</title>
<path fill="none" stroke="black" d="M569.21,-210.27C576.18,-221.11 586.42,-234.12 599,-241.6 629.16,-259.54 669.11,-265.21 698.26,-266.73"/>
<polygon fill="black" stroke="black" points="698,-270.22 708.13,-267.09 698.26,-263.23 698,-270.22"/>
</g>
<!-- p2_HIDDEN_LOC_2 -->
<g id="node17" class="node">
<title>p2_HIDDEN_LOC_2</title>
<path fill="khaki" stroke="black" d="M824,-285.6C824,-285.6 794,-285.6 794,-285.6 788,-285.6 782,-279.6 782,-273.6 782,-273.6 782,-261.6 782,-261.6 782,-255.6 788,-249.6 794,-249.6 794,-249.6 824,-249.6 824,-249.6 830,-249.6 836,-255.6 836,-261.6 836,-261.6 836,-273.6 836,-273.6 836,-279.6 830,-285.6 824,-285.6"/>
<text text-anchor="start" x="791.5" y="-264.4" font-family="Futura" font-size="14.00">LOC</text>
<text text-anchor="start" x="819.5" y="-264.4" font-family="Futura" baseline-shift="sub" font-size="14.00">2</text>
</g>
<!-- table_INVISIBLE_STOCK_0&#45;&gt;p2_HIDDEN_LOC_2 -->
<g id="edge8" class="edge">
<title>table_INVISIBLE_STOCK_0-&gt;p2_HIDDEN_LOC_2</title>
<path fill="none" stroke="black" d="M568.42,-210.12C575.26,-221.34 585.65,-234.82 599,-241.6 630.95,-257.83 720.68,-242.87 770.69,-250.22"/>
<polygon fill="black" stroke="black" points="769.92,-253.63 780.41,-252.15 771.29,-246.77 769.92,-253.63"/>
</g>
<!-- p2_HIDDEN_LOC_3 -->
<g id="node18" class="node">
<title>p2_HIDDEN_LOC_3</title>
<path fill="khaki" stroke="black" d="M968,-285.6C968,-285.6 938,-285.6 938,-285.6 932,-285.6 926,-279.6 926,-273.6 926,-273.6 926,-261.6 926,-261.6 926,-255.6 932,-249.6 938,-249.6 938,-249.6 968,-249.6 968,-249.6 974,-249.6 980,-255.6 980,-261.6 980,-261.6 980,-273.6 980,-273.6 980,-279.6 974,-285.6 968,-285.6"/>
<text text-anchor="start" x="935.5" y="-264.4" font-family="Futura" font-size="14.00">LOC</text>
<text text-anchor="start" x="963.5" y="-264.4" font-family="Futura" baseline-shift="sub" font-size="14.00">3</text>
</g>
<!-- table_INVISIBLE_STOCK_0&#45;&gt;p2_HIDDEN_LOC_3 -->
<g id="edge9" class="edge">
<title>table_INVISIBLE_STOCK_0-&gt;p2_HIDDEN_LOC_3</title>
<path fill="none" stroke="black" d="M568.37,-210.21C575.19,-221.47 585.58,-234.96 599,-241.6 628.57,-256.24 850.12,-243.4 914.32,-250.41"/>
<polygon fill="black" stroke="black" points="913.58,-253.84 924.02,-251.99 914.71,-246.93 913.58,-253.84"/>
</g>
<!-- p2_HIDDEN_LOC_4 -->
<g id="node19" class="node">
<title>p2_HIDDEN_LOC_4</title>
<path fill="khaki" stroke="black" d="M1112,-285.6C1112,-285.6 1082,-285.6 1082,-285.6 1076,-285.6 1070,-279.6 1070,-273.6 1070,-273.6 1070,-261.6 1070,-261.6 1070,-255.6 1076,-249.6 1082,-249.6 1082,-249.6 1112,-249.6 1112,-249.6 1118,-249.6 1124,-255.6 1124,-261.6 1124,-261.6 1124,-273.6 1124,-273.6 1124,-279.6 1118,-285.6 1112,-285.6"/>
<text text-anchor="start" x="1079.5" y="-264.4" font-family="Futura" font-size="14.00">LOC</text>
<text text-anchor="start" x="1107.5" y="-264.4" font-family="Futura" baseline-shift="sub" font-size="14.00">4</text>
</g>
<!-- table_INVISIBLE_STOCK_0&#45;&gt;p2_HIDDEN_LOC_4 -->
<g id="edge10" class="edge">
<title>table_INVISIBLE_STOCK_0-&gt;p2_HIDDEN_LOC_4</title>
<path fill="none" stroke="black" d="M568.35,-210.24C575.17,-221.52 585.56,-235.01 599,-241.6 620.57,-252.17 984.26,-244.86 1058.5,-250.78"/>
<polygon fill="black" stroke="black" points="1057.65,-254.2 1068.01,-252.01 1058.55,-247.26 1057.65,-254.2"/>
</g>
<!-- p2_HIDDEN_LOC_5 -->
<g id="node20" class="node">
<title>p2_HIDDEN_LOC_5</title>
<path fill="khaki" stroke="black" d="M1040,-285.6C1040,-285.6 1010,-285.6 1010,-285.6 1004,-285.6 998,-279.6 998,-273.6 998,-273.6 998,-261.6 998,-261.6 998,-255.6 1004,-249.6 1010,-249.6 1010,-249.6 1040,-249.6 1040,-249.6 1046,-249.6 1052,-255.6 1052,-261.6 1052,-261.6 1052,-273.6 1052,-273.6 1052,-279.6 1046,-285.6 1040,-285.6"/>
<text text-anchor="start" x="1007.5" y="-264.4" font-family="Futura" font-size="14.00">LOC</text>
<text text-anchor="start" x="1035.5" y="-264.4" font-family="Futura" baseline-shift="sub" font-size="14.00">5</text>
</g>
<!-- table_INVISIBLE_STOCK_0&#45;&gt;p2_HIDDEN_LOC_5 -->
<g id="edge11" class="edge">
<title>table_INVISIBLE_STOCK_0-&gt;p2_HIDDEN_LOC_5</title>
<path fill="none" stroke="black" d="M568.36,-210.23C575.18,-221.5 585.57,-234.99 599,-241.6 617.04,-250.48 919.12,-245.5 986.33,-250.78"/>
<polygon fill="black" stroke="black" points="985.65,-254.22 996.01,-252.02 986.54,-247.28 985.65,-254.22"/>
</g>
<!-- p2_HIDDEN_LOC_6 -->
<g id="node21" class="node">
<title>p2_HIDDEN_LOC_6</title>
<path fill="khaki" stroke="black" d="M896,-285.6C896,-285.6 866,-285.6 866,-285.6 860,-285.6 854,-279.6 854,-273.6 854,-273.6 854,-261.6 854,-261.6 854,-255.6 860,-249.6 866,-249.6 866,-249.6 896,-249.6 896,-249.6 902,-249.6 908,-255.6 908,-261.6 908,-261.6 908,-273.6 908,-273.6 908,-279.6 902,-285.6 896,-285.6"/>
<text text-anchor="start" x="863.5" y="-264.4" font-family="Futura" font-size="14.00">LOC</text>
<text text-anchor="start" x="891.5" y="-264.4" font-family="Futura" baseline-shift="sub" font-size="14.00">6</text>
</g>
<!-- table_INVISIBLE_STOCK_0&#45;&gt;p2_HIDDEN_LOC_6 -->
<g id="edge12" class="edge">
<title>table_INVISIBLE_STOCK_0-&gt;p2_HIDDEN_LOC_6</title>
<path fill="none" stroke="black" d="M568.39,-210.18C575.22,-221.43 585.61,-234.91 599,-241.6 621.51,-252.84 788.29,-244.74 842.17,-250.43"/>
<polygon fill="black" stroke="black" points="841.58,-253.88 852.01,-252.01 842.69,-246.97 841.58,-253.88"/>
</g>
<!-- p2_INVISIBLE_HAND_0 -->
<g id="node24" class="node">
<title>p2_INVISIBLE_HAND_0</title>
<path fill="lightblue" stroke="black" d="M1186.22,-285.6C1186.22,-285.6 1153.78,-285.6 1153.78,-285.6 1147.78,-285.6 1141.78,-279.6 1141.78,-273.6 1141.78,-273.6 1141.78,-261.6 1141.78,-261.6 1141.78,-255.6 1147.78,-249.6 1153.78,-249.6 1153.78,-249.6 1186.22,-249.6 1186.22,-249.6 1192.22,-249.6 1198.22,-255.6 1198.22,-261.6 1198.22,-261.6 1198.22,-273.6 1198.22,-273.6 1198.22,-279.6 1192.22,-285.6 1186.22,-285.6"/>
<text text-anchor="middle" x="1170" y="-263.4" font-family="Futura" font-size="14.00">HAND</text>
</g>
<!-- table_INVISIBLE_STOCK_0&#45;&gt;p2_INVISIBLE_HAND_0 -->
<g id="edge48" class="edge">
<title>table_INVISIBLE_STOCK_0-&gt;p2_INVISIBLE_HAND_0</title>
<path fill="none" stroke="black" d="M568.35,-210.25C575.16,-221.54 585.55,-235.03 599,-241.6 624.04,-253.84 1047.79,-244.36 1129.9,-250.63"/>
<polygon fill="black" stroke="black" points="1129.46,-254.1 1139.82,-251.86 1130.32,-247.16 1129.46,-254.1"/>
</g>
<!-- p3_HIDDEN_LOC_1 -->
<g id="node29" class="node">
<title>p3_HIDDEN_LOC_1</title>
<path fill="khaki" stroke="black" d="M476,-124C476,-124 446,-124 446,-124 440,-124 434,-118 434,-112 434,-112 434,-100 434,-100 434,-94 440,-88 446,-88 446,-88 476,-88 476,-88 482,-88 488,-94 488,-100 488,-100 488,-112 488,-112 488,-118 482,-124 476,-124"/>
<text text-anchor="start" x="443.5" y="-102.8" font-family="Futura" font-size="14.00">LOC</text>
<text text-anchor="start" x="471.5" y="-102.8" font-family="Futura" baseline-shift="sub" font-size="14.00">1</text>
</g>
<!-- table_INVISIBLE_STOCK_0&#45;&gt;p3_HIDDEN_LOC_1 -->
<g id="edge13" class="edge">
<title>table_INVISIBLE_STOCK_0-&gt;p3_HIDDEN_LOC_1</title>
<path fill="none" stroke="black" d="M528.73,-171.55C524.5,-169.2 520.17,-166.88 516,-164.8 507.8,-160.71 504.17,-162.5 497,-156.8 489.04,-150.48 482.02,-141.96 476.35,-133.76"/>
<polygon fill="black" stroke="black" points="479.29,-131.87 470.93,-125.36 473.41,-135.66 479.29,-131.87"/>
</g>
<!-- p3_HIDDEN_LOC_2 -->
<g id="node30" class="node">
<title>p3_HIDDEN_LOC_2</title>
<path fill="khaki" stroke="black" d="M332,-124C332,-124 302,-124 302,-124 296,-124 290,-118 290,-112 290,-112 290,-100 290,-100 290,-94 296,-88 302,-88 302,-88 332,-88 332,-88 338,-88 344,-94 344,-100 344,-100 344,-112 344,-112 344,-118 338,-124 332,-124"/>
<text text-anchor="start" x="299.5" y="-102.8" font-family="Futura" font-size="14.00">LOC</text>
<text text-anchor="start" x="327.5" y="-102.8" font-family="Futura" baseline-shift="sub" font-size="14.00">2</text>
</g>
<!-- table_INVISIBLE_STOCK_0&#45;&gt;p3_HIDDEN_LOC_2 -->
<g id="edge14" class="edge">
<title>table_INVISIBLE_STOCK_0-&gt;p3_HIDDEN_LOC_2</title>
<path fill="none" stroke="black" d="M531.66,-171.35C526.64,-168.72 521.3,-166.37 516,-164.8 481.23,-154.51 384.88,-174.09 353,-156.8 343.46,-151.63 335.82,-142.7 330.07,-133.82"/>
<polygon fill="black" stroke="black" points="333.19,-132.23 325.15,-125.33 327.14,-135.74 333.19,-132.23"/>
</g>
<!-- p3_HIDDEN_LOC_3 -->
<g id="node31" class="node">
<title>p3_HIDDEN_LOC_3</title>
<path fill="khaki" stroke="black" d="M404,-124C404,-124 374,-124 374,-124 368,-124 362,-118 362,-112 362,-112 362,-100 362,-100 362,-94 368,-88 374,-88 374,-88 404,-88 404,-88 410,-88 416,-94 416,-100 416,-100 416,-112 416,-112 416,-118 410,-124 404,-124"/>
<text text-anchor="start" x="371.5" y="-102.8" font-family="Futura" font-size="14.00">LOC</text>
<text text-anchor="start" x="399.5" y="-102.8" font-family="Futura" baseline-shift="sub" font-size="14.00">3</text>
</g>
<!-- table_INVISIBLE_STOCK_0&#45;&gt;p3_HIDDEN_LOC_3 -->
<g id="edge15" class="edge">
<title>table_INVISIBLE_STOCK_0-&gt;p3_HIDDEN_LOC_3</title>
<path fill="none" stroke="black" d="M531.61,-171.53C526.59,-168.87 521.27,-166.47 516,-164.8 496.65,-158.66 442.65,-166.82 425,-156.8 415.7,-151.52 408.16,-142.74 402.43,-134"/>
<polygon fill="black" stroke="black" points="405.6,-132.49 397.5,-125.66 399.57,-136.05 405.6,-132.49"/>
</g>
<!-- p3_HIDDEN_LOC_4 -->
<g id="node32" class="node">
<title>p3_HIDDEN_LOC_4</title>
<path fill="khaki" stroke="black" d="M548,-124C548,-124 518,-124 518,-124 512,-124 506,-118 506,-112 506,-112 506,-100 506,-100 506,-94 512,-88 518,-88 518,-88 548,-88 548,-88 554,-88 560,-94 560,-100 560,-100 560,-112 560,-112 560,-118 554,-124 548,-124"/>
<text text-anchor="start" x="515.5" y="-102.8" font-family="Futura" font-size="14.00">LOC</text>
<text text-anchor="start" x="543.5" y="-102.8" font-family="Futura" baseline-shift="sub" font-size="14.00">4</text>
</g>
<!-- table_INVISIBLE_STOCK_0&#45;&gt;p3_HIDDEN_LOC_4 -->
<g id="edge16" class="edge">
<title>table_INVISIBLE_STOCK_0-&gt;p3_HIDDEN_LOC_4</title>
<path fill="none" stroke="black" d="M553.23,-171.42C549.9,-160.81 545.63,-147.23 541.88,-135.28"/>
<polygon fill="black" stroke="black" points="545.28,-134.41 538.94,-125.92 538.6,-136.51 545.28,-134.41"/>
</g>
<!-- p3_HIDDEN_LOC_5 -->
<g id="node33" class="node">
<title>p3_HIDDEN_LOC_5</title>
<path fill="khaki" stroke="black" d="M260,-124C260,-124 230,-124 230,-124 224,-124 218,-118 218,-112 218,-112 218,-100 218,-100 218,-94 224,-88 230,-88 230,-88 260,-88 260,-88 266,-88 272,-94 272,-100 272,-100 272,-112 272,-112 272,-118 266,-124 260,-124"/>
<text text-anchor="start" x="227.5" y="-102.8" font-family="Futura" font-size="14.00">LOC</text>
<text text-anchor="start" x="255.5" y="-102.8" font-family="Futura" baseline-shift="sub" font-size="14.00">5</text>
</g>
<!-- table_INVISIBLE_STOCK_0&#45;&gt;p3_HIDDEN_LOC_5 -->
<g id="edge17" class="edge">
<title>table_INVISIBLE_STOCK_0-&gt;p3_HIDDEN_LOC_5</title>
<path fill="none" stroke="black" d="M532.15,-171.53C526.99,-168.8 521.48,-166.38 516,-164.8 490.89,-157.57 304.06,-169.08 281,-156.8 271.42,-151.7 263.77,-142.79 258.03,-133.9"/>
<polygon fill="black" stroke="black" points="261.15,-132.3 253.11,-125.39 255.09,-135.8 261.15,-132.3"/>
</g>
<!-- p3_HIDDEN_LOC_6 -->
<g id="node34" class="node">
<title>p3_HIDDEN_LOC_6</title>
<path fill="khaki" stroke="black" d="M188,-124C188,-124 158,-124 158,-124 152,-124 146,-118 146,-112 146,-112 146,-100 146,-100 146,-94 152,-88 158,-88 158,-88 188,-88 188,-88 194,-88 200,-94 200,-100 200,-100 200,-112 200,-112 200,-118 194,-124 188,-124"/>
<text text-anchor="start" x="155.5" y="-102.8" font-family="Futura" font-size="14.00">LOC</text>
<text text-anchor="start" x="183.5" y="-102.8" font-family="Futura" baseline-shift="sub" font-size="14.00">6</text>
</g>
<!-- table_INVISIBLE_STOCK_0&#45;&gt;p3_HIDDEN_LOC_6 -->
<g id="edge18" class="edge">
<title>table_INVISIBLE_STOCK_0-&gt;p3_HIDDEN_LOC_6</title>
<path fill="none" stroke="black" d="M532.16,-171.5C527,-168.77 521.48,-166.35 516,-164.8 483.17,-155.49 239.18,-172.72 209,-156.8 199.4,-151.74 191.75,-142.83 186.01,-133.94"/>
<polygon fill="black" stroke="black" points="189.12,-132.34 181.1,-125.43 183.06,-135.84 189.12,-132.34"/>
</g>
<!-- p3_INVISIBLE_HAND_0 -->
<g id="node37" class="node">
<title>p3_INVISIBLE_HAND_0</title>
<path fill="lightblue" stroke="black" d="M116.22,-124C116.22,-124 83.78,-124 83.78,-124 77.78,-124 71.78,-118 71.78,-112 71.78,-112 71.78,-100 71.78,-100 71.78,-94 77.78,-88 83.78,-88 83.78,-88 116.22,-88 116.22,-88 122.22,-88 128.22,-94 128.22,-100 128.22,-100 128.22,-112 128.22,-112 128.22,-118 122.22,-124 116.22,-124"/>
<text text-anchor="middle" x="100" y="-101.8" font-family="Futura" font-size="14.00">HAND</text>
</g>
<!-- table_INVISIBLE_STOCK_0&#45;&gt;p3_INVISIBLE_HAND_0 -->
<g id="edge39" class="edge">
<title>table_INVISIBLE_STOCK_0-&gt;p3_INVISIBLE_HAND_0</title>
<path fill="none" stroke="black" d="M532.17,-171.48C527,-168.75 521.49,-166.34 516,-164.8 495.72,-159.1 155.71,-166.46 137,-156.8 127.26,-151.78 119.42,-142.88 113.51,-133.99"/>
<polygon fill="black" stroke="black" points="116.55,-132.25 108.43,-125.45 110.54,-135.83 116.55,-132.25"/>
</g>
<!-- p4_HIDDEN_LOC_1 -->
<g id="node42" class="node">
<title>p4_HIDDEN_LOC_1</title>
<path fill="khaki" stroke="black" d="M1168,-124C1168,-124 1138,-124 1138,-124 1132,-124 1126,-118 1126,-112 1126,-112 1126,-100 1126,-100 1126,-94 1132,-88 1138,-88 1138,-88 1168,-88 1168,-88 1174,-88 1180,-94 1180,-100 1180,-100 1180,-112 1180,-112 1180,-118 1174,-124 1168,-124"/>
<text text-anchor="start" x="1135.5" y="-102.8" font-family="Futura" font-size="14.00">LOC</text>
<text text-anchor="start" x="1163.5" y="-102.8" font-family="Futura" baseline-shift="sub" font-size="14.00">1</text>
</g>
<!-- table_INVISIBLE_STOCK_0&#45;&gt;p4_HIDDEN_LOC_1 -->
<g id="edge19" class="edge">
<title>table_INVISIBLE_STOCK_0-&gt;p4_HIDDEN_LOC_1</title>
<path fill="none" stroke="black" d="M583.83,-171.46C588.65,-168.73 593.82,-166.33 599,-164.8 626.6,-156.65 1091.47,-170.09 1117,-156.8 1126.62,-151.79 1134.28,-142.9 1140.02,-134"/>
<polygon fill="black" stroke="black" points="1142.97,-135.88 1144.93,-125.47 1136.91,-132.39 1142.97,-135.88"/>
</g>
<!-- p4_HIDDEN_LOC_2 -->
<g id="node43" class="node">
<title>p4_HIDDEN_LOC_2</title>
<path fill="khaki" stroke="black" d="M734,-124C734,-124 704,-124 704,-124 698,-124 692,-118 692,-112 692,-112 692,-100 692,-100 692,-94 698,-88 704,-88 704,-88 734,-88 734,-88 740,-88 746,-94 746,-100 746,-100 746,-112 746,-112 746,-118 740,-124 734,-124"/>
<text text-anchor="start" x="701.5" y="-102.8" font-family="Futura" font-size="14.00">LOC</text>
<text text-anchor="start" x="729.5" y="-102.8" font-family="Futura" baseline-shift="sub" font-size="14.00">2</text>
</g>
<!-- table_INVISIBLE_STOCK_0&#45;&gt;p4_HIDDEN_LOC_2 -->
<g id="edge20" class="edge">
<title>table_INVISIBLE_STOCK_0-&gt;p4_HIDDEN_LOC_2</title>
<path fill="none" stroke="black" d="M587.61,-171.39C591.41,-169.11 595.27,-166.86 599,-164.8 626.05,-149.89 657.53,-134.81 681.46,-123.79"/>
<polygon fill="black" stroke="black" points="682.87,-127 690.51,-119.66 679.96,-120.63 682.87,-127"/>
</g>
<!-- p4_HIDDEN_LOC_3 -->
<g id="node44" class="node">
<title>p4_HIDDEN_LOC_3</title>
<path fill="khaki" stroke="black" d="M1024,-124C1024,-124 994,-124 994,-124 988,-124 982,-118 982,-112 982,-112 982,-100 982,-100 982,-94 988,-88 994,-88 994,-88 1024,-88 1024,-88 1030,-88 1036,-94 1036,-100 1036,-100 1036,-112 1036,-112 1036,-118 1030,-124 1024,-124"/>
<text text-anchor="start" x="991.5" y="-102.8" font-family="Futura" font-size="14.00">LOC</text>
<text text-anchor="start" x="1019.5" y="-102.8" font-family="Futura" baseline-shift="sub" font-size="14.00">3</text>
</g>
<!-- table_INVISIBLE_STOCK_0&#45;&gt;p4_HIDDEN_LOC_3 -->
<g id="edge21" class="edge">
<title>table_INVISIBLE_STOCK_0-&gt;p4_HIDDEN_LOC_3</title>
<path fill="none" stroke="black" d="M583.84,-171.48C588.65,-168.76 593.82,-166.35 599,-164.8 618.91,-158.86 954.6,-166.45 973,-156.8 982.61,-151.76 990.27,-142.86 996,-133.97"/>
<polygon fill="black" stroke="black" points="998.96,-135.86 1000.92,-125.45 992.89,-132.36 998.96,-135.86"/>
</g>
<!-- p4_HIDDEN_LOC_4 -->
<g id="node45" class="node">
<title>p4_HIDDEN_LOC_4</title>
<path fill="khaki" stroke="black" d="M952,-124C952,-124 922,-124 922,-124 916,-124 910,-118 910,-112 910,-112 910,-100 910,-100 910,-94 916,-88 922,-88 922,-88 952,-88 952,-88 958,-88 964,-94 964,-100 964,-100 964,-112 964,-112 964,-118 958,-124 952,-124"/>
<text text-anchor="start" x="919.5" y="-102.8" font-family="Futura" font-size="14.00">LOC</text>
<text text-anchor="start" x="947.5" y="-102.8" font-family="Futura" baseline-shift="sub" font-size="14.00">4</text>
</g>
<!-- table_INVISIBLE_STOCK_0&#45;&gt;p4_HIDDEN_LOC_4 -->
<g id="edge22" class="edge">
<title>table_INVISIBLE_STOCK_0-&gt;p4_HIDDEN_LOC_4</title>
<path fill="none" stroke="black" d="M583.84,-171.5C588.66,-168.78 593.82,-166.36 599,-164.8 631.14,-155.12 871.31,-172.47 901,-156.8 910.6,-151.73 918.25,-142.83 923.99,-133.94"/>
<polygon fill="black" stroke="black" points="926.94,-135.84 928.9,-125.43 920.87,-132.34 926.94,-135.84"/>
</g>
<!-- p4_HIDDEN_LOC_5 -->
<g id="node46" class="node">
<title>p4_HIDDEN_LOC_5</title>
<path fill="khaki" stroke="black" d="M880,-124C880,-124 850,-124 850,-124 844,-124 838,-118 838,-112 838,-112 838,-100 838,-100 838,-94 844,-88 850,-88 850,-88 880,-88 880,-88 886,-88 892,-94 892,-100 892,-100 892,-112 892,-112 892,-118 886,-124 880,-124"/>
<text text-anchor="start" x="847.5" y="-102.8" font-family="Futura" font-size="14.00">LOC</text>
<text text-anchor="start" x="875.5" y="-102.8" font-family="Futura" baseline-shift="sub" font-size="14.00">5</text>
</g>
<!-- table_INVISIBLE_STOCK_0&#45;&gt;p4_HIDDEN_LOC_5 -->
<g id="edge23" class="edge">
<title>table_INVISIBLE_STOCK_0-&gt;p4_HIDDEN_LOC_5</title>
<path fill="none" stroke="black" d="M583.85,-171.54C588.67,-168.81 593.83,-166.38 599,-164.8 623.45,-157.32 806.44,-168.83 829,-156.8 838.58,-151.69 846.23,-142.78 851.97,-133.9"/>
<polygon fill="black" stroke="black" points="854.91,-135.8 856.88,-125.39 848.85,-132.3 854.91,-135.8"/>
</g>
<!-- p4_HIDDEN_LOC_6 -->
<g id="node47" class="node">
<title>p4_HIDDEN_LOC_6</title>
<path fill="khaki" stroke="black" d="M1096,-124C1096,-124 1066,-124 1066,-124 1060,-124 1054,-118 1054,-112 1054,-112 1054,-100 1054,-100 1054,-94 1060,-88 1066,-88 1066,-88 1096,-88 1096,-88 1102,-88 1108,-94 1108,-100 1108,-100 1108,-112 1108,-112 1108,-118 1102,-124 1096,-124"/>
<text text-anchor="start" x="1063.5" y="-102.8" font-family="Futura" font-size="14.00">LOC</text>
<text text-anchor="start" x="1091.5" y="-102.8" font-family="Futura" baseline-shift="sub" font-size="14.00">6</text>
</g>
<!-- table_INVISIBLE_STOCK_0&#45;&gt;p4_HIDDEN_LOC_6 -->
<g id="edge24" class="edge">
<title>table_INVISIBLE_STOCK_0-&gt;p4_HIDDEN_LOC_6</title>
<path fill="none" stroke="black" d="M583.83,-171.47C588.65,-168.74 593.82,-166.34 599,-164.8 622.76,-157.75 1023.03,-168.27 1045,-156.8 1054.62,-151.78 1062.28,-142.88 1068.01,-133.99"/>
<polygon fill="black" stroke="black" points="1070.97,-135.87 1072.92,-125.46 1064.9,-132.38 1070.97,-135.87"/>
</g>
<!-- p4_INVISIBLE_HAND_0 -->
<g id="node50" class="node">
<title>p4_INVISIBLE_HAND_0</title>
<path fill="lightblue" stroke="black" d="M808.22,-124C808.22,-124 775.78,-124 775.78,-124 769.78,-124 763.78,-118 763.78,-112 763.78,-112 763.78,-100 763.78,-100 763.78,-94 769.78,-88 775.78,-88 775.78,-88 808.22,-88 808.22,-88 814.22,-88 820.22,-94 820.22,-100 820.22,-100 820.22,-112 820.22,-112 820.22,-118 814.22,-124 808.22,-124"/>
<text text-anchor="middle" x="792" y="-101.8" font-family="Futura" font-size="14.00">HAND</text>
</g>
<!-- table_INVISIBLE_STOCK_0&#45;&gt;p4_INVISIBLE_HAND_0 -->
<g id="edge42" class="edge">
<title>table_INVISIBLE_STOCK_0-&gt;p4_INVISIBLE_HAND_0</title>
<path fill="none" stroke="black" d="M584.31,-171.36C589,-168.72 594,-166.37 599,-164.8 632.11,-154.38 724.4,-173.18 755,-156.8 764.66,-151.63 772.48,-142.71 778.41,-133.83"/>
<polygon fill="black" stroke="black" points="781.36,-135.7 783.5,-125.32 775.36,-132.1 781.36,-135.7"/>
</g>
<!-- table_VISIBLE_DISCARD_0 -->
<g id="node2" class="node">
<title>table_VISIBLE_DISCARD_0</title>
<path fill="lightgreen" stroke="black" d="M673.73,-208.8C673.73,-208.8 620.27,-208.8 620.27,-208.8 614.27,-208.8 608.27,-202.8 608.27,-196.8 608.27,-196.8 608.27,-184.8 608.27,-184.8 608.27,-178.8 614.27,-172.8 620.27,-172.8 620.27,-172.8 673.73,-172.8 673.73,-172.8 679.73,-172.8 685.73,-178.8 685.73,-184.8 685.73,-184.8 685.73,-196.8 685.73,-196.8 685.73,-202.8 679.73,-208.8 673.73,-208.8"/>
<text text-anchor="middle" x="647" y="-186.6" font-family="Futura" font-size="14.00">DISCARD</text>
</g>
<!-- table_VISIBLE_DISCARD_0&#45;&gt;p1_INVISIBLE_HAND_0 -->
<g id="edge45" class="edge">
<title>table_VISIBLE_DISCARD_0-&gt;p1_INVISIBLE_HAND_0</title>
<path fill="none" stroke="red" stroke-width="3" d="M635.84,-209.03C627.3,-220.56 614.38,-234.82 599,-241.6 570.86,-254 368.3,-244.01 302.96,-250"/>
<polygon fill="red" stroke="red" stroke-width="3" points="302.57,-246.52 293.18,-251.43 303.58,-253.45 302.57,-246.52"/>
</g>
<!-- table_VISIBLE_DISCARD_0&#45;&gt;p2_INVISIBLE_HAND_0 -->
<g id="edge36" class="edge">
<title>table_VISIBLE_DISCARD_0-&gt;p2_INVISIBLE_HAND_0</title>
<path fill="none" stroke="red" stroke-width="3" d="M659.08,-209.09C668.26,-220.65 682.02,-234.92 698,-241.6 739.73,-259.04 1042.86,-241.43 1127.16,-249.91"/>
<polygon fill="red" stroke="red" stroke-width="3" points="1126.41,-253.34 1136.83,-251.38 1127.46,-246.42 1126.41,-253.34"/>
</g>
<!-- table_VISIBLE_DISCARD_0&#45;&gt;p3_INVISIBLE_HAND_0 -->
<g id="edge80" class="edge">
<title>table_VISIBLE_DISCARD_0-&gt;p3_INVISIBLE_HAND_0</title>
<path fill="none" stroke="red" stroke-width="3" d="M618.67,-172.33C612.41,-169.25 605.65,-166.49 599,-164.8 574.12,-158.48 159.83,-168.53 137,-156.8 128.09,-152.22 120.78,-144.4 115.07,-136.3"/>
<polygon fill="red" stroke="red" stroke-width="3" points="118.22,-134.74 110.01,-128.04 112.25,-138.39 118.22,-134.74"/>
</g>
<!-- table_VISIBLE_DISCARD_0&#45;&gt;p4_INVISIBLE_HAND_0 -->
<g id="edge61" class="edge">
<title>table_VISIBLE_DISCARD_0-&gt;p4_INVISIBLE_HAND_0</title>
<path fill="none" stroke="red" stroke-width="3" d="M678.74,-172.34C684.99,-169.45 691.59,-166.77 698,-164.8 722.46,-157.3 733,-169.86 755,-156.8 763.39,-151.82 770.47,-144.13 776.12,-136.28"/>
<polygon fill="red" stroke="red" stroke-width="3" points="778.98,-138.31 781.38,-127.99 773.07,-134.56 778.98,-138.31"/>
</g>
<!-- p1_HIDDEN_LOC_1&#45;&gt;table_VISIBLE_DISCARD_0 -->
<g id="edge34" class="edge">
<title>p1_HIDDEN_LOC_1-&gt;table_VISIBLE_DISCARD_0</title>
<path fill="none" stroke="green" stroke-width="3" d="M360.5,-252.26C363.31,-251.2 366.18,-250.28 369,-249.6 393.85,-243.57 575.64,-252.01 599,-241.6 609.68,-236.84 619.17,-228.5 626.85,-219.99"/>
<polygon fill="green" stroke="green" stroke-width="3" points="629.34,-222.47 632.95,-212.51 623.92,-218.04 629.34,-222.47"/>
</g>
<!-- p1_VISIBLE_LOC_2 -->
<g id="node9" class="node">
<title>p1_VISIBLE_LOC_2</title>
<path fill="lightgreen" stroke="black" d="M77,-208.8C77,-208.8 47,-208.8 47,-208.8 41,-208.8 35,-202.8 35,-196.8 35,-196.8 35,-184.8 35,-184.8 35,-178.8 41,-172.8 47,-172.8 47,-172.8 77,-172.8 77,-172.8 83,-172.8 89,-178.8 89,-184.8 89,-184.8 89,-196.8 89,-196.8 89,-202.8 83,-208.8 77,-208.8"/>
<text text-anchor="start" x="44.5" y="-187.6" font-family="Futura" font-size="14.00">LOC</text>
<text text-anchor="start" x="72.5" y="-187.6" font-family="Futura" baseline-shift="sub" font-size="14.00">2</text>
</g>
<!-- p1_HIDDEN_LOC_2&#45;&gt;p1_VISIBLE_LOC_2 -->
<g id="edge25" class="edge">
<title>p1_HIDDEN_LOC_2-&gt;p1_VISIBLE_LOC_2</title>
<path fill="none" stroke="green" stroke-width="3" d="M47.41,-249.25C49.4,-241.42 51.81,-231.91 54.1,-222.91"/>
<polygon fill="green" stroke="green" stroke-width="3" points="57.43,-224.01 56.5,-213.46 50.65,-222.29 57.43,-224.01"/>
</g>
<!-- p1_VISIBLE_LOC_3 -->
<g id="node10" class="node">
<title>p1_VISIBLE_LOC_3</title>
<path fill="lightgreen" stroke="black" d="M221,-208.8C221,-208.8 191,-208.8 191,-208.8 185,-208.8 179,-202.8 179,-196.8 179,-196.8 179,-184.8 179,-184.8 179,-178.8 185,-172.8 191,-172.8 191,-172.8 221,-172.8 221,-172.8 227,-172.8 233,-178.8 233,-184.8 233,-184.8 233,-196.8 233,-196.8 233,-202.8 227,-208.8 221,-208.8"/>
<text text-anchor="start" x="188.5" y="-187.6" font-family="Futura" font-size="14.00">LOC</text>
<text text-anchor="start" x="216.5" y="-187.6" font-family="Futura" baseline-shift="sub" font-size="14.00">3</text>
</g>
<!-- p1_HIDDEN_LOC_3&#45;&gt;p1_VISIBLE_LOC_3 -->
<g id="edge26" class="edge">
<title>p1_HIDDEN_LOC_3-&gt;p1_VISIBLE_LOC_3</title>
<path fill="none" stroke="green" stroke-width="3" d="M191.41,-249.25C193.4,-241.42 195.81,-231.91 198.1,-222.91"/>
<polygon fill="green" stroke="green" stroke-width="3" points="201.43,-224.01 200.5,-213.46 194.65,-222.29 201.43,-224.01"/>
</g>
<!-- p1_HIDDEN_LOC_4&#45;&gt;table_VISIBLE_DISCARD_0 -->
<g id="edge46" class="edge">
<title>p1_HIDDEN_LOC_4-&gt;table_VISIBLE_DISCARD_0</title>
<path fill="none" stroke="green" stroke-width="3" d="M432.11,-252.46C435.05,-251.33 438.05,-250.34 441,-249.6 475.1,-241.04 567,-256.17 599,-241.6 609.64,-236.76 619.13,-228.4 626.8,-219.89"/>
<polygon fill="green" stroke="green" stroke-width="3" points="629.28,-222.39 632.91,-212.43 623.87,-217.95 629.28,-222.39"/>
</g>
<!-- p1_VISIBLE_LOC_5 -->
<g id="node15" class="node">
<title>p1_VISIBLE_LOC_5</title>
<path fill="lightgreen" stroke="black" d="M149,-208.8C149,-208.8 119,-208.8 119,-208.8 113,-208.8 107,-202.8 107,-196.8 107,-196.8 107,-184.8 107,-184.8 107,-178.8 113,-172.8 119,-172.8 119,-172.8 149,-172.8 149,-172.8 155,-172.8 161,-178.8 161,-184.8 161,-184.8 161,-196.8 161,-196.8 161,-202.8 155,-208.8 149,-208.8"/>
<text text-anchor="start" x="116.5" y="-187.6" font-family="Futura" font-size="14.00">LOC</text>
<text text-anchor="start" x="144.5" y="-187.6" font-family="Futura" baseline-shift="sub" font-size="14.00">5</text>
</g>
<!-- p1_HIDDEN_LOC_5&#45;&gt;p1_VISIBLE_LOC_5 -->
<g id="edge83" class="edge">
<title>p1_HIDDEN_LOC_5-&gt;p1_VISIBLE_LOC_5</title>
<path fill="none" stroke="green" stroke-width="3" d="M119.41,-249.25C121.4,-241.42 123.81,-231.91 126.1,-222.91"/>
<polygon fill="green" stroke="green" stroke-width="3" points="129.43,-224.01 128.5,-213.46 122.65,-222.29 129.43,-224.01"/>
</g>
<!-- p1_HIDDEN_LOC_6&#45;&gt;table_VISIBLE_DISCARD_0 -->
<g id="edge68" class="edge">
<title>p1_HIDDEN_LOC_6-&gt;table_VISIBLE_DISCARD_0</title>
<path fill="none" stroke="green" stroke-width="3" d="M504.28,-265.62C530.11,-263.66 569.26,-257.96 599,-241.6 608.84,-236.19 617.89,-228.09 625.42,-219.98"/>
<polygon fill="green" stroke="green" stroke-width="3" points="627.88,-222.5 631.72,-212.63 622.56,-217.94 627.88,-222.5"/>
</g>
<!-- p1_VISIBLE_LOC_2&#45;&gt;table_VISIBLE_DISCARD_0 -->
<g id="edge84" class="edge">
<title>p1_VISIBLE_LOC_2-&gt;table_VISIBLE_DISCARD_0</title>
<path fill="none" stroke="green" stroke-width="3" d="M69.47,-209.23C76.59,-223.61 88.94,-241.77 107,-245.6 120.12,-248.39 576.88,-248.39 590,-245.6 604.85,-242.45 617.51,-231.79 627.09,-220.71"/>
<polygon fill="green" stroke="green" stroke-width="3" points="629.8,-222.93 633.16,-212.88 624.26,-218.64 629.8,-222.93"/>
</g>
<!-- p1_VISIBLE_LOC_3&#45;&gt;table_VISIBLE_DISCARD_0 -->
<g id="edge55" class="edge">
<title>p1_VISIBLE_LOC_3-&gt;table_VISIBLE_DISCARD_0</title>
<path fill="none" stroke="green" stroke-width="3" d="M213.47,-209.23C220.59,-223.61 232.94,-241.77 251,-245.6 269.42,-249.51 571.58,-249.51 590,-245.6 604.85,-242.45 617.51,-231.79 627.09,-220.71"/>
<polygon fill="green" stroke="green" stroke-width="3" points="629.8,-222.93 633.16,-212.88 624.26,-218.64 629.8,-222.93"/>
</g>
<!-- p1_INVISIBLE_HAND_0&#45;&gt;p1_VISIBLE_LOC_3 -->
<g id="edge56" class="edge">
<title>p1_INVISIBLE_HAND_0-&gt;p1_VISIBLE_LOC_3</title>
<path fill="none" stroke="green" stroke-width="3" d="M247.48,-249.25C241.34,-240.75 233.79,-230.3 226.82,-220.64"/>
<polygon fill="green" stroke="green" stroke-width="3" points="229.81,-218.8 221.11,-212.74 224.13,-222.89 229.81,-218.8"/>
</g>
<!-- p1_VISIBLE_LOC_1 -->
<g id="node12" class="node">
<title>p1_VISIBLE_LOC_1</title>
<path fill="lightgreen" stroke="black" d="M293,-208.8C293,-208.8 263,-208.8 263,-208.8 257,-208.8 251,-202.8 251,-196.8 251,-196.8 251,-184.8 251,-184.8 251,-178.8 257,-172.8 263,-172.8 263,-172.8 293,-172.8 293,-172.8 299,-172.8 305,-178.8 305,-184.8 305,-184.8 305,-196.8 305,-196.8 305,-202.8 299,-208.8 293,-208.8"/>
<text text-anchor="start" x="260.5" y="-187.6" font-family="Futura" font-size="14.00">LOC</text>
<text text-anchor="start" x="288.5" y="-187.6" font-family="Futura" baseline-shift="sub" font-size="14.00">1</text>
</g>
<!-- p1_INVISIBLE_HAND_0&#45;&gt;p1_VISIBLE_LOC_1 -->
<g id="edge35" class="edge">
<title>p1_INVISIBLE_HAND_0-&gt;p1_VISIBLE_LOC_1</title>
<path fill="none" stroke="green" stroke-width="3" d="M264.17,-249.25C266.06,-241.42 268.35,-231.91 270.51,-222.91"/>
<polygon fill="green" stroke="green" stroke-width="3" points="273.85,-224.01 272.79,-213.47 267.04,-222.37 273.85,-224.01"/>
</g>
<!-- p1_VISIBLE_LOC_4 -->
<g id="node13" class="node">
<title>p1_VISIBLE_LOC_4</title>
<path fill="lightgreen" stroke="black" d="M365,-208.8C365,-208.8 335,-208.8 335,-208.8 329,-208.8 323,-202.8 323,-196.8 323,-196.8 323,-184.8 323,-184.8 323,-178.8 329,-172.8 335,-172.8 335,-172.8 365,-172.8 365,-172.8 371,-172.8 377,-178.8 377,-184.8 377,-184.8 377,-196.8 377,-196.8 377,-202.8 371,-208.8 365,-208.8"/>
<text text-anchor="start" x="332.5" y="-187.6" font-family="Futura" font-size="14.00">LOC</text>
<text text-anchor="start" x="360.5" y="-187.6" font-family="Futura" baseline-shift="sub" font-size="14.00">4</text>
</g>
<!-- p1_INVISIBLE_HAND_0&#45;&gt;p1_VISIBLE_LOC_4 -->
<g id="edge47" class="edge">
<title>p1_INVISIBLE_HAND_0-&gt;p1_VISIBLE_LOC_4</title>
<path fill="none" stroke="green" stroke-width="3" d="M288.65,-253.43C301.42,-247.54 313.7,-241.85 314,-241.6 320.96,-235.86 327.25,-228.48 332.56,-221.17"/>
<polygon fill="green" stroke="green" stroke-width="3" points="335.36,-223.28 337.98,-213.01 329.53,-219.4 335.36,-223.28"/>
</g>
<!-- p1_VISIBLE_LOC_6 -->
<g id="node14" class="node">
<title>p1_VISIBLE_LOC_6</title>
<path fill="lightgreen" stroke="black" d="M473,-208.8C473,-208.8 443,-208.8 443,-208.8 437,-208.8 431,-202.8 431,-196.8 431,-196.8 431,-184.8 431,-184.8 431,-178.8 437,-172.8 443,-172.8 443,-172.8 473,-172.8 473,-172.8 479,-172.8 485,-178.8 485,-184.8 485,-184.8 485,-196.8 485,-196.8 485,-202.8 479,-208.8 473,-208.8"/>
<text text-anchor="start" x="440.5" y="-187.6" font-family="Futura" font-size="14.00">LOC</text>
<text text-anchor="start" x="468.5" y="-187.6" font-family="Futura" baseline-shift="sub" font-size="14.00">6</text>
</g>
<!-- p1_INVISIBLE_HAND_0&#45;&gt;p1_VISIBLE_LOC_6 -->
<g id="edge69" class="edge">
<title>p1_INVISIBLE_HAND_0-&gt;p1_VISIBLE_LOC_6</title>
<path fill="none" stroke="green" stroke-width="3" d="M288.32,-252.42C291.21,-251.33 294.13,-250.36 297,-249.6 335.38,-239.38 348.66,-255.12 386,-241.6 400.79,-236.24 415.39,-227.08 427.54,-218.06"/>
<polygon fill="green" stroke="green" stroke-width="3" points="429.5,-220.97 435.21,-212.04 425.18,-215.46 429.5,-220.97"/>
</g>
<!-- p1_VISIBLE_LOC_1&#45;&gt;table_VISIBLE_DISCARD_0 -->
<g id="edge76" class="edge">
<title>p1_VISIBLE_LOC_1-&gt;table_VISIBLE_DISCARD_0</title>
<path fill="none" stroke="green" stroke-width="3" d="M285.47,-209.23C292.59,-223.61 304.94,-241.77 323,-245.6 337.51,-248.68 575.49,-248.68 590,-245.6 604.85,-242.45 617.51,-231.79 627.09,-220.71"/>
<polygon fill="green" stroke="green" stroke-width="3" points="629.8,-222.93 633.16,-212.88 624.26,-218.64 629.8,-222.93"/>
</g>
<!-- p1_VISIBLE_LOC_6&#45;&gt;table_VISIBLE_DISCARD_0 -->
<g id="edge79" class="edge">
<title>p1_VISIBLE_LOC_6-&gt;table_VISIBLE_DISCARD_0</title>
<path fill="none" stroke="green" stroke-width="3" d="M471.85,-209.08C483.99,-223.15 503.1,-240.95 525,-245.6 539.13,-248.6 575.87,-248.6 590,-245.6 594.28,-244.69 595.43,-244.13 599,-241.6 607.75,-235.41 616.18,-227.44 623.47,-219.65"/>
<polygon fill="green" stroke="green" stroke-width="3" points="625.9,-222.19 629.91,-212.38 620.66,-217.54 625.9,-222.19"/>
</g>
<!-- p1_VISIBLE_LOC_5&#45;&gt;table_VISIBLE_DISCARD_0 -->
<g id="edge85" class="edge">
<title>p1_VISIBLE_LOC_5-&gt;table_VISIBLE_DISCARD_0</title>
<path fill="none" stroke="green" stroke-width="3" d="M141.47,-209.23C148.59,-223.61 160.94,-241.77 179,-245.6 201.34,-250.34 567.66,-250.34 590,-245.6 604.85,-242.45 617.51,-231.79 627.09,-220.71"/>
<polygon fill="green" stroke="green" stroke-width="3" points="629.8,-222.93 633.16,-212.88 624.26,-218.64 629.8,-222.93"/>
</g>
<!-- p2_HIDDEN_LOC_1&#45;&gt;table_VISIBLE_DISCARD_0 -->
<g id="edge70" class="edge">
<title>p2_HIDDEN_LOC_1-&gt;table_VISIBLE_DISCARD_0</title>
<path fill="none" stroke="green" stroke-width="3" d="M709.65,-250.08C705.65,-247.37 701.65,-244.5 698,-241.6 689.44,-234.79 680.71,-226.75 672.96,-219.14"/>
<polygon fill="green" stroke="green" stroke-width="3" points="675.47,-216.71 665.95,-212.07 670.5,-221.63 675.47,-216.71"/>
</g>
<!-- p2_HIDDEN_LOC_2&#45;&gt;table_VISIBLE_DISCARD_0 -->
<g id="edge57" class="edge">
<title>p2_HIDDEN_LOC_2-&gt;table_VISIBLE_DISCARD_0</title>
<path fill="none" stroke="green" stroke-width="3" d="M781.85,-252.63C778.91,-251.46 775.93,-250.42 773,-249.6 740.73,-240.54 728.33,-255.87 698,-241.6 687.26,-236.54 677.4,-228.28 669.28,-219.93"/>
<polygon fill="green" stroke="green" stroke-width="3" points="671.96,-217.67 662.69,-212.54 666.74,-222.33 671.96,-217.67"/>
</g>
<!-- p2_VISIBLE_LOC_3 -->
<g id="node28" class="node">
<title>p2_VISIBLE_LOC_3</title>
<path fill="lightgreen" stroke="black" d="M825,-208.8C825,-208.8 795,-208.8 795,-208.8 789,-208.8 783,-202.8 783,-196.8 783,-196.8 783,-184.8 783,-184.8 783,-178.8 789,-172.8 795,-172.8 795,-172.8 825,-172.8 825,-172.8 831,-172.8 837,-178.8 837,-184.8 837,-184.8 837,-196.8 837,-196.8 837,-202.8 831,-208.8 825,-208.8"/>
<text text-anchor="start" x="792.5" y="-187.6" font-family="Futura" font-size="14.00">LOC</text>
<text text-anchor="start" x="820.5" y="-187.6" font-family="Futura" baseline-shift="sub" font-size="14.00">3</text>
</g>
<!-- p2_HIDDEN_LOC_3&#45;&gt;p2_VISIBLE_LOC_3 -->
<g id="edge86" class="edge">
<title>p2_HIDDEN_LOC_3-&gt;p2_VISIBLE_LOC_3</title>
<path fill="none" stroke="green" stroke-width="3" d="M925.84,-252.64C922.91,-251.48 919.93,-250.43 917,-249.6 886.45,-240.93 873.42,-257.61 846,-241.6 837.66,-236.73 830.71,-229.07 825.22,-221.21"/>
<polygon fill="green" stroke="green" stroke-width="3" points="828.36,-219.64 820.16,-212.93 822.39,-223.29 828.36,-219.64"/>
</g>
<!-- p2_VISIBLE_LOC_4 -->
<g id="node22" class="node">
<title>p2_VISIBLE_LOC_4</title>
<path fill="lightgreen" stroke="black" d="M969,-208.8C969,-208.8 939,-208.8 939,-208.8 933,-208.8 927,-202.8 927,-196.8 927,-196.8 927,-184.8 927,-184.8 927,-178.8 933,-172.8 939,-172.8 939,-172.8 969,-172.8 969,-172.8 975,-172.8 981,-178.8 981,-184.8 981,-184.8 981,-196.8 981,-196.8 981,-202.8 975,-208.8 969,-208.8"/>
<text text-anchor="start" x="936.5" y="-187.6" font-family="Futura" font-size="14.00">LOC</text>
<text text-anchor="start" x="964.5" y="-187.6" font-family="Futura" baseline-shift="sub" font-size="14.00">4</text>
</g>
<!-- p2_HIDDEN_LOC_4&#45;&gt;p2_VISIBLE_LOC_4 -->
<g id="edge27" class="edge">
<title>p2_HIDDEN_LOC_4-&gt;p2_VISIBLE_LOC_4</title>
<path fill="none" stroke="green" stroke-width="3" d="M1069.84,-252.64C1066.91,-251.48 1063.93,-250.43 1061,-249.6 1030.45,-240.93 1017.42,-257.61 990,-241.6 981.66,-236.73 974.71,-229.07 969.22,-221.21"/>
<polygon fill="green" stroke="green" stroke-width="3" points="972.36,-219.64 964.16,-212.93 966.39,-223.29 972.36,-219.64"/>
</g>
<!-- p2_VISIBLE_LOC_5 -->
<g id="node23" class="node">
<title>p2_VISIBLE_LOC_5</title>
<path fill="lightgreen" stroke="black" d="M897,-208.8C897,-208.8 867,-208.8 867,-208.8 861,-208.8 855,-202.8 855,-196.8 855,-196.8 855,-184.8 855,-184.8 855,-178.8 861,-172.8 867,-172.8 867,-172.8 897,-172.8 897,-172.8 903,-172.8 909,-178.8 909,-184.8 909,-184.8 909,-196.8 909,-196.8 909,-202.8 903,-208.8 897,-208.8"/>
<text text-anchor="start" x="864.5" y="-187.6" font-family="Futura" font-size="14.00">LOC</text>
<text text-anchor="start" x="892.5" y="-187.6" font-family="Futura" baseline-shift="sub" font-size="14.00">5</text>
</g>
<!-- p2_HIDDEN_LOC_5&#45;&gt;p2_VISIBLE_LOC_5 -->
<g id="edge28" class="edge">
<title>p2_HIDDEN_LOC_5-&gt;p2_VISIBLE_LOC_5</title>
<path fill="none" stroke="green" stroke-width="3" d="M997.84,-252.64C994.91,-251.48 991.93,-250.43 989,-249.6 958.45,-240.93 945.42,-257.61 918,-241.6 909.66,-236.73 902.71,-229.07 897.22,-221.21"/>
<polygon fill="green" stroke="green" stroke-width="3" points="900.36,-219.64 892.16,-212.93 894.39,-223.29 900.36,-219.64"/>
</g>
<!-- p2_HIDDEN_LOC_6&#45;&gt;table_VISIBLE_DISCARD_0 -->
<g id="edge49" class="edge">
<title>p2_HIDDEN_LOC_6-&gt;table_VISIBLE_DISCARD_0</title>
<path fill="none" stroke="green" stroke-width="3" d="M853.89,-252.47C850.95,-251.34 847.95,-250.35 845,-249.6 813.28,-241.58 727.95,-254.76 698,-241.6 686.85,-236.7 676.73,-228.21 668.5,-219.6"/>
<polygon fill="green" stroke="green" stroke-width="3" points="671.36,-217.56 662.14,-212.33 666.09,-222.17 671.36,-217.56"/>
</g>
<!-- p2_VISIBLE_LOC_4&#45;&gt;table_VISIBLE_DISCARD_0 -->
<g id="edge37" class="edge">
<title>p2_VISIBLE_LOC_4-&gt;table_VISIBLE_DISCARD_0</title>
<path fill="none" stroke="green" stroke-width="3" d="M946.53,-209.23C939.41,-223.61 927.06,-241.77 909,-245.6 887.04,-250.26 728.96,-250.26 707,-245.6 691.58,-242.33 678.19,-231.47 667.99,-220.27"/>
<polygon fill="green" stroke="green" stroke-width="3" points="670.85,-218.23 661.79,-212.74 665.44,-222.68 670.85,-218.23"/>
</g>
<!-- p2_VISIBLE_LOC_5&#45;&gt;table_VISIBLE_DISCARD_0 -->
<g id="edge89" class="edge">
<title>p2_VISIBLE_LOC_5-&gt;table_VISIBLE_DISCARD_0</title>
<path fill="none" stroke="green" stroke-width="3" d="M874.53,-209.23C867.41,-223.61 855.06,-241.77 837,-245.6 822.87,-248.6 721.13,-248.6 707,-245.6 691.58,-242.33 678.19,-231.47 667.99,-220.27"/>
<polygon fill="green" stroke="green" stroke-width="3" points="670.85,-218.23 661.79,-212.74 665.44,-222.68 670.85,-218.23"/>
</g>
<!-- p2_INVISIBLE_HAND_0&#45;&gt;p2_VISIBLE_LOC_4 -->
<g id="edge38" class="edge">
<title>p2_INVISIBLE_HAND_0-&gt;p2_VISIBLE_LOC_4</title>
<path fill="none" stroke="green" stroke-width="3" d="M1141.29,-252.17C1138.53,-251.16 1135.74,-250.28 1133,-249.6 1102.11,-241.93 1017.93,-256.87 990,-241.6 981.52,-236.96 974.54,-229.38 969.05,-221.51"/>
<polygon fill="green" stroke="green" stroke-width="3" points="972.18,-219.92 964.01,-213.17 966.19,-223.54 972.18,-219.92"/>
</g>
<!-- p2_VISIBLE_LOC_6 -->
<g id="node25" class="node">
<title>p2_VISIBLE_LOC_6</title>
<path fill="lightgreen" stroke="black" d="M1041,-208.8C1041,-208.8 1011,-208.8 1011,-208.8 1005,-208.8 999,-202.8 999,-196.8 999,-196.8 999,-184.8 999,-184.8 999,-178.8 1005,-172.8 1011,-172.8 1011,-172.8 1041,-172.8 1041,-172.8 1047,-172.8 1053,-178.8 1053,-184.8 1053,-184.8 1053,-196.8 1053,-196.8 1053,-202.8 1047,-208.8 1041,-208.8"/>
<text text-anchor="start" x="1008.5" y="-187.6" font-family="Futura" font-size="14.00">LOC</text>
<text text-anchor="start" x="1036.5" y="-187.6" font-family="Futura" baseline-shift="sub" font-size="14.00">6</text>
</g>
<!-- p2_INVISIBLE_HAND_0&#45;&gt;p2_VISIBLE_LOC_6 -->
<g id="edge50" class="edge">
<title>p2_INVISIBLE_HAND_0-&gt;p2_VISIBLE_LOC_6</title>
<path fill="none" stroke="green" stroke-width="3" d="M1141.66,-252.49C1138.78,-251.39 1135.86,-250.4 1133,-249.6 1102.41,-241.09 1089.42,-257.61 1062,-241.6 1053.66,-236.73 1046.71,-229.07 1041.22,-221.21"/>
<polygon fill="green" stroke="green" stroke-width="3" points="1044.36,-219.64 1036.16,-212.93 1038.39,-223.29 1044.36,-219.64"/>
</g>
<!-- p2_VISIBLE_LOC_2 -->
<g id="node26" class="node">
<title>p2_VISIBLE_LOC_2</title>
<path fill="lightgreen" stroke="black" d="M1113,-208.8C1113,-208.8 1083,-208.8 1083,-208.8 1077,-208.8 1071,-202.8 1071,-196.8 1071,-196.8 1071,-184.8 1071,-184.8 1071,-178.8 1077,-172.8 1083,-172.8 1083,-172.8 1113,-172.8 1113,-172.8 1119,-172.8 1125,-178.8 1125,-184.8 1125,-184.8 1125,-196.8 1125,-196.8 1125,-202.8 1119,-208.8 1113,-208.8"/>
<text text-anchor="start" x="1080.5" y="-187.6" font-family="Futura" font-size="14.00">LOC</text>
<text text-anchor="start" x="1108.5" y="-187.6" font-family="Futura" baseline-shift="sub" font-size="14.00">2</text>
</g>
<!-- p2_INVISIBLE_HAND_0&#45;&gt;p2_VISIBLE_LOC_2 -->
<g id="edge58" class="edge">
<title>p2_INVISIBLE_HAND_0-&gt;p2_VISIBLE_LOC_2</title>
<path fill="none" stroke="green" stroke-width="3" d="M1142.86,-249.26C1139.74,-246.84 1136.72,-244.26 1134,-241.6 1127.74,-235.45 1121.78,-228.11 1116.58,-220.98"/>
<polygon fill="green" stroke="green" stroke-width="3" points="1119.5,-219.06 1110.96,-212.8 1113.74,-223.02 1119.5,-219.06"/>
</g>
<!-- p2_VISIBLE_LOC_1 -->
<g id="node27" class="node">
<title>p2_VISIBLE_LOC_1</title>
<path fill="lightgreen" stroke="black" d="M1185,-208.8C1185,-208.8 1155,-208.8 1155,-208.8 1149,-208.8 1143,-202.8 1143,-196.8 1143,-196.8 1143,-184.8 1143,-184.8 1143,-178.8 1149,-172.8 1155,-172.8 1155,-172.8 1185,-172.8 1185,-172.8 1191,-172.8 1197,-178.8 1197,-184.8 1197,-184.8 1197,-196.8 1197,-196.8 1197,-202.8 1191,-208.8 1185,-208.8"/>
<text text-anchor="start" x="1152.5" y="-187.6" font-family="Futura" font-size="14.00">LOC</text>
<text text-anchor="start" x="1180.5" y="-187.6" font-family="Futura" baseline-shift="sub" font-size="14.00">1</text>
</g>
<!-- p2_INVISIBLE_HAND_0&#45;&gt;p2_VISIBLE_LOC_1 -->
<g id="edge71" class="edge">
<title>p2_INVISIBLE_HAND_0-&gt;p2_VISIBLE_LOC_1</title>
<path fill="none" stroke="green" stroke-width="3" d="M1170,-249.25C1170,-241.6 1170,-232.37 1170,-223.56"/>
<polygon fill="green" stroke="green" stroke-width="3" points="1173.5,-223.6 1170,-213.6 1166.5,-223.6 1173.5,-223.6"/>
</g>
<!-- p2_VISIBLE_LOC_6&#45;&gt;table_VISIBLE_DISCARD_0 -->
<g id="edge62" class="edge">
<title>p2_VISIBLE_LOC_6-&gt;table_VISIBLE_DISCARD_0</title>
<path fill="none" stroke="green" stroke-width="3" d="M1018.53,-209.23C1011.41,-223.61 999.06,-241.77 981,-245.6 966.11,-248.76 721.89,-248.76 707,-245.6 691.58,-242.33 678.19,-231.47 667.99,-220.27"/>
<polygon fill="green" stroke="green" stroke-width="3" points="670.85,-218.23 661.79,-212.74 665.44,-222.68 670.85,-218.23"/>
</g>
<!-- p2_VISIBLE_LOC_2&#45;&gt;table_VISIBLE_DISCARD_0 -->
<g id="edge88" class="edge">
<title>p2_VISIBLE_LOC_2-&gt;table_VISIBLE_DISCARD_0</title>
<path fill="none" stroke="green" stroke-width="3" d="M1090.53,-209.23C1083.41,-223.61 1071.06,-241.77 1053,-245.6 1034.2,-249.59 725.8,-249.59 707,-245.6 691.58,-242.33 678.19,-231.47 667.99,-220.27"/>
<polygon fill="green" stroke="green" stroke-width="3" points="670.85,-218.23 661.79,-212.74 665.44,-222.68 670.85,-218.23"/>
</g>
<!-- p2_VISIBLE_LOC_1&#45;&gt;table_VISIBLE_DISCARD_0 -->
<g id="edge87" class="edge">
<title>p2_VISIBLE_LOC_1-&gt;table_VISIBLE_DISCARD_0</title>
<path fill="none" stroke="green" stroke-width="3" d="M1162.53,-209.23C1155.41,-223.61 1143.06,-241.77 1125,-245.6 1102.28,-250.42 729.72,-250.42 707,-245.6 691.58,-242.33 678.19,-231.47 667.99,-220.27"/>
<polygon fill="green" stroke="green" stroke-width="3" points="670.85,-218.23 661.79,-212.74 665.44,-222.68 670.85,-218.23"/>
</g>
<!-- p3_HIDDEN_LOC_1&#45;&gt;table_VISIBLE_DISCARD_0 -->
<g id="edge59" class="edge">
<title>p3_HIDDEN_LOC_1-&gt;table_VISIBLE_DISCARD_0</title>
<path fill="none" stroke="green" stroke-width="3" d="M468.71,-124.39C474.7,-135.68 484.16,-149.59 497,-156.8 516.83,-167.93 577.14,-158.53 599,-164.8 600.9,-165.35 602.82,-165.97 604.73,-166.66"/>
<polygon fill="green" stroke="green" stroke-width="3" points="603.33,-169.87 613.9,-170.59 606.09,-163.43 603.33,-169.87"/>
</g>
<!-- p3_HIDDEN_LOC_2&#45;&gt;table_VISIBLE_DISCARD_0 -->
<g id="edge81" class="edge">
<title>p3_HIDDEN_LOC_2-&gt;table_VISIBLE_DISCARD_0</title>
<path fill="none" stroke="green" stroke-width="3" d="M324.35,-124.09C330.28,-135.55 339.81,-149.79 353,-156.8 377.15,-169.64 572.55,-157.87 599,-164.8 601.18,-165.37 603.37,-166.05 605.55,-166.82"/>
<polygon fill="green" stroke="green" stroke-width="3" points="603.91,-169.93 614.48,-170.63 606.65,-163.49 603.91,-169.93"/>
</g>
<!-- p3_HIDDEN_LOC_3&#45;&gt;table_VISIBLE_DISCARD_0 -->
<g id="edge72" class="edge">
<title>p3_HIDDEN_LOC_3-&gt;table_VISIBLE_DISCARD_0</title>
<path fill="none" stroke="green" stroke-width="3" d="M396.38,-124.04C402.33,-135.47 411.86,-149.7 425,-156.8 442.03,-166 580.31,-159.77 599,-164.8 601.04,-165.35 603.09,-166 605.14,-166.72"/>
<polygon fill="green" stroke="green" stroke-width="3" points="603.63,-169.88 614.2,-170.57 606.37,-163.44 603.63,-169.88"/>
</g>
<!-- p3_HIDDEN_LOC_4&#45;&gt;table_VISIBLE_DISCARD_0 -->
<g id="edge51" class="edge">
<title>p3_HIDDEN_LOC_4-&gt;table_VISIBLE_DISCARD_0</title>
<path fill="none" stroke="green" stroke-width="3" d="M543.6,-124.41C550.93,-135.13 561.58,-148.38 574,-156.8 583.66,-163.35 588.23,-160.31 599,-164.8 600.09,-165.26 601.19,-165.73 602.3,-166.21"/>
<polygon fill="green" stroke="green" stroke-width="3" points="600.7,-169.33 611.24,-170.42 603.68,-162.99 600.7,-169.33"/>
</g>
<!-- p3_VISIBLE_LOC_5 -->
<g id="node36" class="node">
<title>p3_VISIBLE_LOC_5</title>
<path fill="lightgreen" stroke="black" d="M402,-52C402,-52 372,-52 372,-52 366,-52 360,-46 360,-40 360,-40 360,-28 360,-28 360,-22 366,-16 372,-16 372,-16 402,-16 402,-16 408,-16 414,-22 414,-28 414,-28 414,-40 414,-40 414,-46 408,-52 402,-52"/>
<text text-anchor="start" x="369.5" y="-30.8" font-family="Futura" font-size="14.00">LOC</text>
<text text-anchor="start" x="397.5" y="-30.8" font-family="Futura" baseline-shift="sub" font-size="14.00">5</text>
</g>
<!-- p3_HIDDEN_LOC_5&#45;&gt;p3_VISIBLE_LOC_5 -->
<g id="edge30" class="edge">
<title>p3_HIDDEN_LOC_5-&gt;p3_VISIBLE_LOC_5</title>
<path fill="none" stroke="green" stroke-width="3" d="M272.38,-91.5C293.5,-81.09 323.02,-66.54 346.82,-54.81"/>
<polygon fill="green" stroke="green" stroke-width="3" points="348.21,-58.02 355.63,-50.46 345.12,-51.75 348.21,-58.02"/>
</g>
<!-- p3_VISIBLE_LOC_6 -->
<g id="node35" class="node">
<title>p3_VISIBLE_LOC_6</title>
<path fill="lightgreen" stroke="black" d="M330,-52C330,-52 300,-52 300,-52 294,-52 288,-46 288,-40 288,-40 288,-28 288,-28 288,-22 294,-16 300,-16 300,-16 330,-16 330,-16 336,-16 342,-22 342,-28 342,-28 342,-40 342,-40 342,-46 336,-52 330,-52"/>
<text text-anchor="start" x="297.5" y="-30.8" font-family="Futura" font-size="14.00">LOC</text>
<text text-anchor="start" x="325.5" y="-30.8" font-family="Futura" baseline-shift="sub" font-size="14.00">6</text>
</g>
<!-- p3_HIDDEN_LOC_6&#45;&gt;p3_VISIBLE_LOC_6 -->
<g id="edge29" class="edge">
<title>p3_HIDDEN_LOC_6-&gt;p3_VISIBLE_LOC_6</title>
<path fill="none" stroke="green" stroke-width="3" d="M200.38,-91.5C221.5,-81.09 251.02,-66.54 274.82,-54.81"/>
<polygon fill="green" stroke="green" stroke-width="3" points="276.21,-58.02 283.63,-50.46 273.12,-51.75 276.21,-58.02"/>
</g>
<!-- p3_VISIBLE_LOC_6&#45;&gt;table_VISIBLE_DISCARD_0 -->
<g id="edge40" class="edge">
<title>p3_VISIBLE_LOC_6-&gt;table_VISIBLE_DISCARD_0</title>
<path fill="none" stroke="green" stroke-width="3" d="M342.2,-48.8C345.13,-50 348.1,-51.09 351,-52 444.74,-81.25 490.45,-29.07 569,-88 596.13,-108.35 580.34,-130.7 602,-156.8 603.88,-159.07 605.96,-161.27 608.15,-163.38"/>
<polygon fill="green" stroke="green" stroke-width="3" points="605.63,-165.83 615.52,-169.62 610.15,-160.49 605.63,-165.83"/>
</g>
<!-- p3_VISIBLE_LOC_5&#45;&gt;table_VISIBLE_DISCARD_0 -->
<g id="edge77" class="edge">
<title>p3_VISIBLE_LOC_5-&gt;table_VISIBLE_DISCARD_0</title>
<path fill="none" stroke="green" stroke-width="3" d="M414.11,-41.36C471.09,-54.76 598.35,-84.93 602,-88 613.43,-97.59 627.44,-132.64 636.76,-158.96"/>
<polygon fill="green" stroke="green" stroke-width="3" points="633.37,-159.85 639.93,-168.17 639.99,-157.57 633.37,-159.85"/>
</g>
<!-- p3_INVISIBLE_HAND_0&#45;&gt;p3_VISIBLE_LOC_6 -->
<g id="edge41" class="edge">
<title>p3_INVISIBLE_HAND_0-&gt;p3_VISIBLE_LOC_6</title>
<path fill="none" stroke="green" stroke-width="3" d="M128.47,-91.3C131.32,-90.11 134.2,-88.99 137,-88 194.19,-67.8 214.88,-73.09 274.04,-53.33"/>
<polygon fill="green" stroke="green" stroke-width="3" points="275.14,-56.65 283.43,-50.05 272.83,-50.04 275.14,-56.65"/>
</g>
<!-- p3_INVISIBLE_HAND_0&#45;&gt;p3_VISIBLE_LOC_5 -->
<g id="edge78" class="edge">
<title>p3_INVISIBLE_HAND_0-&gt;p3_VISIBLE_LOC_5</title>
<path fill="none" stroke="green" stroke-width="3" d="M128.39,-91.05C131.26,-89.92 134.16,-88.87 137,-88 224.86,-60.95 256.04,-78.98 346.07,-52.96"/>
<polygon fill="green" stroke="green" stroke-width="3" points="346.9,-56.37 355.45,-50.11 344.86,-49.67 346.9,-56.37"/>
</g>
<!-- p3_VISIBLE_LOC_4 -->
<g id="node38" class="node">
<title>p3_VISIBLE_LOC_4</title>
<path fill="lightgreen" stroke="black" d="M114,-52C114,-52 84,-52 84,-52 78,-52 72,-46 72,-40 72,-40 72,-28 72,-28 72,-22 78,-16 84,-16 84,-16 114,-16 114,-16 120,-16 126,-22 126,-28 126,-28 126,-40 126,-40 126,-46 120,-52 114,-52"/>
<text text-anchor="start" x="81.5" y="-30.8" font-family="Futura" font-size="14.00">LOC</text>
<text text-anchor="start" x="109.5" y="-30.8" font-family="Futura" baseline-shift="sub" font-size="14.00">4</text>
</g>
<!-- p3_INVISIBLE_HAND_0&#45;&gt;p3_VISIBLE_LOC_4 -->
<g id="edge52" class="edge">
<title>p3_INVISIBLE_HAND_0-&gt;p3_VISIBLE_LOC_4</title>
<path fill="none" stroke="green" stroke-width="3" d="M99.75,-87.7C99.66,-81.25 99.55,-73.73 99.45,-66.41"/>
<polygon fill="green" stroke="green" stroke-width="3" points="102.95,-66.59 99.31,-56.64 95.95,-66.69 102.95,-66.59"/>
</g>
<!-- p3_VISIBLE_LOC_1 -->
<g id="node39" class="node">
<title>p3_VISIBLE_LOC_1</title>
<path fill="lightgreen" stroke="black" d="M511,-52C511,-52 481,-52 481,-52 475,-52 469,-46 469,-40 469,-40 469,-28 469,-28 469,-22 475,-16 481,-16 481,-16 511,-16 511,-16 517,-16 523,-22 523,-28 523,-28 523,-40 523,-40 523,-46 517,-52 511,-52"/>
<text text-anchor="start" x="478.5" y="-30.8" font-family="Futura" font-size="14.00">LOC</text>
<text text-anchor="start" x="506.5" y="-30.8" font-family="Futura" baseline-shift="sub" font-size="14.00">1</text>
</g>
<!-- p3_INVISIBLE_HAND_0&#45;&gt;p3_VISIBLE_LOC_1 -->
<g id="edge60" class="edge">
<title>p3_INVISIBLE_HAND_0-&gt;p3_VISIBLE_LOC_1</title>
<path fill="none" stroke="green" stroke-width="3" d="M128.35,-90.93C131.23,-89.82 134.14,-88.81 137,-88 260.2,-52.85 296.89,-74.56 423,-52 433.36,-50.15 444.46,-47.77 454.8,-45.38"/>
<polygon fill="green" stroke="green" stroke-width="3" points="455.42,-48.83 464.34,-43.11 453.8,-42.02 455.42,-48.83"/>
</g>
<!-- p3_VISIBLE_LOC_3 -->
<g id="node40" class="node">
<title>p3_VISIBLE_LOC_3</title>
<path fill="lightgreen" stroke="black" d="M186,-52C186,-52 156,-52 156,-52 150,-52 144,-46 144,-40 144,-40 144,-28 144,-28 144,-22 150,-16 156,-16 156,-16 186,-16 186,-16 192,-16 198,-22 198,-28 198,-28 198,-40 198,-40 198,-46 192,-52 186,-52"/>
<text text-anchor="start" x="153.5" y="-30.8" font-family="Futura" font-size="14.00">LOC</text>
<text text-anchor="start" x="181.5" y="-30.8" font-family="Futura" baseline-shift="sub" font-size="14.00">3</text>
</g>
<!-- p3_INVISIBLE_HAND_0&#45;&gt;p3_VISIBLE_LOC_3 -->
<g id="edge73" class="edge">
<title>p3_INVISIBLE_HAND_0-&gt;p3_VISIBLE_LOC_3</title>
<path fill="none" stroke="green" stroke-width="3" d="M117.55,-87.7C125.37,-79.98 134.78,-70.71 143.5,-62.11"/>
<polygon fill="green" stroke="green" stroke-width="3" points="145.75,-64.81 150.42,-55.29 140.84,-59.82 145.75,-64.81"/>
</g>
<!-- p3_VISIBLE_LOC_2 -->
<g id="node41" class="node">
<title>p3_VISIBLE_LOC_2</title>
<path fill="lightgreen" stroke="black" d="M258,-52C258,-52 228,-52 228,-52 222,-52 216,-46 216,-40 216,-40 216,-28 216,-28 216,-22 222,-16 228,-16 228,-16 258,-16 258,-16 264,-16 270,-22 270,-28 270,-28 270,-40 270,-40 270,-46 264,-52 258,-52"/>
<text text-anchor="start" x="225.5" y="-30.8" font-family="Futura" font-size="14.00">LOC</text>
<text text-anchor="start" x="253.5" y="-30.8" font-family="Futura" baseline-shift="sub" font-size="14.00">2</text>
</g>
<!-- p3_INVISIBLE_HAND_0&#45;&gt;p3_VISIBLE_LOC_2 -->
<g id="edge82" class="edge">
<title>p3_INVISIBLE_HAND_0-&gt;p3_VISIBLE_LOC_2</title>
<path fill="none" stroke="green" stroke-width="3" d="M128.59,-91C149.95,-80.55 179.41,-66.13 203.09,-54.54"/>
<polygon fill="green" stroke="green" stroke-width="3" points="204.39,-57.8 211.83,-50.26 201.31,-51.51 204.39,-57.8"/>
</g>
<!-- p3_VISIBLE_LOC_1&#45;&gt;table_VISIBLE_DISCARD_0 -->
<g id="edge63" class="edge">
<title>p3_VISIBLE_LOC_1-&gt;table_VISIBLE_DISCARD_0</title>
<path fill="none" stroke="green" stroke-width="3" d="M523.46,-36.53C556.96,-40.02 612.51,-51.34 640,-88 654.87,-107.83 655.58,-136.38 653.16,-158.21"/>
<polygon fill="green" stroke="green" stroke-width="3" points="649.73,-157.47 651.73,-167.88 656.66,-158.5 649.73,-157.47"/>
</g>
<!-- p4_HIDDEN_LOC_1&#45;&gt;table_VISIBLE_DISCARD_0 -->
<g id="edge74" class="edge">
<title>p4_HIDDEN_LOC_1-&gt;table_VISIBLE_DISCARD_0</title>
<path fill="none" stroke="green" stroke-width="3" d="M1145.68,-124.14C1139.76,-135.63 1130.23,-149.88 1117,-156.8 1096.37,-167.59 720.63,-159.32 698,-164.8 695.49,-165.41 692.95,-166.15 690.43,-167"/>
<polygon fill="green" stroke="green" stroke-width="3" points="689.38,-163.65 681.41,-170.64 691.99,-170.15 689.38,-163.65"/>
</g>
<!-- p4_VISIBLE_LOC_2 -->
<g id="node54" class="node">
<title>p4_VISIBLE_LOC_2</title>
<path fill="lightgreen" stroke="black" d="M734,-52C734,-52 704,-52 704,-52 698,-52 692,-46 692,-40 692,-40 692,-28 692,-28 692,-22 698,-16 704,-16 704,-16 734,-16 734,-16 740,-16 746,-22 746,-28 746,-28 746,-40 746,-40 746,-46 740,-52 734,-52"/>
<text text-anchor="start" x="701.5" y="-30.8" font-family="Futura" font-size="14.00">LOC</text>
<text text-anchor="start" x="729.5" y="-30.8" font-family="Futura" baseline-shift="sub" font-size="14.00">2</text>
</g>
<!-- p4_HIDDEN_LOC_2&#45;&gt;p4_VISIBLE_LOC_2 -->
<g id="edge90" class="edge">
<title>p4_HIDDEN_LOC_2-&gt;p4_VISIBLE_LOC_2</title>
<path fill="none" stroke="green" stroke-width="3" d="M719,-87.7C719,-81.25 719,-73.73 719,-66.41"/>
<polygon fill="green" stroke="green" stroke-width="3" points="722.5,-66.64 719,-56.64 715.5,-66.64 722.5,-66.64"/>
</g>
<!-- p4_HIDDEN_LOC_3&#45;&gt;table_VISIBLE_DISCARD_0 -->
<g id="edge43" class="edge">
<title>p4_HIDDEN_LOC_3-&gt;table_VISIBLE_DISCARD_0</title>
<path fill="none" stroke="green" stroke-width="3" d="M1001.65,-124.1C995.73,-135.57 986.2,-149.81 973,-156.8 945.99,-171.1 727.67,-157.46 698,-164.8 695.49,-165.42 692.96,-166.18 690.43,-167.03"/>
<polygon fill="green" stroke="green" stroke-width="3" points="689.38,-163.69 681.42,-170.68 692,-170.18 689.38,-163.69"/>
</g>
<!-- p4_VISIBLE_LOC_4 -->
<g id="node49" class="node">
<title>p4_VISIBLE_LOC_4</title>
<path fill="lightgreen" stroke="black" d="M1094,-52C1094,-52 1064,-52 1064,-52 1058,-52 1052,-46 1052,-40 1052,-40 1052,-28 1052,-28 1052,-22 1058,-16 1064,-16 1064,-16 1094,-16 1094,-16 1100,-16 1106,-22 1106,-28 1106,-28 1106,-40 1106,-40 1106,-46 1100,-52 1094,-52"/>
<text text-anchor="start" x="1061.5" y="-30.8" font-family="Futura" font-size="14.00">LOC</text>
<text text-anchor="start" x="1089.5" y="-30.8" font-family="Futura" baseline-shift="sub" font-size="14.00">4</text>
</g>
<!-- p4_HIDDEN_LOC_4&#45;&gt;p4_VISIBLE_LOC_4 -->
<g id="edge32" class="edge">
<title>p4_HIDDEN_LOC_4-&gt;p4_VISIBLE_LOC_4</title>
<path fill="none" stroke="green" stroke-width="3" d="M964.38,-91.5C985.5,-81.09 1015.02,-66.54 1038.82,-54.81"/>
<polygon fill="green" stroke="green" stroke-width="3" points="1040.21,-58.02 1047.63,-50.46 1037.12,-51.75 1040.21,-58.02"/>
</g>
<!-- p4_VISIBLE_LOC_5 -->
<g id="node48" class="node">
<title>p4_VISIBLE_LOC_5</title>
<path fill="lightgreen" stroke="black" d="M1022,-52C1022,-52 992,-52 992,-52 986,-52 980,-46 980,-40 980,-40 980,-28 980,-28 980,-22 986,-16 992,-16 992,-16 1022,-16 1022,-16 1028,-16 1034,-22 1034,-28 1034,-28 1034,-40 1034,-40 1034,-46 1028,-52 1022,-52"/>
<text text-anchor="start" x="989.5" y="-30.8" font-family="Futura" font-size="14.00">LOC</text>
<text text-anchor="start" x="1017.5" y="-30.8" font-family="Futura" baseline-shift="sub" font-size="14.00">5</text>
</g>
<!-- p4_HIDDEN_LOC_5&#45;&gt;p4_VISIBLE_LOC_5 -->
<g id="edge31" class="edge">
<title>p4_HIDDEN_LOC_5-&gt;p4_VISIBLE_LOC_5</title>
<path fill="none" stroke="green" stroke-width="3" d="M892.38,-91.5C913.5,-81.09 943.02,-66.54 966.82,-54.81"/>
<polygon fill="green" stroke="green" stroke-width="3" points="968.21,-58.02 975.63,-50.46 965.12,-51.75 968.21,-58.02"/>
</g>
<!-- p4_HIDDEN_LOC_6&#45;&gt;table_VISIBLE_DISCARD_0 -->
<g id="edge66" class="edge">
<title>p4_HIDDEN_LOC_6-&gt;table_VISIBLE_DISCARD_0</title>
<path fill="none" stroke="green" stroke-width="3" d="M1073.67,-124.13C1067.75,-135.61 1058.22,-149.85 1045,-156.8 1027.93,-165.77 716.73,-160.23 698,-164.8 695.49,-165.41 692.95,-166.16 690.43,-167.02"/>
<polygon fill="green" stroke="green" stroke-width="3" points="689.38,-163.67 681.41,-170.66 692,-170.16 689.38,-163.67"/>
</g>
<!-- p4_VISIBLE_LOC_5&#45;&gt;table_VISIBLE_DISCARD_0 -->
<g id="edge53" class="edge">
<title>p4_VISIBLE_LOC_5-&gt;table_VISIBLE_DISCARD_0</title>
<path fill="none" stroke="green" stroke-width="3" d="M1034.28,-48.57C1037.19,-49.81 1040.13,-50.98 1043,-52 1105.97,-74.38 1147.79,-35.39 1189,-88 1207.86,-112.07 1210.44,-135 1189,-156.8 1179.43,-166.52 711.26,-161.61 698,-164.8 695.48,-165.4 692.95,-166.15 690.42,-167"/>
<polygon fill="green" stroke="green" stroke-width="3" points="689.38,-163.64 681.41,-170.62 691.99,-170.14 689.38,-163.64"/>
</g>
<!-- p4_VISIBLE_LOC_4&#45;&gt;table_VISIBLE_DISCARD_0 -->
<g id="edge64" class="edge">
<title>p4_VISIBLE_LOC_4-&gt;table_VISIBLE_DISCARD_0</title>
<path fill="none" stroke="green" stroke-width="3" d="M1106.27,-37.22C1137.59,-41.4 1187.63,-53.43 1211,-88 1228.13,-113.33 1232.45,-135.01 1211,-156.8 1201,-166.96 711.86,-161.47 698,-164.8 695.48,-165.4 692.95,-166.15 690.42,-166.99"/>
<polygon fill="green" stroke="green" stroke-width="3" points="689.38,-163.64 681.41,-170.62 691.99,-170.14 689.38,-163.64"/>
</g>
<!-- p4_INVISIBLE_HAND_0&#45;&gt;p4_VISIBLE_LOC_5 -->
<g id="edge54" class="edge">
<title>p4_INVISIBLE_HAND_0-&gt;p4_VISIBLE_LOC_5</title>
<path fill="none" stroke="green" stroke-width="3" d="M820.47,-91.3C823.32,-90.11 826.2,-88.99 829,-88 886.19,-67.8 906.88,-73.09 966.04,-53.33"/>
<polygon fill="green" stroke="green" stroke-width="3" points="967.14,-56.65 975.43,-50.05 964.83,-50.04 967.14,-56.65"/>
</g>
<!-- p4_INVISIBLE_HAND_0&#45;&gt;p4_VISIBLE_LOC_4 -->
<g id="edge65" class="edge">
<title>p4_INVISIBLE_HAND_0-&gt;p4_VISIBLE_LOC_4</title>
<path fill="none" stroke="green" stroke-width="3" d="M820.39,-91.05C823.26,-89.92 826.16,-88.87 829,-88 916.86,-60.95 948.04,-78.98 1038.07,-52.96"/>
<polygon fill="green" stroke="green" stroke-width="3" points="1038.9,-56.37 1047.45,-50.11 1036.86,-49.67 1038.9,-56.37"/>
</g>
<!-- p4_VISIBLE_LOC_3 -->
<g id="node51" class="node">
<title>p4_VISIBLE_LOC_3</title>
<path fill="lightgreen" stroke="black" d="M806,-52C806,-52 776,-52 776,-52 770,-52 764,-46 764,-40 764,-40 764,-28 764,-28 764,-22 770,-16 776,-16 776,-16 806,-16 806,-16 812,-16 818,-22 818,-28 818,-28 818,-40 818,-40 818,-46 812,-52 806,-52"/>
<text text-anchor="start" x="773.5" y="-30.8" font-family="Futura" font-size="14.00">LOC</text>
<text text-anchor="start" x="801.5" y="-30.8" font-family="Futura" baseline-shift="sub" font-size="14.00">3</text>
</g>
<!-- p4_INVISIBLE_HAND_0&#45;&gt;p4_VISIBLE_LOC_3 -->
<g id="edge44" class="edge">
<title>p4_INVISIBLE_HAND_0-&gt;p4_VISIBLE_LOC_3</title>
<path fill="none" stroke="green" stroke-width="3" d="M791.75,-87.7C791.66,-81.25 791.55,-73.73 791.45,-66.41"/>
<polygon fill="green" stroke="green" stroke-width="3" points="794.95,-66.59 791.31,-56.64 787.95,-66.69 794.95,-66.59"/>
</g>
<!-- p4_VISIBLE_LOC_6 -->
<g id="node52" class="node">
<title>p4_VISIBLE_LOC_6</title>
<path fill="lightgreen" stroke="black" d="M878,-52C878,-52 848,-52 848,-52 842,-52 836,-46 836,-40 836,-40 836,-28 836,-28 836,-22 842,-16 848,-16 848,-16 878,-16 878,-16 884,-16 890,-22 890,-28 890,-28 890,-40 890,-40 890,-46 884,-52 878,-52"/>
<text text-anchor="start" x="845.5" y="-30.8" font-family="Futura" font-size="14.00">LOC</text>
<text text-anchor="start" x="873.5" y="-30.8" font-family="Futura" baseline-shift="sub" font-size="14.00">6</text>
</g>
<!-- p4_INVISIBLE_HAND_0&#45;&gt;p4_VISIBLE_LOC_6 -->
<g id="edge67" class="edge">
<title>p4_INVISIBLE_HAND_0-&gt;p4_VISIBLE_LOC_6</title>
<path fill="none" stroke="green" stroke-width="3" d="M809.55,-87.7C817.37,-79.98 826.78,-70.71 835.5,-62.11"/>
<polygon fill="green" stroke="green" stroke-width="3" points="837.75,-64.81 842.42,-55.29 832.84,-59.82 837.75,-64.81"/>
</g>
<!-- p4_VISIBLE_LOC_1 -->
<g id="node53" class="node">
<title>p4_VISIBLE_LOC_1</title>
<path fill="lightgreen" stroke="black" d="M950,-52C950,-52 920,-52 920,-52 914,-52 908,-46 908,-40 908,-40 908,-28 908,-28 908,-22 914,-16 920,-16 920,-16 950,-16 950,-16 956,-16 962,-22 962,-28 962,-28 962,-40 962,-40 962,-46 956,-52 950,-52"/>
<text text-anchor="start" x="917.5" y="-30.8" font-family="Futura" font-size="14.00">LOC</text>
<text text-anchor="start" x="945.5" y="-30.8" font-family="Futura" baseline-shift="sub" font-size="14.00">1</text>
</g>
<!-- p4_INVISIBLE_HAND_0&#45;&gt;p4_VISIBLE_LOC_1 -->
<g id="edge75" class="edge">
<title>p4_INVISIBLE_HAND_0-&gt;p4_VISIBLE_LOC_1</title>
<path fill="none" stroke="green" stroke-width="3" d="M820.59,-91C841.95,-80.55 871.41,-66.13 895.09,-54.54"/>
<polygon fill="green" stroke="green" stroke-width="3" points="896.39,-57.8 903.83,-50.26 893.31,-51.51 896.39,-57.8"/>
</g>
</g>
</svg>