<svg width="100%" height="100%" xmlns="http://www.w3.org/2000/svg" xmlns:xlink="http://www.w3.org/1999/xlink" viewBox="0.00 0.00 881.00 287.20">
<g id="graph0" class="graph" transform="translate(-335.43266159542577,392.1724743316066) scale(2.2843033609640835)">
<polygon fill="white" stroke="none" points="-4,4 -4,-283.2 877,-283.2 877,4 -4,4"/>
<text text-anchor="middle" x="436.5" y="-262.6" font-family="Futura" font-size="14.00">Klaverjassen</text>
<g id="clust1" class="cluster">
<title>cluster_table</title>
<polygon fill="ghostwhite" stroke="black" points="206,-8 206,-84.8 469,-84.8 469,-8 206,-8"/>
<text text-anchor="middle" x="337.5" y="-68.2" font-family="Futura" font-size="14.00">table</text>
</g>
<g id="clust2" class="cluster">
<title>cluster_p1</title>
<polygon fill="ghostwhite" stroke="black" points="286,-92.8 286,-246.4 360,-246.4 360,-92.8 286,-92.8"/>
<text text-anchor="middle" x="323" y="-229.8" font-family="Futura" font-size="14.00">p1</text>
</g>
<g id="clust3" class="cluster">
<title>cluster_p2</title>
<polygon fill="ghostwhite" stroke="black" points="8,-8 8,-169.6 198,-169.6 198,-8 8,-8"/>
<text text-anchor="middle" x="103" y="-153" font-family="Futura" font-size="14.00">p2</text>
</g>
<g id="clust4" class="cluster">
<title>cluster_p3</title>
<polygon fill="ghostwhite" stroke="black" points="477,-8 477,-169.6 667,-169.6 667,-8 477,-8"/>
<text text-anchor="middle" x="572" y="-153" font-family="Futura" font-size="14.00">p3</text>
</g>
<g id="clust5" class="cluster">
<title>cluster_p4</title>
<polygon fill="ghostwhite" stroke="black" points="675,-8 675,-169.6 865,-169.6 865,-8 675,-8"/>
<text text-anchor="middle" x="770" y="-153" font-family="Futura" font-size="14.00">p4</text>
</g>
<!-- table_INVISIBLE_STOCK_0 -->
<g id="node1" class="node">
<title>table_INVISIBLE_STOCK_0</title>
<path fill="khaki" stroke="black" stroke-width="3" d="M263.95,-52C263.95,-52 226.05,-52 226.05,-52 220.05,-52 214.05,-46 214.05,-40 214.05,-40 214.05,-28 214.05,-28 214.05,-22 220.05,-16 226.05,-16 226.05,-16 263.95,-16 263.95,-16 269.95,-16 275.95,-22 275.95,-28 275.95,-28 275.95,-40 275.95,-40 275.95,-46 269.95,-52 263.95,-52"/>
<text text-anchor="middle" x="245" y="-29.8" font-family="Futura" font-size="14.00">STOCK</text>
</g>
<!-- p1_INVISIBLE_HAND_0 -->
<g id="node4" class="node">
<title>p1_INVISIBLE_HAND_0</title>
<path fill="lightblue" stroke="black" d="M338.22,-213.6C338.22,-213.6 305.78,-213.6 305.78,-213.6 299.78,-213.6 293.78,-207.6 293.78,-201.6 293.78,-201.6 293.78,-189.6 293.78,-189.6 293.78,-183.6 299.78,-177.6 305.78,-177.6 305.78,-177.6 338.22,-177.6 338.22,-177.6 344.22,-177.6 350.22,-183.6 350.22,-189.6 350.22,-189.6 350.22,-201.6 350.22,-201.6 350.22,-207.6 344.22,-213.6 338.22,-213.6"/>
<text text-anchor="middle" x="322" y="-191.4" font-family="Futura" font-size="14.00">HAND</text>
</g>
<!-- table_INVISIBLE_STOCK_0&#45;&gt;p1_INVISIBLE_HAND_0 -->
<g id="edge1" class="edge">
<title>table_INVISIBLE_STOCK_0-&gt;p1_INVISIBLE_HAND_0</title>
<path fill="none" stroke="black" d="M246.52,-53.27C249.61,-80.88 258.76,-133.82 285,-169.6 285.22,-169.9 285.45,-170.21 285.68,-170.51"/>
<polygon fill="black" stroke="black" points="282.94,-172.7 292.44,-177.39 287.93,-167.8 282.94,-172.7"/>
</g>
<!-- p2_INVISIBLE_HAND_0 -->
<g id="node6" class="node">
<title>p2_INVISIBLE_HAND_0</title>
<path fill="lightblue" stroke="black" d="M60.22,-136.8C60.22,-136.8 27.78,-136.8 27.78,-136.8 21.78,-136.8 15.78,-130.8 15.78,-124.8 15.78,-124.8 15.78,-112.8 15.78,-112.8 15.78,-106.8 21.78,-100.8 27.78,-100.8 27.78,-100.8 60.22,-100.8 60.22,-100.8 66.22,-100.8 72.22,-106.8 72.22,-112.8 72.22,-112.8 72.22,-124.8 72.22,-124.8 72.22,-130.8 66.22,-136.8 60.22,-136.8"/>
<text text-anchor="middle" x="44" y="-114.6" font-family="Futura" font-size="14.00">HAND</text>
</g>
<!-- table_INVISIBLE_STOCK_0&#45;&gt;p2_INVISIBLE_HAND_0 -->
<g id="edge2" class="edge">
<title>table_INVISIBLE_STOCK_0-&gt;p2_INVISIBLE_HAND_0</title>
<path fill="none" stroke="black" d="M234.34,-53.5C226.84,-64.65 215.7,-77.97 202,-84.8 177.88,-96.82 106.49,-84.06 81,-92.8 79.18,-93.42 77.37,-94.16 75.59,-94.98"/>
<polygon fill="black" stroke="black" points="74.08,-91.81 67.01,-99.7 77.46,-97.94 74.08,-91.81"/>
</g>
<!-- p3_INVISIBLE_HAND_0 -->
<g id="node9" class="node">
<title>p3_INVISIBLE_HAND_0</title>
<path fill="lightblue" stroke="black" d="M529.22,-136.8C529.22,-136.8 496.78,-136.8 496.78,-136.8 490.78,-136.8 484.78,-130.8 484.78,-124.8 484.78,-124.8 484.78,-112.8 484.78,-112.8 484.78,-106.8 490.78,-100.8 496.78,-100.8 496.78,-100.8 529.22,-100.8 529.22,-100.8 535.22,-100.8 541.22,-106.8 541.22,-112.8 541.22,-112.8 541.22,-124.8 541.22,-124.8 541.22,-130.8 535.22,-136.8 529.22,-136.8"/>
<text text-anchor="middle" x="513" y="-114.6" font-family="Futura" font-size="14.00">HAND</text>
</g>
<!-- table_INVISIBLE_STOCK_0&#45;&gt;p3_INVISIBLE_HAND_0 -->
<g id="edge3" class="edge">
<title>table_INVISIBLE_STOCK_0-&gt;p3_INVISIBLE_HAND_0</title>
<path fill="none" stroke="black" d="M254.7,-53.32C261.59,-64.4 271.94,-77.71 285,-84.8 300.51,-93.22 346.51,-90.45 364,-92.8 401.18,-97.8 443.32,-105.01 473.27,-110.41"/>
<polygon fill="black" stroke="black" points="472.57,-113.84 483.03,-112.18 473.82,-106.95 472.57,-113.84"/>
</g>
<!-- p4_INVISIBLE_HAND_0 -->
<g id="node12" class="node">
<title>p4_INVISIBLE_HAND_0</title>
<path fill="lightblue" stroke="black" d="M727.22,-136.8C727.22,-136.8 694.78,-136.8 694.78,-136.8 688.78,-136.8 682.78,-130.8 682.78,-124.8 682.78,-124.8 682.78,-112.8 682.78,-112.8 682.78,-106.8 688.78,-100.8 694.78,-100.8 694.78,-100.8 727.22,-100.8 727.22,-100.8 733.22,-100.8 739.22,-106.8 739.22,-112.8 739.22,-112.8 739.22,-124.8 739.22,-124.8 739.22,-130.8 733.22,-136.8 727.22,-136.8"/>
<text text-anchor="middle" x="711" y="-114.6" font-family="Futura" font-size="14.00">HAND</text>
</g>
<!-- table_INVISIBLE_STOCK_0&#45;&gt;p4_INVISIBLE_HAND_0 -->
<g id="edge4" class="edge">
<title>table_INVISIBLE_STOCK_0-&gt;p4_INVISIBLE_HAND_0</title>
<path fill="none" stroke="black" d="M254.36,-53.43C261.18,-64.7 271.57,-78.19 285,-84.8 323.49,-103.74 629.89,-80.55 671,-92.8 673.27,-93.48 675.53,-94.32 677.77,-95.28"/>
<polygon fill="black" stroke="black" points="676.06,-98.34 686.55,-99.79 679.26,-92.11 676.06,-98.34"/>
</g>
<!-- table_VISIBLE_PLAYED_0 -->
<g id="node2" class="node">
<title>table_VISIBLE_PLAYED_0</title>
<path fill="lightgreen" stroke="black" d="M353.61,-52C353.61,-52 306.39,-52 306.39,-52 300.39,-52 294.39,-46 294.39,-40 294.39,-40 294.39,-28 294.39,-28 294.39,-22 300.39,-16 306.39,-16 306.39,-16 353.61,-16 353.61,-16 359.61,-16 365.61,-22 365.61,-28 365.61,-28 365.61,-40 365.61,-40 365.61,-46 359.61,-52 353.61,-52"/>
<text text-anchor="middle" x="330" y="-29.8" font-family="Futura" font-size="14.00">PLAYED</text>
</g>
<!-- p2_VISIBLE_TRICKSWON_0 -->
<g id="node8" class="node">
<title>p2_VISIBLE_TRICKSWON_0</title>
<path fill="lightgreen" stroke="black" d="M177.61,-136.8C177.61,-136.8 102.39,-136.8 102.39,-136.8 96.39,-136.8 90.39,-130.8 90.39,-124.8 90.39,-124.8 90.39,-112.8 90.39,-112.8 90.39,-106.8 96.39,-100.8 102.39,-100.8 102.39,-100.8 177.61,-100.8 177.61,-100.8 183.61,-100.8 189.61,-106.8 189.61,-112.8 189.61,-112.8 189.61,-124.8 189.61,-124.8 189.61,-130.8 183.61,-136.8 177.61,-136.8"/>
<text text-anchor="middle" x="140" y="-114.6" font-family="Futura" font-size="14.00">TRICKSWON</text>
</g>
<!-- table_VISIBLE_PLAYED_0&#45;&gt;p2_VISIBLE_TRICKSWON_0 -->
<g id="edge15" class="edge">
<title>table_VISIBLE_PLAYED_0-&gt;p2_VISIBLE_TRICKSWON_0</title>
<path fill="none" stroke="green" stroke-width="3" d="M318.62,-52.29C310.52,-63.24 298.67,-76.79 285,-84.8 260.66,-99.06 230.68,-107.16 204.31,-111.76"/>
<polygon fill="green" stroke="green" stroke-width="3" points="203.92,-108.27 194.58,-113.27 205,-115.19 203.92,-108.27"/>
</g>
<!-- p3_VISIBLE_TRICKSWON_0 -->
<g id="node11" class="node">
<title>p3_VISIBLE_TRICKSWON_0</title>
<path fill="lightgreen" stroke="black" d="M646.61,-136.8C646.61,-136.8 571.39,-136.8 571.39,-136.8 565.39,-136.8 559.39,-130.8 559.39,-124.8 559.39,-124.8 559.39,-112.8 559.39,-112.8 559.39,-106.8 565.39,-100.8 571.39,-100.8 571.39,-100.8 646.61,-100.8 646.61,-100.8 652.61,-100.8 658.61,-106.8 658.61,-112.8 658.61,-112.8 658.61,-124.8 658.61,-124.8 658.61,-130.8 652.61,-136.8 646.61,-136.8"/>
<text text-anchor="middle" x="609" y="-114.6" font-family="Futura" font-size="14.00">TRICKSWON</text>
</g>
<!-- table_VISIBLE_PLAYED_0&#45;&gt;p3_VISIBLE_TRICKSWON_0 -->
<g id="edge14" class="edge">
<title>table_VISIBLE_PLAYED_0-&gt;p3_VISIBLE_TRICKSWON_0</title>
<path fill="none" stroke="green" stroke-width="3" d="M339.94,-52.11C347.64,-63.59 359.43,-77.83 374,-84.8 409.32,-101.7 511.82,-84.14 550,-92.8 553.3,-93.55 556.64,-94.47 559.97,-95.51"/>
<polygon fill="green" stroke="green" stroke-width="3" points="558.61,-98.75 569.21,-98.83 560.98,-92.16 558.61,-98.75"/>
</g>
<!-- p4_VISIBLE_TRICKSWON_0 -->
<g id="node14" class="node">
<title>p4_VISIBLE_TRICKSWON_0</title>
<path fill="lightgreen" stroke="black" d="M844.61,-136.8C844.61,-136.8 769.39,-136.8 769.39,-136.8 763.39,-136.8 757.39,-130.8 757.39,-124.8 757.39,-124.8 757.39,-112.8 757.39,-112.8 757.39,-106.8 763.39,-100.8 769.39,-100.8 769.39,-100.8 844.61,-100.8 844.61,-100.8 850.61,-100.8 856.61,-106.8 856.61,-112.8 856.61,-112.8 856.61,-124.8 856.61,-124.8 856.61,-130.8 850.61,-136.8 844.61,-136.8"/>
<text text-anchor="middle" x="807" y="-114.6" font-family="Futura" font-size="14.00">TRICKSWON</text>
</g>
<!-- table_VISIBLE_PLAYED_0&#45;&gt;p4_VISIBLE_TRICKSWON_0 -->
<g id="edge13" class="edge">
<title>table_VISIBLE_PLAYED_0-&gt;p4_VISIBLE_TRICKSWON_0</title>
<path fill="none" stroke="green" stroke-width="3" d="M339.89,-52.22C347.56,-63.75 359.35,-78 374,-84.8 411.71,-102.29 707.36,-84.09 748,-92.8 751.35,-93.52 754.75,-94.42 758.13,-95.46"/>
<polygon fill="green" stroke="green" stroke-width="3" points="756.96,-98.76 767.55,-98.82 759.31,-92.17 756.96,-98.76"/>
</g>
<!-- table_VISIBLE_DISCARD_0 -->
<g id="node3" class="node">
<title>table_VISIBLE_DISCARD_0</title>
<path fill="lightgreen" stroke="black" d="M448.73,-52C448.73,-52 395.27,-52 395.27,-52 389.27,-52 383.27,-46 383.27,-40 383.27,-40 383.27,-28 383.27,-28 383.27,-22 389.27,-16 395.27,-16 395.27,-16 448.73,-16 448.73,-16 454.73,-16 460.73,-22 460.73,-28 460.73,-28 460.73,-40 460.73,-40 460.73,-46 454.73,-52 448.73,-52"/>
<text text-anchor="middle" x="422" y="-29.8" font-family="Futura" font-size="14.00">DISCARD</text>
</g>
<!-- p1_VISIBLE_TRICK_0 -->
<g id="node5" class="node">
<title>p1_VISIBLE_TRICK_0</title>
<path fill="lightgreen" stroke="black" d="M340,-136.8C340,-136.8 306,-136.8 306,-136.8 300,-136.8 294,-130.8 294,-124.8 294,-124.8 294,-112.8 294,-112.8 294,-106.8 300,-100.8 306,-100.8 306,-100.8 340,-100.8 340,-100.8 346,-100.8 352,-106.8 352,-112.8 352,-112.8 352,-124.8 352,-124.8 352,-130.8 346,-136.8 340,-136.8"/>
<text text-anchor="middle" x="323" y="-114.6" font-family="Futura" font-size="14.00">TRICK</text>
</g>
<!-- p1_INVISIBLE_HAND_0&#45;&gt;p1_VISIBLE_TRICK_0 -->
<g id="edge5" class="edge">
<title>p1_INVISIBLE_HAND_0-&gt;p1_VISIBLE_TRICK_0</title>
<path fill="none" stroke="green" stroke-width="3" d="M322.23,-177.25C322.33,-169.6 322.46,-160.37 322.58,-151.56"/>
<polygon fill="green" stroke="green" stroke-width="3" points="326.07,-151.64 322.71,-141.59 319.08,-151.55 326.07,-151.64"/>
</g>
<!-- p1_VISIBLE_TRICK_0&#45;&gt;table_VISIBLE_PLAYED_0 -->
<g id="edge9" class="edge">
<title>p1_VISIBLE_TRICK_0-&gt;table_VISIBLE_PLAYED_0</title>
<path fill="none" stroke="green" stroke-width="3" d="M324.45,-100.64C325.28,-90.83 326.35,-78.21 327.32,-66.66"/>
<polygon fill="green" stroke="green" stroke-width="3" points="330.79,-67.2 328.14,-56.94 323.81,-66.61 330.79,-67.2"/>
</g>
<!-- p2_VISIBLE_TRICK_0 -->
<g id="node7" class="node">
<title>p2_VISIBLE_TRICK_0</title>
<path fill="lightgreen" stroke="black" d="M120,-52C120,-52 86,-52 86,-52 80,-52 74,-46 74,-40 74,-40 74,-28 74,-28 74,-22 80,-16 86,-16 86,-16 120,-16 120,-16 126,-16 132,-22 132,-28 132,-28 132,-40 132,-40 132,-46 126,-52 120,-52"/>
<text text-anchor="middle" x="103" y="-29.8" font-family="Futura" font-size="14.00">TRICK</text>
</g>
<!-- p2_INVISIBLE_HAND_0&#45;&gt;p2_VISIBLE_TRICK_0 -->
<g id="edge6" class="edge">
<title>p2_INVISIBLE_HAND_0-&gt;p2_VISIBLE_TRICK_0</title>
<path fill="none" stroke="green" stroke-width="3" d="M56.22,-100.64C63.77,-90.06 73.64,-76.2 82.37,-63.95"/>
<polygon fill="green" stroke="green" stroke-width="3" points="85,-66.29 87.95,-56.12 79.3,-62.23 85,-66.29"/>
</g>
<!-- p2_VISIBLE_TRICK_0&#45;&gt;table_VISIBLE_PLAYED_0 -->
<g id="edge10" class="edge">
<title>p2_VISIBLE_TRICK_0-&gt;table_VISIBLE_PLAYED_0</title>
<path fill="none" stroke="green" stroke-width="3" d="M129.48,-52.4C150.49,-65.73 181.18,-82.47 211,-88.8 225.13,-91.8 261.87,-91.8 276,-88.8 280.28,-87.89 281.47,-87.39 285,-84.8 293.3,-78.72 301.18,-70.88 307.95,-63.18"/>
<polygon fill="green" stroke="green" stroke-width="3" points="310.44,-65.66 314.11,-55.73 305.04,-61.2 310.44,-65.66"/>
</g>
<!-- p2_VISIBLE_TRICKSWON_0&#45;&gt;table_VISIBLE_DISCARD_0 -->
<g id="edge17" class="edge">
<title>p2_VISIBLE_TRICKSWON_0-&gt;table_VISIBLE_DISCARD_0</title>
<path fill="none" stroke="green" stroke-width="3" d="M190.11,-107.86C217.22,-102.77 251.35,-96.81 282,-92.8 302.57,-90.11 356.32,-93.82 375,-84.8 385.16,-79.89 394.24,-71.78 401.65,-63.52"/>
<polygon fill="green" stroke="green" stroke-width="3" points="404.2,-65.93 407.8,-55.96 398.77,-61.51 404.2,-65.93"/>
</g>
<!-- p3_VISIBLE_TRICK_0 -->
<g id="node10" class="node">
<title>p3_VISIBLE_TRICK_0</title>
<path fill="lightgreen" stroke="black" d="M531,-52C531,-52 497,-52 497,-52 491,-52 485,-46 485,-40 485,-40 485,-28 485,-28 485,-22 491,-16 497,-16 497,-16 531,-16 531,-16 537,-16 543,-22 543,-28 543,-28 543,-40 543,-40 543,-46 537,-52 531,-52"/>
<text text-anchor="middle" x="514" y="-29.8" font-family="Futura" font-size="14.00">TRICK</text>
</g>
<!-- p3_INVISIBLE_HAND_0&#45;&gt;p3_VISIBLE_TRICK_0 -->
<g id="edge7" class="edge">
<title>p3_INVISIBLE_HAND_0-&gt;p3_VISIBLE_TRICK_0</title>
<path fill="none" stroke="green" stroke-width="3" d="M513.21,-100.64C513.33,-90.83 513.48,-78.21 513.62,-66.66"/>
<polygon fill="green" stroke="green" stroke-width="3" points="517.11,-67 513.73,-56.96 510.11,-66.92 517.11,-67"/>
</g>
<!-- p3_VISIBLE_TRICK_0&#45;&gt;table_VISIBLE_PLAYED_0 -->
<g id="edge11" class="edge">
<title>p3_VISIBLE_TRICK_0-&gt;table_VISIBLE_PLAYED_0</title>
<path fill="none" stroke="green" stroke-width="3" d="M502.47,-52.28C495.07,-62.87 484.68,-75.83 473,-84.8 469.53,-87.47 468.28,-87.89 464,-88.8 446.39,-92.54 400.61,-92.54 383,-88.8 368.74,-85.77 356.94,-75.2 348.12,-64.15"/>
<polygon fill="green" stroke="green" stroke-width="3" points="350.99,-62.15 342.36,-56 345.27,-66.18 350.99,-62.15"/>
</g>
<!-- p3_VISIBLE_TRICKSWON_0&#45;&gt;table_VISIBLE_DISCARD_0 -->
<g id="edge16" class="edge">
<title>p3_VISIBLE_TRICKSWON_0-&gt;table_VISIBLE_DISCARD_0</title>
<path fill="none" stroke="green" stroke-width="3" d="M572.45,-100.34C565.15,-97.41 557.43,-94.72 550,-92.8 516.68,-84.22 504.15,-99.41 473,-84.8 462.25,-79.76 452.39,-71.5 444.27,-63.14"/>
<polygon fill="green" stroke="green" stroke-width="3" points="446.95,-60.89 437.68,-55.76 441.73,-65.55 446.95,-60.89"/>
</g>
<!-- p4_VISIBLE_TRICK_0 -->
<g id="node13" class="node">
<title>p4_VISIBLE_TRICK_0</title>
<path fill="lightgreen" stroke="black" d="M729,-52C729,-52 695,-52 695,-52 689,-52 683,-46 683,-40 683,-40 683,-28 683,-28 683,-22 689,-16 695,-16 695,-16 729,-16 729,-16 735,-16 741,-22 741,-28 741,-28 741,-40 741,-40 741,-46 735,-52 729,-52"/>
<text text-anchor="middle" x="712" y="-29.8" font-family="Futura" font-size="14.00">TRICK</text>
</g>
<!-- p4_INVISIBLE_HAND_0&#45;&gt;p4_VISIBLE_TRICK_0 -->
<g id="edge8" class="edge">
<title>p4_INVISIBLE_HAND_0-&gt;p4_VISIBLE_TRICK_0</title>
<path fill="none" stroke="green" stroke-width="3" d="M711.21,-100.64C711.33,-90.83 711.48,-78.21 711.62,-66.66"/>
<polygon fill="green" stroke="green" stroke-width="3" points="715.11,-67 711.73,-56.96 708.11,-66.92 715.11,-67"/>
</g>
<!-- p4_VISIBLE_TRICK_0&#45;&gt;table_VISIBLE_PLAYED_0 -->
<g id="edge12" class="edge">
<title>p4_VISIBLE_TRICK_0-&gt;table_VISIBLE_PLAYED_0</title>
<path fill="none" stroke="green" stroke-width="3" d="M703.1,-52.34C694.82,-66.66 680.9,-84.79 662,-88.8 646.84,-92.02 398.16,-92.02 383,-88.8 368.74,-85.77 356.94,-75.2 348.12,-64.15"/>
<polygon fill="green" stroke="green" stroke-width="3" points="350.99,-62.15 342.36,-56 345.27,-66.18 350.99,-62.15"/>
</g>
<!-- p4_VISIBLE_TRICKSWON_0&#45;&gt;table_VISIBLE_DISCARD_0 -->
<g id="edge18" class="edge">
<title>p4_VISIBLE_TRICKSWON_0-&gt;table_VISIBLE_DISCARD_0</title>
<path fill="none" stroke="green" stroke-width="3" d="M771.82,-100.39C764.14,-97.31 755.93,-94.53 748,-92.8 718.13,-86.28 501.14,-96.74 473,-84.8 461.79,-80.04 451.66,-71.58 443.43,-62.97"/>
<polygon fill="green" stroke="green" stroke-width="3" points="446.29,-60.91 437.08,-55.67 441,-65.51 446.29,-60.91"/>
</g>
</g>
</svg>