<?xml version="1.0" encoding="UTF-8" standalone="no"?>
<!DOCTYPE svg PUBLIC "-//W3C//DTD SVG 1.1//EN"
 "http://www.w3.org/Graphics/SVG/1.1/DTD/svg11.dtd">
<!-- Generated by graphviz version 13.1.2 (20250808.2320)
 -->
<!-- Pages: 1 -->
<svg width="896pt" height="295pt"
 viewBox="0.00 0.00 896.00 295.00" xmlns="http://www.w3.org/2000/svg" xmlns:xlink="http://www.w3.org/1999/xlink">
<g id="graph0" class="graph" transform="scale(1 1) rotate(0) translate(4 291)">
<polygon fill="white" stroke="none" points="-4,4 -4,-291 892,-291 892,4 -4,4"/>
<text xml:space="preserve" text-anchor="middle" x="444" y="-269.7" font-family="Futura" font-size="14.00">Klaverjassen</text>
<g id="clust1" class="cluster">
<title>cluster_table</title>
<polygon fill="ghostwhite" stroke="black" points="212,-8 212,-86.75 472,-86.75 472,-8 212,-8"/>
<text xml:space="preserve" text-anchor="middle" x="342" y="-69.45" font-family="Futura" font-size="14.00">table</text>
</g>
<g id="clust2" class="cluster">
<title>cluster_p1</title>
<polygon fill="ghostwhite" stroke="black" points="8,-8 8,-173.5 204,-173.5 204,-8 8,-8"/>
<text xml:space="preserve" text-anchor="middle" x="106" y="-156.2" font-family="Futura" font-size="14.00">p1</text>
</g>
<g id="clust3" class="cluster">
<title>cluster_p2</title>
<polygon fill="ghostwhite" stroke="black" points="480,-8 480,-173.5 676,-173.5 676,-8 480,-8"/>
<text xml:space="preserve" text-anchor="middle" x="578" y="-156.2" font-family="Futura" font-size="14.00">p2</text>
</g>
<g id="clust4" class="cluster">
<title>cluster_p3</title>
<polygon fill="ghostwhite" stroke="black" points="287,-94.75 287,-252.25 363,-252.25 363,-94.75 287,-94.75"/>
<text xml:space="preserve" text-anchor="middle" x="325" y="-234.95" font-family="Futura" font-size="14.00">p3</text>
</g>
<g id="clust5" class="cluster">
<title>cluster_p4</title>
<polygon fill="ghostwhite" stroke="black" points="684,-8 684,-173.5 880,-173.5 880,-8 684,-8"/>
<text xml:space="preserve" text-anchor="middle" x="782" y="-156.2" font-family="Futura" font-size="14.00">p4</text>
</g>
<!-- table_INVISIBLE_STOCK_0 -->
<g id="node1" class="node">
<title>table_INVISIBLE_STOCK_0</title>
<path fill="khaki" stroke="black" stroke-width="3" d="M270.25,-52C270.25,-52 231.75,-52 231.75,-52 225.75,-52 219.75,-46 219.75,-40 219.75,-40 219.75,-28 219.75,-28 219.75,-22 225.75,-16 231.75,-16 231.75,-16 270.25,-16 270.25,-16 276.25,-16 282.25,-22 282.25,-28 282.25,-28 282.25,-40 282.25,-40 282.25,-46 276.25,-52 270.25,-52"/>
<text xml:space="preserve" text-anchor="middle" x="251" y="-30.07" font-family="Futura" font-size="14.00">STOCK</text>
</g>
<!-- p1_INVISIBLE_HAND_0 -->
<g id="node4" class="node">
<title>p1_INVISIBLE_HAND_0</title>
<path fill="lightblue" stroke="black" d="M63.75,-138.75C63.75,-138.75 28.25,-138.75 28.25,-138.75 22.25,-138.75 16.25,-132.75 16.25,-126.75 16.25,-126.75 16.25,-114.75 16.25,-114.75 16.25,-108.75 22.25,-102.75 28.25,-102.75 28.25,-102.75 63.75,-102.75 63.75,-102.75 69.75,-102.75 75.75,-108.75 75.75,-114.75 75.75,-114.75 75.75,-126.75 75.75,-126.75 75.75,-132.75 69.75,-138.75 63.75,-138.75"/>
<text xml:space="preserve" text-anchor="middle" x="46" y="-116.83" font-family="Futura" font-size="14.00">HAND</text>
</g>
<!-- table_INVISIBLE_STOCK_0&#45;&gt;p1_INVISIBLE_HAND_0 -->
<g id="edge1" class="edge">
<title>table_INVISIBLE_STOCK_0&#45;&gt;p1_INVISIBLE_HAND_0</title>
<path fill="none" stroke="black" d="M241.01,-53.44C233.57,-65.18 222.26,-79.49 208,-86.75 183.59,-99.18 111.02,-86.2 85,-94.75 83.02,-95.4 81.05,-96.17 79.09,-97.04"/>
<polygon fill="black" stroke="black" points="77.52,-93.91 70.29,-101.67 80.77,-100.11 77.52,-93.91"/>
</g>
<!-- p2_INVISIBLE_HAND_0 -->
<g id="node7" class="node">
<title>p2_INVISIBLE_HAND_0</title>
<path fill="lightblue" stroke="black" d="M535.75,-138.75C535.75,-138.75 500.25,-138.75 500.25,-138.75 494.25,-138.75 488.25,-132.75 488.25,-126.75 488.25,-126.75 488.25,-114.75 488.25,-114.75 488.25,-108.75 494.25,-102.75 500.25,-102.75 500.25,-102.75 535.75,-102.75 535.75,-102.75 541.75,-102.75 547.75,-108.75 547.75,-114.75 547.75,-114.75 547.75,-126.75 547.75,-126.75 547.75,-132.75 541.75,-138.75 535.75,-138.75"/>
<text xml:space="preserve" text-anchor="middle" x="518" y="-116.83" font-family="Futura" font-size="14.00">HAND</text>
</g>
<!-- table_INVISIBLE_STOCK_0&#45;&gt;p2_INVISIBLE_HAND_0 -->
<g id="edge2" class="edge">
<title>table_INVISIBLE_STOCK_0&#45;&gt;p2_INVISIBLE_HAND_0</title>
<path fill="none" stroke="black" d="M260.58,-53.49C267.63,-65.09 278.35,-79.23 292,-86.75 306.68,-94.84 350.39,-92.49 367,-94.75 404.36,-99.83 446.68,-106.96 477,-112.3"/>
<polygon fill="black" stroke="black" points="476.05,-115.69 486.51,-113.99 477.27,-108.8 476.05,-115.69"/>
</g>
<!-- p3_INVISIBLE_HAND_0 -->
<g id="node10" class="node">
<title>p3_INVISIBLE_HAND_0</title>
<path fill="lightblue" stroke="black" d="M342.75,-217.5C342.75,-217.5 307.25,-217.5 307.25,-217.5 301.25,-217.5 295.25,-211.5 295.25,-205.5 295.25,-205.5 295.25,-193.5 295.25,-193.5 295.25,-187.5 301.25,-181.5 307.25,-181.5 307.25,-181.5 342.75,-181.5 342.75,-181.5 348.75,-181.5 354.75,-187.5 354.75,-193.5 354.75,-193.5 354.75,-205.5 354.75,-205.5 354.75,-211.5 348.75,-217.5 342.75,-217.5"/>
<text xml:space="preserve" text-anchor="middle" x="325" y="-195.57" font-family="Futura" font-size="14.00">HAND</text>
</g>
<!-- table_INVISIBLE_STOCK_0&#45;&gt;p3_INVISIBLE_HAND_0 -->
<g id="edge3" class="edge">
<title>table_INVISIBLE_STOCK_0&#45;&gt;p3_INVISIBLE_HAND_0</title>
<path fill="none" stroke="black" d="M252.51,-53.2C255.41,-79.38 263.57,-128.59 291.35,-171.81"/>
<polygon fill="black" stroke="black" points="288.4,-173.69 296.94,-179.96 294.18,-169.73 288.4,-173.69"/>
</g>
<!-- p4_INVISIBLE_HAND_0 -->
<g id="node12" class="node">
<title>p4_INVISIBLE_HAND_0</title>
<path fill="lightblue" stroke="black" d="M739.75,-138.75C739.75,-138.75 704.25,-138.75 704.25,-138.75 698.25,-138.75 692.25,-132.75 692.25,-126.75 692.25,-126.75 692.25,-114.75 692.25,-114.75 692.25,-108.75 698.25,-102.75 704.25,-102.75 704.25,-102.75 739.75,-102.75 739.75,-102.75 745.75,-102.75 751.75,-108.75 751.75,-114.75 751.75,-114.75 751.75,-126.75 751.75,-126.75 751.75,-132.75 745.75,-138.75 739.75,-138.75"/>
<text xml:space="preserve" text-anchor="middle" x="722" y="-116.83" font-family="Futura" font-size="14.00">HAND</text>
</g>
<!-- table_INVISIBLE_STOCK_0&#45;&gt;p4_INVISIBLE_HAND_0 -->
<g id="edge4" class="edge">
<title>table_INVISIBLE_STOCK_0&#45;&gt;p4_INVISIBLE_HAND_0</title>
<path fill="none" stroke="black" d="M260.07,-53.37C267.02,-65.23 277.83,-79.72 292,-86.75 330.62,-105.92 638.54,-82.88 680,-94.75 682.45,-95.45 684.91,-96.33 687.33,-97.34"/>
<polygon fill="black" stroke="black" points="685.78,-100.48 696.3,-101.76 688.87,-94.2 685.78,-100.48"/>
</g>
<!-- table_VISIBLE_PLAYED_0 -->
<g id="node2" class="node">
<title>table_VISIBLE_PLAYED_0</title>
<path fill="lightgreen" stroke="black" d="M355.5,-52C355.5,-52 312.5,-52 312.5,-52 306.5,-52 300.5,-46 300.5,-40 300.5,-40 300.5,-28 300.5,-28 300.5,-22 306.5,-16 312.5,-16 312.5,-16 355.5,-16 355.5,-16 361.5,-16 367.5,-22 367.5,-28 367.5,-28 367.5,-40 367.5,-40 367.5,-46 361.5,-52 355.5,-52"/>
<text xml:space="preserve" text-anchor="middle" x="334" y="-30.07" font-family="Futura" font-size="14.00">PLAYED</text>
</g>
<!-- p1_VISIBLE_TRICKSWON_0 -->
<g id="node6" class="node">
<title>p1_VISIBLE_TRICKSWON_0</title>
<path fill="lightgreen" stroke="black" d="M183.75,-138.75C183.75,-138.75 106.25,-138.75 106.25,-138.75 100.25,-138.75 94.25,-132.75 94.25,-126.75 94.25,-126.75 94.25,-114.75 94.25,-114.75 94.25,-108.75 100.25,-102.75 106.25,-102.75 106.25,-102.75 183.75,-102.75 183.75,-102.75 189.75,-102.75 195.75,-108.75 195.75,-114.75 195.75,-114.75 195.75,-126.75 195.75,-126.75 195.75,-132.75 189.75,-138.75 183.75,-138.75"/>
<text xml:space="preserve" text-anchor="middle" x="145" y="-116.83" font-family="Futura" font-size="14.00">TRICKSWON</text>
</g>
<!-- table_VISIBLE_PLAYED_0&#45;&gt;p1_VISIBLE_TRICKSWON_0 -->
<g id="edge14" class="edge">
<title>table_VISIBLE_PLAYED_0&#45;&gt;p1_VISIBLE_TRICKSWON_0</title>
<path fill="none" stroke="green" stroke-width="3" d="M323.77,-52.48C316.17,-63.95 304.74,-78.33 291,-86.75 266.88,-101.53 236.88,-109.71 210.36,-114.23"/>
<polygon fill="green" stroke="green" stroke-width="3" points="209.9,-110.76 200.53,-115.7 210.94,-117.68 209.9,-110.76"/>
</g>
<!-- p2_VISIBLE_TRICKSWON_0 -->
<g id="node9" class="node">
<title>p2_VISIBLE_TRICKSWON_0</title>
<path fill="lightgreen" stroke="black" d="M655.75,-138.75C655.75,-138.75 578.25,-138.75 578.25,-138.75 572.25,-138.75 566.25,-132.75 566.25,-126.75 566.25,-126.75 566.25,-114.75 566.25,-114.75 566.25,-108.75 572.25,-102.75 578.25,-102.75 578.25,-102.75 655.75,-102.75 655.75,-102.75 661.75,-102.75 667.75,-108.75 667.75,-114.75 667.75,-114.75 667.75,-126.75 667.75,-126.75 667.75,-132.75 661.75,-138.75 655.75,-138.75"/>
<text xml:space="preserve" text-anchor="middle" x="617" y="-116.83" font-family="Futura" font-size="14.00">TRICKSWON</text>
</g>
<!-- table_VISIBLE_PLAYED_0&#45;&gt;p2_VISIBLE_TRICKSWON_0 -->
<g id="edge15" class="edge">
<title>table_VISIBLE_PLAYED_0&#45;&gt;p2_VISIBLE_TRICKSWON_0</title>
<path fill="none" stroke="green" stroke-width="3" d="M343.15,-52.26C350.54,-64.26 362.14,-79.37 377,-86.75 394.93,-95.65 537.46,-90.39 557,-94.75 560.47,-95.52 563.99,-96.49 567.51,-97.58"/>
<polygon fill="green" stroke="green" stroke-width="3" points="565.98,-100.75 576.58,-100.8 568.32,-94.16 565.98,-100.75"/>
</g>
<!-- p4_VISIBLE_TRICKSWON_0 -->
<g id="node14" class="node">
<title>p4_VISIBLE_TRICKSWON_0</title>
<path fill="lightgreen" stroke="black" d="M859.75,-138.75C859.75,-138.75 782.25,-138.75 782.25,-138.75 776.25,-138.75 770.25,-132.75 770.25,-126.75 770.25,-126.75 770.25,-114.75 770.25,-114.75 770.25,-108.75 776.25,-102.75 782.25,-102.75 782.25,-102.75 859.75,-102.75 859.75,-102.75 865.75,-102.75 871.75,-108.75 871.75,-114.75 871.75,-114.75 871.75,-126.75 871.75,-126.75 871.75,-132.75 865.75,-138.75 859.75,-138.75"/>
<text xml:space="preserve" text-anchor="middle" x="821" y="-116.83" font-family="Futura" font-size="14.00">TRICKSWON</text>
</g>
<!-- table_VISIBLE_PLAYED_0&#45;&gt;p4_VISIBLE_TRICKSWON_0 -->
<g id="edge13" class="edge">
<title>table_VISIBLE_PLAYED_0&#45;&gt;p4_VISIBLE_TRICKSWON_0</title>
<path fill="none" stroke="green" stroke-width="3" d="M343.1,-52.36C350.46,-64.41 362.06,-79.55 377,-86.75 396.22,-96.02 740.12,-90.35 761,-94.75 764.53,-95.49 768.11,-96.44 771.67,-97.53"/>
<polygon fill="green" stroke="green" stroke-width="3" points="770.33,-100.77 780.93,-100.79 772.66,-94.17 770.33,-100.77"/>
</g>
<!-- table_VISIBLE_DISCARD_0 -->
<g id="node3" class="node">
<title>table_VISIBLE_DISCARD_0</title>
<path fill="lightgreen" stroke="black" d="M452.12,-52C452.12,-52 397.88,-52 397.88,-52 391.88,-52 385.88,-46 385.88,-40 385.88,-40 385.88,-28 385.88,-28 385.88,-22 391.88,-16 397.88,-16 397.88,-16 452.12,-16 452.12,-16 458.12,-16 464.12,-22 464.12,-28 464.12,-28 464.12,-40 464.12,-40 464.12,-46 458.12,-52 452.12,-52"/>
<text xml:space="preserve" text-anchor="middle" x="425" y="-30.07" font-family="Futura" font-size="14.00">DISCARD</text>
</g>
<!-- p1_VISIBLE_TRICK_0 -->
<g id="node5" class="node">
<title>p1_VISIBLE_TRICK_0</title>
<path fill="lightgreen" stroke="black" d="M122.12,-52C122.12,-52 91.88,-52 91.88,-52 85.88,-52 79.88,-46 79.88,-40 79.88,-40 79.88,-28 79.88,-28 79.88,-22 85.88,-16 91.88,-16 91.88,-16 122.12,-16 122.12,-16 128.12,-16 134.12,-22 134.12,-28 134.12,-28 134.12,-40 134.12,-40 134.12,-46 128.12,-52 122.12,-52"/>
<text xml:space="preserve" text-anchor="middle" x="107" y="-30.07" font-family="Futura" font-size="14.00">TRICK</text>
</g>
<!-- p1_INVISIBLE_HAND_0&#45;&gt;p1_VISIBLE_TRICK_0 -->
<g id="edge5" class="edge">
<title>p1_INVISIBLE_HAND_0&#45;&gt;p1_VISIBLE_TRICK_0</title>
<path fill="none" stroke="green" stroke-width="3" d="M58.34,-102.6C66.31,-91.53 76.88,-76.85 86.13,-64"/>
<polygon fill="green" stroke="green" stroke-width="3" points="88.81,-66.26 91.81,-56.1 83.13,-62.17 88.81,-66.26"/>
</g>
<!-- p1_VISIBLE_TRICK_0&#45;&gt;table_VISIBLE_PLAYED_0 -->
<g id="edge9" class="edge">
<title>p1_VISIBLE_TRICK_0&#45;&gt;table_VISIBLE_PLAYED_0</title>
<path fill="none" stroke="green" stroke-width="3" d="M132.6,-52.25C153.99,-66.21 185.89,-84.15 217,-90.75 233.11,-94.17 277.92,-96.75 291,-86.75 299.33,-80.39 307.04,-72.1 313.58,-63.99"/>
<polygon fill="green" stroke="green" stroke-width="3" points="316.29,-66.2 319.5,-56.1 310.7,-62 316.29,-66.2"/>
</g>
<!-- p1_VISIBLE_TRICKSWON_0&#45;&gt;table_VISIBLE_DISCARD_0 -->
<g id="edge16" class="edge">
<title>p1_VISIBLE_TRICKSWON_0&#45;&gt;table_VISIBLE_DISCARD_0</title>
<path fill="none" stroke="green" stroke-width="3" d="M195.94,-109.34C221.9,-104.33 254.04,-98.6 283,-94.75 303.78,-91.99 358.16,-95.94 377,-86.75 387.8,-81.48 397.36,-72.66 405.06,-63.78"/>
<polygon fill="green" stroke="green" stroke-width="3" points="407.8,-65.95 411.24,-55.93 402.3,-61.62 407.8,-65.95"/>
</g>
<!-- p2_VISIBLE_TRICK_0 -->
<g id="node8" class="node">
<title>p2_VISIBLE_TRICK_0</title>
<path fill="lightgreen" stroke="black" d="M531.12,-52C531.12,-52 500.88,-52 500.88,-52 494.88,-52 488.88,-46 488.88,-40 488.88,-40 488.88,-28 488.88,-28 488.88,-22 494.88,-16 500.88,-16 500.88,-16 531.12,-16 531.12,-16 537.12,-16 543.12,-22 543.12,-28 543.12,-28 543.12,-40 543.12,-40 543.12,-46 537.12,-52 531.12,-52"/>
<text xml:space="preserve" text-anchor="middle" x="516" y="-30.07" font-family="Futura" font-size="14.00">TRICK</text>
</g>
<!-- p2_INVISIBLE_HAND_0&#45;&gt;p2_VISIBLE_TRICK_0 -->
<g id="edge6" class="edge">
<title>p2_INVISIBLE_HAND_0&#45;&gt;p2_VISIBLE_TRICK_0</title>
<path fill="none" stroke="green" stroke-width="3" d="M517.6,-102.6C517.35,-92.33 517.04,-78.95 516.75,-66.81"/>
<polygon fill="green" stroke="green" stroke-width="3" points="520.25,-66.87 516.52,-56.96 513.26,-67.03 520.25,-66.87"/>
</g>
<!-- p2_VISIBLE_TRICK_0&#45;&gt;table_VISIBLE_PLAYED_0 -->
<g id="edge10" class="edge">
<title>p2_VISIBLE_TRICK_0&#45;&gt;table_VISIBLE_PLAYED_0</title>
<path fill="none" stroke="green" stroke-width="3" d="M505.47,-52.26C498.31,-63.39 487.98,-77.26 476,-86.75 472.57,-89.47 471.28,-89.84 467,-90.75 449.39,-94.49 403.61,-94.49 386,-90.75 371.25,-87.62 359.41,-76.23 350.77,-64.46"/>
<polygon fill="green" stroke="green" stroke-width="3" points="353.79,-62.69 345.41,-56.21 347.92,-66.5 353.79,-62.69"/>
</g>
<!-- p2_VISIBLE_TRICKSWON_0&#45;&gt;table_VISIBLE_DISCARD_0 -->
<g id="edge17" class="edge">
<title>p2_VISIBLE_TRICKSWON_0&#45;&gt;table_VISIBLE_DISCARD_0</title>
<path fill="none" stroke="green" stroke-width="3" d="M579.81,-102.26C572.39,-99.34 564.55,-96.65 557,-94.75 521.92,-85.92 508.64,-102.34 476,-86.75 464.72,-81.36 454.52,-72.38 446.27,-63.41"/>
<polygon fill="green" stroke="green" stroke-width="3" points="448.96,-61.17 439.84,-55.78 443.61,-65.68 448.96,-61.17"/>
</g>
<!-- p3_VISIBLE_TRICK_0 -->
<g id="node11" class="node">
<title>p3_VISIBLE_TRICK_0</title>
<path fill="lightgreen" stroke="black" d="M342.12,-138.75C342.12,-138.75 311.88,-138.75 311.88,-138.75 305.88,-138.75 299.88,-132.75 299.88,-126.75 299.88,-126.75 299.88,-114.75 299.88,-114.75 299.88,-108.75 305.88,-102.75 311.88,-102.75 311.88,-102.75 342.12,-102.75 342.12,-102.75 348.12,-102.75 354.12,-108.75 354.12,-114.75 354.12,-114.75 354.12,-126.75 354.12,-126.75 354.12,-132.75 348.12,-138.75 342.12,-138.75"/>
<text xml:space="preserve" text-anchor="middle" x="327" y="-116.83" font-family="Futura" font-size="14.00">TRICK</text>
</g>
<!-- p3_INVISIBLE_HAND_0&#45;&gt;p3_VISIBLE_TRICK_0 -->
<g id="edge7" class="edge">
<title>p3_INVISIBLE_HAND_0&#45;&gt;p3_VISIBLE_TRICK_0</title>
<path fill="none" stroke="green" stroke-width="3" d="M325.45,-181.08C325.67,-172.94 325.93,-162.98 326.17,-153.56"/>
<polygon fill="green" stroke="green" stroke-width="3" points="329.67,-153.72 326.43,-143.64 322.67,-153.54 329.67,-153.72"/>
</g>
<!-- p3_VISIBLE_TRICK_0&#45;&gt;table_VISIBLE_PLAYED_0 -->
<g id="edge11" class="edge">
<title>p3_VISIBLE_TRICK_0&#45;&gt;table_VISIBLE_PLAYED_0</title>
<path fill="none" stroke="green" stroke-width="3" d="M328.42,-102.6C329.26,-92.33 330.37,-78.95 331.37,-66.81"/>
<polygon fill="green" stroke="green" stroke-width="3" points="334.85,-67.2 332.19,-56.94 327.88,-66.62 334.85,-67.2"/>
</g>
<!-- p4_VISIBLE_TRICK_0 -->
<g id="node13" class="node">
<title>p4_VISIBLE_TRICK_0</title>
<path fill="lightgreen" stroke="black" d="M735.12,-52C735.12,-52 704.88,-52 704.88,-52 698.88,-52 692.88,-46 692.88,-40 692.88,-40 692.88,-28 692.88,-28 692.88,-22 698.88,-16 704.88,-16 704.88,-16 735.12,-16 735.12,-16 741.12,-16 747.12,-22 747.12,-28 747.12,-28 747.12,-40 747.12,-40 747.12,-46 741.12,-52 735.12,-52"/>
<text xml:space="preserve" text-anchor="middle" x="720" y="-30.07" font-family="Futura" font-size="14.00">TRICK</text>
</g>
<!-- p4_INVISIBLE_HAND_0&#45;&gt;p4_VISIBLE_TRICK_0 -->
<g id="edge8" class="edge">
<title>p4_INVISIBLE_HAND_0&#45;&gt;p4_VISIBLE_TRICK_0</title>
<path fill="none" stroke="green" stroke-width="3" d="M721.6,-102.6C721.35,-92.33 721.04,-78.95 720.75,-66.81"/>
<polygon fill="green" stroke="green" stroke-width="3" points="724.25,-66.87 720.52,-56.96 717.26,-67.03 724.25,-66.87"/>
</g>
<!-- p4_VISIBLE_TRICK_0&#45;&gt;table_VISIBLE_PLAYED_0 -->
<g id="edge12" class="edge">
<title>p4_VISIBLE_TRICK_0&#45;&gt;table_VISIBLE_PLAYED_0</title>
<path fill="none" stroke="green" stroke-width="3" d="M711.89,-52.45C704,-67.41 690.35,-86.64 671,-90.75 655.51,-94.04 401.49,-94.04 386,-90.75 371.25,-87.62 359.41,-76.23 350.77,-64.46"/>
<polygon fill="green" stroke="green" stroke-width="3" points="353.79,-62.69 345.41,-56.21 347.92,-66.5 353.79,-62.69"/>
</g>
<!-- p4_VISIBLE_TRICKSWON_0&#45;&gt;table_VISIBLE_DISCARD_0 -->
<g id="edge18" class="edge">
<title>p4_VISIBLE_TRICKSWON_0&#45;&gt;table_VISIBLE_DISCARD_0</title>
<path fill="none" stroke="green" stroke-width="3" d="M785.2,-102.34C777.39,-99.25 769.05,-96.48 761,-94.75 730.03,-88.1 505.05,-99.39 476,-86.75 464.32,-81.67 453.92,-72.55 445.61,-63.36"/>
<polygon fill="green" stroke="green" stroke-width="3" points="448.52,-61.38 439.45,-55.9 443.12,-65.84 448.52,-61.38"/>
</g>
</g>
</svg>
