<svg width="100%" height="100%" xmlns="http://www.w3.org/2000/svg" xmlns:xlink="http://www.w3.org/1999/xlink" viewBox="0.00 0.00 578.00 202.40">
<g id="graph0" class="graph" transform="translate(4,198.39999389648438) scale(1)">
<polygon fill="white" stroke="none" points="-4,4 -4,-198.4 574,-198.4 574,4 -4,4"/>
<text text-anchor="middle" x="285" y="-177.8" font-family="Futura" font-size="14.00">President</text>
<g id="clust1" class="cluster">
<title>cluster_table</title>
<polygon fill="ghostwhite" stroke="black" points="8,-8 8,-161.6 162,-161.6 162,-8 8,-8"/>
<text text-anchor="middle" x="85" y="-145" font-family="Futura" font-size="14.00">table</text>
</g>
<g id="clust2" class="cluster">
<title>cluster_p1</title>
<polygon fill="ghostwhite" stroke="black" points="170,-8 170,-84.8 242,-84.8 242,-8 170,-8"/>
<text text-anchor="middle" x="206" y="-68.2" font-family="Futura" font-size="14.00">p1</text>
</g>
<g id="clust3" class="cluster">
<title>cluster_p2</title>
<polygon fill="ghostwhite" stroke="black" points="250,-8 250,-84.8 322,-84.8 322,-8 250,-8"/>
<text text-anchor="middle" x="286" y="-68.2" font-family="Futura" font-size="14.00">p2</text>
</g>
<g id="clust4" class="cluster">
<title>cluster_p3</title>
<polygon fill="ghostwhite" stroke="black" points="330,-8 330,-84.8 402,-84.8 402,-8 330,-8"/>
<text text-anchor="middle" x="366" y="-68.2" font-family="Futura" font-size="14.00">p3</text>
</g>
<g id="clust5" class="cluster">
<title>cluster_p4</title>
<polygon fill="ghostwhite" stroke="black" points="410,-8 410,-84.8 482,-84.8 482,-8 410,-8"/>
<text text-anchor="middle" x="446" y="-68.2" font-family="Futura" font-size="14.00">p4</text>
</g>
<g id="clust6" class="cluster">
<title>cluster_p5</title>
<polygon fill="ghostwhite" stroke="black" points="490,-8 490,-84.8 562,-84.8 562,-8 490,-8"/>
<text text-anchor="middle" x="526" y="-68.2" font-family="Futura" font-size="14.00">p5</text>
</g>
<!-- table_INVISIBLE_STOCK_0 -->
<g id="node1" class="node">
<title>table_INVISIBLE_STOCK_0</title>
<path fill="khaki" stroke="black" stroke-width="3" d="M141.95,-128.8C141.95,-128.8 104.05,-128.8 104.05,-128.8 98.05,-128.8 92.05,-122.8 92.05,-116.8 92.05,-116.8 92.05,-104.8 92.05,-104.8 92.05,-98.8 98.05,-92.8 104.05,-92.8 104.05,-92.8 141.95,-92.8 141.95,-92.8 147.95,-92.8 153.95,-98.8 153.95,-104.8 153.95,-104.8 153.95,-116.8 153.95,-116.8 153.95,-122.8 147.95,-128.8 141.95,-128.8"/>
<text text-anchor="middle" x="123" y="-106.6" font-family="Futura" font-size="14.00">STOCK</text>
</g>
<!-- p1_INVISIBLE_HAND_0 -->
<g id="node4" class="node">
<title>p1_INVISIBLE_HAND_0</title>
<path fill="lightblue" stroke="black" d="M222.22,-52C222.22,-52 189.78,-52 189.78,-52 183.78,-52 177.78,-46 177.78,-40 177.78,-40 177.78,-28 177.78,-28 177.78,-22 183.78,-16 189.78,-16 189.78,-16 222.22,-16 222.22,-16 228.22,-16 234.22,-22 234.22,-28 234.22,-28 234.22,-40 234.22,-40 234.22,-46 228.22,-52 222.22,-52"/>
<text text-anchor="middle" x="206" y="-29.8" font-family="Futura" font-size="14.00">HAND</text>
</g>
<!-- table_INVISIBLE_STOCK_0&#45;&gt;p1_INVISIBLE_HAND_0 -->
<g id="edge1" class="edge">
<title>table_INVISIBLE_STOCK_0-&gt;p1_INVISIBLE_HAND_0</title>
<path fill="none" stroke="black" d="M155.36,-92.76C159.09,-90.28 162.73,-87.62 166,-84.8 173.86,-78.04 181.31,-69.58 187.6,-61.57"/>
<polygon fill="black" stroke="black" points="190.3,-63.79 193.5,-53.7 184.7,-59.59 190.3,-63.79"/>
</g>
<!-- p2_INVISIBLE_HAND_0 -->
<g id="node5" class="node">
<title>p2_INVISIBLE_HAND_0</title>
<path fill="lightblue" stroke="black" d="M302.22,-52C302.22,-52 269.78,-52 269.78,-52 263.78,-52 257.78,-46 257.78,-40 257.78,-40 257.78,-28 257.78,-28 257.78,-22 263.78,-16 269.78,-16 269.78,-16 302.22,-16 302.22,-16 308.22,-16 314.22,-22 314.22,-28 314.22,-28 314.22,-40 314.22,-40 314.22,-46 308.22,-52 302.22,-52"/>
<text text-anchor="middle" x="286" y="-29.8" font-family="Futura" font-size="14.00">HAND</text>
</g>
<!-- table_INVISIBLE_STOCK_0&#45;&gt;p2_INVISIBLE_HAND_0 -->
<g id="edge2" class="edge">
<title>table_INVISIBLE_STOCK_0-&gt;p2_INVISIBLE_HAND_0</title>
<path fill="none" stroke="black" d="M155.23,-109.19C181.4,-107.35 218.37,-101.64 246,-84.8 255.36,-79.1 263.45,-70.38 269.86,-61.82"/>
<polygon fill="black" stroke="black" points="272.71,-63.86 275.5,-53.64 266.94,-59.89 272.71,-63.86"/>
</g>
<!-- p3_INVISIBLE_HAND_0 -->
<g id="node6" class="node">
<title>p3_INVISIBLE_HAND_0</title>
<path fill="lightblue" stroke="black" d="M382.22,-52C382.22,-52 349.78,-52 349.78,-52 343.78,-52 337.78,-46 337.78,-40 337.78,-40 337.78,-28 337.78,-28 337.78,-22 343.78,-16 349.78,-16 349.78,-16 382.22,-16 382.22,-16 388.22,-16 394.22,-22 394.22,-28 394.22,-28 394.22,-40 394.22,-40 394.22,-46 388.22,-52 382.22,-52"/>
<text text-anchor="middle" x="366" y="-29.8" font-family="Futura" font-size="14.00">HAND</text>
</g>
<!-- table_INVISIBLE_STOCK_0&#45;&gt;p3_INVISIBLE_HAND_0 -->
<g id="edge3" class="edge">
<title>table_INVISIBLE_STOCK_0-&gt;p3_INVISIBLE_HAND_0</title>
<path fill="none" stroke="black" d="M155.37,-108.75C205.08,-106.66 297.46,-100.7 326,-84.8 335.82,-79.33 344.13,-70.39 350.59,-61.58"/>
<polygon fill="black" stroke="black" points="353.35,-63.75 356.02,-53.5 347.54,-59.85 353.35,-63.75"/>
</g>
<!-- p4_INVISIBLE_HAND_0 -->
<g id="node7" class="node">
<title>p4_INVISIBLE_HAND_0</title>
<path fill="lightblue" stroke="black" d="M462.22,-52C462.22,-52 429.78,-52 429.78,-52 423.78,-52 417.78,-46 417.78,-40 417.78,-40 417.78,-28 417.78,-28 417.78,-22 423.78,-16 429.78,-16 429.78,-16 462.22,-16 462.22,-16 468.22,-16 474.22,-22 474.22,-28 474.22,-28 474.22,-40 474.22,-40 474.22,-46 468.22,-52 462.22,-52"/>
<text text-anchor="middle" x="446" y="-29.8" font-family="Futura" font-size="14.00">HAND</text>
</g>
<!-- table_INVISIBLE_STOCK_0&#45;&gt;p4_INVISIBLE_HAND_0 -->
<g id="edge4" class="edge">
<title>table_INVISIBLE_STOCK_0-&gt;p4_INVISIBLE_HAND_0</title>
<path fill="none" stroke="black" d="M155.33,-110.08C220.13,-110.14 363.38,-107.6 406,-84.8 415.91,-79.5 424.24,-70.59 430.69,-61.76"/>
<polygon fill="black" stroke="black" points="433.47,-63.91 436.1,-53.65 427.64,-60.03 433.47,-63.91"/>
</g>
<!-- p5_INVISIBLE_HAND_0 -->
<g id="node8" class="node">
<title>p5_INVISIBLE_HAND_0</title>
<path fill="lightblue" stroke="black" d="M542.22,-52C542.22,-52 509.78,-52 509.78,-52 503.78,-52 497.78,-46 497.78,-40 497.78,-40 497.78,-28 497.78,-28 497.78,-22 503.78,-16 509.78,-16 509.78,-16 542.22,-16 542.22,-16 548.22,-16 554.22,-22 554.22,-28 554.22,-28 554.22,-40 554.22,-40 554.22,-46 548.22,-52 542.22,-52"/>
<text text-anchor="middle" x="526" y="-29.8" font-family="Futura" font-size="14.00">HAND</text>
</g>
<!-- table_INVISIBLE_STOCK_0&#45;&gt;p5_INVISIBLE_HAND_0 -->
<g id="edge5" class="edge">
<title>table_INVISIBLE_STOCK_0-&gt;p5_INVISIBLE_HAND_0</title>
<path fill="none" stroke="black" d="M155.22,-109.05C238.63,-106.91 457.1,-99.9 486,-84.8 495.96,-79.6 504.3,-70.71 510.75,-61.87"/>
<polygon fill="black" stroke="black" points="513.53,-64 516.15,-53.73 507.7,-60.13 513.53,-64"/>
</g>
<!-- table_VISIBLE_TRICK_0 -->
<g id="node2" class="node">
<title>table_VISIBLE_TRICK_0</title>
<path fill="lightgreen" stroke="black" d="M62,-128.8C62,-128.8 28,-128.8 28,-128.8 22,-128.8 16,-122.8 16,-116.8 16,-116.8 16,-104.8 16,-104.8 16,-98.8 22,-92.8 28,-92.8 28,-92.8 62,-92.8 62,-92.8 68,-92.8 74,-98.8 74,-104.8 74,-104.8 74,-116.8 74,-116.8 74,-122.8 68,-128.8 62,-128.8"/>
<text text-anchor="middle" x="45" y="-106.6" font-family="Futura" font-size="14.00">PLAY</text>
</g>
<!-- table_VISIBLE_DISCARD_0 -->
<g id="node3" class="node">
<title>table_VISIBLE_DISCARD_0</title>
<path fill="lightgreen" stroke="black" d="M81.73,-52C81.73,-52 28.27,-52 28.27,-52 22.27,-52 16.27,-46 16.27,-40 16.27,-40 16.27,-28 16.27,-28 16.27,-22 22.27,-16 28.27,-16 28.27,-16 81.73,-16 81.73,-16 87.73,-16 93.73,-22 93.73,-28 93.73,-28 93.73,-40 93.73,-40 93.73,-46 87.73,-52 81.73,-52"/>
<text text-anchor="middle" x="55" y="-29.8" font-family="Futura" font-size="14.00">DISCARD</text>
</g>
<!-- table_VISIBLE_TRICK_0&#45;&gt;table_VISIBLE_DISCARD_0 -->
<g id="edge8" class="edge">
<title>table_VISIBLE_TRICK_0-&gt;table_VISIBLE_DISCARD_0</title>
<path fill="none" stroke="green" stroke-width="3" d="M47.32,-92.45C48.35,-84.71 49.61,-75.34 50.8,-66.44"/>
<polygon fill="green" stroke="green" stroke-width="3" points="54.24,-67.13 52.09,-56.76 47.3,-66.2 54.24,-67.13"/>
</g>
<!-- p1_INVISIBLE_HAND_0&#45;&gt;table_VISIBLE_TRICK_0 -->
<g id="edge6" class="edge">
<title>p1_INVISIBLE_HAND_0-&gt;table_VISIBLE_TRICK_0</title>
<path fill="none" stroke="green" stroke-width="3" d="M196.92,-52.35C190.04,-63.63 179.47,-77.53 166,-84.8 137.08,-100.41 122.36,-87.18 88.22,-92.57"/>
<polygon fill="green" stroke="green" stroke-width="3" points="87.58,-89.13 78.55,-94.68 89.07,-95.97 87.58,-89.13"/>
</g>
<!-- p2_INVISIBLE_HAND_0&#45;&gt;table_VISIBLE_TRICK_0 -->
<g id="edge7" class="edge">
<title>p2_INVISIBLE_HAND_0-&gt;table_VISIBLE_TRICK_0</title>
<path fill="none" stroke="green" stroke-width="3" d="M277.32,-52.06C270.5,-63.51 259.83,-77.75 246,-84.8 216.85,-99.67 136.31,-87.35 88.38,-92.98"/>
<polygon fill="green" stroke="green" stroke-width="3" points="87.79,-89.53 78.55,-94.72 89.01,-96.43 87.79,-89.53"/>
</g>
<!-- p3_INVISIBLE_HAND_0&#45;&gt;table_VISIBLE_TRICK_0 -->
<g id="edge9" class="edge">
<title>p3_INVISIBLE_HAND_0-&gt;table_VISIBLE_TRICK_0</title>
<path fill="none" stroke="green" stroke-width="3" d="M357.36,-52.13C350.55,-63.62 339.89,-77.86 326,-84.8 304.15,-95.72 144.63,-88.47 88.54,-93.32"/>
<polygon fill="green" stroke="green" stroke-width="3" points="88.4,-89.8 78.99,-94.67 89.38,-96.74 88.4,-89.8"/>
</g>
<!-- p4_INVISIBLE_HAND_0&#45;&gt;table_VISIBLE_TRICK_0 -->
<g id="edge10" class="edge">
<title>p4_INVISIBLE_HAND_0-&gt;table_VISIBLE_TRICK_0</title>
<path fill="none" stroke="green" stroke-width="3" d="M437.38,-52.17C430.57,-63.67 419.92,-77.92 406,-84.8 376.4,-99.44 157.55,-87.21 88.8,-93.25"/>
<polygon fill="green" stroke="green" stroke-width="3" points="88.39,-89.78 78.98,-94.64 89.37,-96.71 88.39,-89.78"/>
</g>
<!-- p5_INVISIBLE_HAND_0&#45;&gt;table_VISIBLE_TRICK_0 -->
<g id="edge11" class="edge">
<title>p5_INVISIBLE_HAND_0-&gt;table_VISIBLE_TRICK_0</title>
<path fill="none" stroke="green" stroke-width="3" d="M517.39,-52.19C510.59,-63.7 499.93,-77.95 486,-84.8 467.59,-93.85 163.09,-88.93 88.73,-93.69"/>
<polygon fill="green" stroke="green" stroke-width="3" points="88.55,-90.19 78.99,-94.77 89.32,-97.15 88.55,-90.19"/>
</g>
</g>
</svg>
