<svg width="100%" height="100%" xmlns="http://www.w3.org/2000/svg" xmlns:xlink="http://www.w3.org/1999/xlink" viewBox="0.00 0.00 738.19 274.40">
<g id="graph0" class="graph" transform="translate(4,270.3999938964844) scale(1)">
<polygon fill="white" stroke="none" points="-4,4 -4,-270.4 734.19,-270.4 734.19,4 -4,4"/>
<text text-anchor="middle" x="365.1" y="-249.8" font-family="Futura" font-size="14.00">Rummy</text>
<g id="clust1" class="cluster">
<title>cluster_table</title>
<polygon fill="ghostwhite" stroke="black" points="160,-8 160,-156.8 598,-156.8 598,-8 160,-8"/>
<text text-anchor="middle" x="379" y="-140.2" font-family="Futura" font-size="14.00">table</text>
</g>
<g id="clust2" class="cluster">
<title>cluster_p1</title>
<polygon fill="ghostwhite" stroke="black" points="8,-80 8,-233.6 82,-233.6 82,-80 8,-80"/>
<text text-anchor="middle" x="45" y="-217" font-family="Futura" font-size="14.00">p1</text>
</g>
<g id="clust3" class="cluster">
<title>cluster_p2</title>
<polygon fill="ghostwhite" stroke="black" points="606,-80 606,-233.6 680,-233.6 680,-80 606,-80"/>
<text text-anchor="middle" x="643" y="-217" font-family="Futura" font-size="14.00">p2</text>
</g>
<!-- table_INVISIBLE_STOCK_0 -->
<g id="node1" class="node">
<title>table_INVISIBLE_STOCK_0</title>
<path fill="khaki" stroke="black" stroke-width="3" d="M289.95,-124C289.95,-124 252.05,-124 252.05,-124 246.05,-124 240.05,-118 240.05,-112 240.05,-112 240.05,-100 240.05,-100 240.05,-94 246.05,-88 252.05,-88 252.05,-88 289.95,-88 289.95,-88 295.95,-88 301.95,-94 301.95,-100 301.95,-100 301.95,-112 301.95,-112 301.95,-118 295.95,-124 289.95,-124"/>
<text text-anchor="middle" x="271" y="-101.8" font-family="Futura" font-size="14.00">STOCK</text>
</g>
<!-- table_VISIBLE_DISCARD_0 -->
<g id="node2" class="node">
<title>table_VISIBLE_DISCARD_0</title>
<path fill="lightgreen" stroke="black" d="M297.73,-52C297.73,-52 244.27,-52 244.27,-52 238.27,-52 232.27,-46 232.27,-40 232.27,-40 232.27,-28 232.27,-28 232.27,-22 238.27,-16 244.27,-16 244.27,-16 297.73,-16 297.73,-16 303.73,-16 309.73,-22 309.73,-28 309.73,-28 309.73,-40 309.73,-40 309.73,-46 303.73,-52 297.73,-52"/>
<text text-anchor="middle" x="271" y="-29.8" font-family="Futura" font-size="14.00">DISCARD</text>
</g>
<!-- table_INVISIBLE_STOCK_0&#45;&gt;table_VISIBLE_DISCARD_0 -->
<g id="edge3" class="edge">
<title>table_INVISIBLE_STOCK_0-&gt;table_VISIBLE_DISCARD_0</title>
<path fill="none" stroke="green" stroke-width="3" d="M264.98,-86.61C264.39,-80.43 264.16,-73.34 264.28,-66.45"/>
<polygon fill="green" stroke="green" stroke-width="3" points="267.77,-66.79 264.85,-56.6 260.78,-66.38 267.77,-66.79"/>
</g>
<!-- p1_INVISIBLE_HAND_0 -->
<g id="node8" class="node">
<title>p1_INVISIBLE_HAND_0</title>
<path fill="lightblue" stroke="black" d="M62.22,-200.8C62.22,-200.8 29.78,-200.8 29.78,-200.8 23.78,-200.8 17.78,-194.8 17.78,-188.8 17.78,-188.8 17.78,-176.8 17.78,-176.8 17.78,-170.8 23.78,-164.8 29.78,-164.8 29.78,-164.8 62.22,-164.8 62.22,-164.8 68.22,-164.8 74.22,-170.8 74.22,-176.8 74.22,-176.8 74.22,-188.8 74.22,-188.8 74.22,-194.8 68.22,-200.8 62.22,-200.8"/>
<text text-anchor="middle" x="46" y="-178.6" font-family="Futura" font-size="14.00">HAND</text>
</g>
<!-- table_INVISIBLE_STOCK_0&#45;&gt;p1_INVISIBLE_HAND_0 -->
<g id="edge1" class="edge">
<title>table_INVISIBLE_STOCK_0-&gt;p1_INVISIBLE_HAND_0</title>
<path fill="none" stroke="black" d="M261.22,-125.17C254.29,-136.19 243.94,-149.49 231,-156.8 206.87,-170.43 132.43,-177.01 85.66,-179.87"/>
<polygon fill="black" stroke="black" points="85.7,-176.36 75.92,-180.43 86.11,-183.35 85.7,-176.36"/>
</g>
<!-- p2_INVISIBLE_HAND_0 -->
<g id="node10" class="node">
<title>p2_INVISIBLE_HAND_0</title>
<path fill="lightblue" stroke="black" d="M658.22,-200.8C658.22,-200.8 625.78,-200.8 625.78,-200.8 619.78,-200.8 613.78,-194.8 613.78,-188.8 613.78,-188.8 613.78,-176.8 613.78,-176.8 613.78,-170.8 619.78,-164.8 625.78,-164.8 625.78,-164.8 658.22,-164.8 658.22,-164.8 664.22,-164.8 670.22,-170.8 670.22,-176.8 670.22,-176.8 670.22,-188.8 670.22,-188.8 670.22,-194.8 664.22,-200.8 658.22,-200.8"/>
<text text-anchor="middle" x="642" y="-178.6" font-family="Futura" font-size="14.00">HAND</text>
</g>
<!-- table_INVISIBLE_STOCK_0&#45;&gt;p2_INVISIBLE_HAND_0 -->
<g id="edge2" class="edge">
<title>table_INVISIBLE_STOCK_0-&gt;p2_INVISIBLE_HAND_0</title>
<path fill="none" stroke="black" d="M280.64,-125.43C287.51,-136.56 297.85,-149.88 311,-156.8 336.18,-170.06 519.58,-177.74 602.03,-180.56"/>
<polygon fill="black" stroke="black" points="601.81,-184.05 611.92,-180.89 602.05,-177.06 601.81,-184.05"/>
</g>
<!-- table_VISIBLE_DISCARD_0&#45;&gt;table_INVISIBLE_STOCK_0 -->
<g id="edge16" class="edge">
<title>table_VISIBLE_DISCARD_0-&gt;table_INVISIBLE_STOCK_0</title>
<path fill="none" stroke="red" stroke-width="3" d="M276.89,-52.07C277.54,-58.2 277.82,-65.33 277.74,-72.34"/>
<polygon fill="red" stroke="red" stroke-width="3" points="274.25,-71.91 277.25,-82.07 281.24,-72.26 274.25,-71.91"/>
</g>
<!-- table_VISIBLE_DISCARD_0&#45;&gt;p1_INVISIBLE_HAND_0 -->
<g id="edge4" class="edge">
<title>table_VISIBLE_DISCARD_0-&gt;p1_INVISIBLE_HAND_0</title>
<path fill="none" stroke="red" stroke-width="3" d="M231.86,-39.11C200.34,-44.17 156.42,-55.37 126,-80 98.69,-102.12 107.12,-123.24 83.81,-153.79"/>
<polygon fill="red" stroke="red" stroke-width="3" points="81.41,-151.22 77.55,-161.09 86.72,-155.78 81.41,-151.22"/>
</g>
<!-- table_VISIBLE_DISCARD_0&#45;&gt;p2_INVISIBLE_HAND_0 -->
<g id="edge8" class="edge">
<title>table_VISIBLE_DISCARD_0-&gt;p2_INVISIBLE_HAND_0</title>
<path fill="none" stroke="red" stroke-width="3" d="M310.06,-36.38C407.72,-40.22 656.48,-52.64 681,-80 703.78,-105.42 697.38,-126.85 681,-156.8 680.76,-157.24 680.51,-157.67 680.25,-158.09"/>
<polygon fill="red" stroke="red" stroke-width="3" points="677.76,-155.63 673.46,-165.32 682.86,-160.43 677.76,-155.63"/>
</g>
<!-- table_VISIBLE_RUN_0 -->
<g id="node3" class="node">
<title>table_VISIBLE_RUN_0</title>
<path fill="lightgreen" stroke="black" d="M362,-124C362,-124 332,-124 332,-124 326,-124 320,-118 320,-112 320,-112 320,-100 320,-100 320,-94 326,-88 332,-88 332,-88 362,-88 362,-88 368,-88 374,-94 374,-100 374,-100 374,-112 374,-112 374,-118 368,-124 362,-124"/>
<text text-anchor="middle" x="347" y="-101.8" font-family="Futura" font-size="14.00">RUN</text>
</g>
<!-- table_VISIBLE_SET_0 -->
<g id="node4" class="node">
<title>table_VISIBLE_SET_0</title>
<path fill="lightgreen" stroke="black" d="M210,-124C210,-124 180,-124 180,-124 174,-124 168,-118 168,-112 168,-112 168,-100 168,-100 168,-94 174,-88 180,-88 180,-88 210,-88 210,-88 216,-88 222,-94 222,-100 222,-100 222,-112 222,-112 222,-118 216,-124 210,-124"/>
<text text-anchor="middle" x="195" y="-101.8" font-family="Futura" font-size="14.00">SET</text>
</g>
<!-- table_VISIBLE_SET_1 -->
<g id="node5" class="node">
<title>table_VISIBLE_SET_1</title>
<path fill="lightgreen" stroke="black" d="M506,-124C506,-124 476,-124 476,-124 470,-124 464,-118 464,-112 464,-112 464,-100 464,-100 464,-94 470,-88 476,-88 476,-88 506,-88 506,-88 512,-88 518,-94 518,-100 518,-100 518,-112 518,-112 518,-118 512,-124 506,-124"/>
<text text-anchor="start" x="475.06" y="-102.8" font-family="Futura" font-size="14.00">SET</text>
<text text-anchor="start" x="499.94" y="-102.8" font-family="Futura" baseline-shift="sub" font-size="14.00">1</text>
</g>
<!-- table_VISIBLE_SET_2 -->
<g id="node6" class="node">
<title>table_VISIBLE_SET_2</title>
<path fill="lightgreen" stroke="black" d="M578,-124C578,-124 548,-124 548,-124 542,-124 536,-118 536,-112 536,-112 536,-100 536,-100 536,-94 542,-88 548,-88 548,-88 578,-88 578,-88 584,-88 590,-94 590,-100 590,-100 590,-112 590,-112 590,-118 584,-124 578,-124"/>
<text text-anchor="start" x="547.06" y="-102.8" font-family="Futura" font-size="14.00">SET</text>
<text text-anchor="start" x="571.94" y="-102.8" font-family="Futura" baseline-shift="sub" font-size="14.00">2</text>
</g>
<!-- table_VISIBLE_RUN_1 -->
<g id="node7" class="node">
<title>table_VISIBLE_RUN_1</title>
<path fill="lightgreen" stroke="black" d="M434,-124C434,-124 404,-124 404,-124 398,-124 392,-118 392,-112 392,-112 392,-100 392,-100 392,-94 398,-88 404,-88 404,-88 434,-88 434,-88 440,-88 446,-94 446,-100 446,-100 446,-112 446,-112 446,-118 440,-124 434,-124"/>
<text text-anchor="start" x="400.72" y="-102.8" font-family="Futura" font-size="14.00">RUN</text>
<text text-anchor="start" x="430.28" y="-102.8" font-family="Futura" baseline-shift="sub" font-size="14.00">1</text>
</g>
<!-- p1_INVISIBLE_HAND_0&#45;&gt;table_VISIBLE_DISCARD_0 -->
<g id="edge6" class="edge">
<title>p1_INVISIBLE_HAND_0-&gt;table_VISIBLE_DISCARD_0</title>
<path fill="none" stroke="green" stroke-width="3" d="M74.52,-177.27C89.17,-173.73 106.51,-167.54 119,-156.8 148.18,-131.71 130.48,-105.85 159,-80 175.59,-64.96 197.84,-54.64 218.14,-47.71"/>
<polygon fill="green" stroke="green" stroke-width="3" points="218.95,-51.13 227.45,-44.8 216.86,-44.45 218.95,-51.13"/>
</g>
<!-- p1_INVISIBLE_HAND_0&#45;&gt;table_VISIBLE_RUN_0 -->
<g id="edge15" class="edge">
<title>p1_INVISIBLE_HAND_0-&gt;table_VISIBLE_RUN_0</title>
<path fill="none" stroke="green" stroke-width="3" d="M74.53,-182.03C134.48,-182.05 271.29,-179.51 311,-156.8 319.39,-152 326.35,-144.37 331.84,-136.5"/>
<polygon fill="green" stroke="green" stroke-width="3" points="334.68,-138.57 336.89,-128.21 328.7,-134.93 334.68,-138.57"/>
</g>
<!-- p1_INVISIBLE_HAND_0&#45;&gt;table_VISIBLE_SET_0 -->
<g id="edge11" class="edge">
<title>p1_INVISIBLE_HAND_0-&gt;table_VISIBLE_SET_0</title>
<path fill="none" stroke="green" stroke-width="3" d="M74.52,-180.22C97.47,-177.81 129.79,-171.8 154,-156.8 162.6,-151.47 170.23,-143.71 176.51,-135.88"/>
<polygon fill="green" stroke="green" stroke-width="3" points="179.23,-138.1 182.28,-127.95 173.57,-133.98 179.23,-138.1"/>
</g>
<!-- p1_INVISIBLE_HAND_0&#45;&gt;table_VISIBLE_RUN_1 -->
<g id="edge14" class="edge">
<title>p1_INVISIBLE_HAND_0-&gt;table_VISIBLE_RUN_1</title>
<path fill="none" stroke="green" stroke-width="3" d="M74.57,-181.05C151.03,-178.87 356.4,-171.66 383,-156.8 391.43,-152.09 398.41,-144.48 403.9,-136.61"/>
<polygon fill="green" stroke="green" stroke-width="3" points="406.75,-138.66 408.94,-128.29 400.76,-135.03 406.75,-138.66"/>
</g>
<!-- p1_MEMORY_DRAW_0 -->
<g id="node9" class="node">
<title>p1_MEMORY_DRAW_0</title>
<path fill="#e5e5e5" stroke="black" stroke-dasharray="1,5" d="M62.39,-124C62.39,-124 27.61,-124 27.61,-124 21.61,-124 15.61,-118 15.61,-112 15.61,-112 15.61,-100 15.61,-100 15.61,-94 21.61,-88 27.61,-88 27.61,-88 62.39,-88 62.39,-88 68.39,-88 74.39,-94 74.39,-100 74.39,-100 74.39,-112 74.39,-112 74.39,-118 68.39,-124 62.39,-124"/>
<text text-anchor="middle" x="45" y="-101.8" font-family="Futura" font-size="14.00">DRAW</text>
</g>
<!-- p1_INVISIBLE_HAND_0&#45;&gt;p1_MEMORY_DRAW_0 -->
<g id="edge5" class="edge">
<title>p1_INVISIBLE_HAND_0-&gt;p1_MEMORY_DRAW_0</title>
<path fill="none" stroke="black" d="M45.77,-164.45C45.65,-155.86 45.51,-145.27 45.38,-135.52"/>
<polygon fill="black" stroke="black" points="48.88,-135.72 45.25,-125.77 41.88,-135.81 48.88,-135.72"/>
</g>
<!-- p2_INVISIBLE_HAND_0&#45;&gt;table_VISIBLE_DISCARD_0 -->
<g id="edge7" class="edge">
<title>p2_INVISIBLE_HAND_0-&gt;table_VISIBLE_DISCARD_0</title>
<path fill="none" stroke="green" stroke-width="3" d="M670.64,-179.65C686.18,-176.85 704.18,-170.6 714,-156.8 733.79,-128.99 736.88,-105.33 714,-80 688.3,-51.56 436.5,-40.18 324.38,-36.49"/>
<polygon fill="green" stroke="green" stroke-width="3" points="324.8,-33 314.69,-36.18 324.58,-40 324.8,-33"/>
</g>
<!-- p2_INVISIBLE_HAND_0&#45;&gt;table_VISIBLE_RUN_0 -->
<g id="edge10" class="edge">
<title>p2_INVISIBLE_HAND_0-&gt;table_VISIBLE_RUN_0</title>
<path fill="none" stroke="green" stroke-width="3" d="M613.67,-181.96C554.84,-181.82 421.7,-178.99 383,-156.8 374.62,-151.99 367.66,-144.36 362.17,-136.49"/>
<polygon fill="green" stroke="green" stroke-width="3" points="365.31,-134.92 357.12,-128.2 359.33,-138.56 365.31,-134.92"/>
</g>
<!-- p2_INVISIBLE_HAND_0&#45;&gt;table_VISIBLE_SET_1 -->
<g id="edge12" class="edge">
<title>p2_INVISIBLE_HAND_0-&gt;table_VISIBLE_SET_1</title>
<path fill="none" stroke="green" stroke-width="3" d="M613.35,-181.19C588.66,-179.43 552.99,-173.81 527,-156.8 519.13,-151.65 512.41,-144.14 506.98,-136.5"/>
<polygon fill="green" stroke="green" stroke-width="3" points="510.02,-134.77 501.73,-128.17 504.1,-138.5 510.02,-134.77"/>
</g>
<!-- p2_INVISIBLE_HAND_0&#45;&gt;table_VISIBLE_SET_2 -->
<g id="edge13" class="edge">
<title>p2_INVISIBLE_HAND_0-&gt;table_VISIBLE_SET_2</title>
<path fill="none" stroke="green" stroke-width="3" d="M613.57,-165.77C609.52,-163 605.53,-159.98 602,-156.8 595.12,-150.61 588.54,-143.1 582.81,-135.8"/>
<polygon fill="green" stroke="green" stroke-width="3" points="585.81,-133.97 577.04,-128.02 580.19,-138.14 585.81,-133.97"/>
</g>
<!-- p2_INVISIBLE_HAND_0&#45;&gt;table_VISIBLE_RUN_1 -->
<g id="edge17" class="edge">
<title>p2_INVISIBLE_HAND_0-&gt;table_VISIBLE_RUN_1</title>
<path fill="none" stroke="green" stroke-width="3" d="M613.57,-180.72C568.01,-178.55 481.14,-172.43 455,-156.8 446.71,-151.84 439.78,-144.16 434.28,-136.3"/>
<polygon fill="green" stroke="green" stroke-width="3" points="437.43,-134.74 429.22,-128.04 431.46,-138.4 437.43,-134.74"/>
</g>
<!-- p2_MEMORY_DRAW_0 -->
<g id="node11" class="node">
<title>p2_MEMORY_DRAW_0</title>
<path fill="#e5e5e5" stroke="black" stroke-dasharray="1,5" d="M660.39,-124C660.39,-124 625.61,-124 625.61,-124 619.61,-124 613.61,-118 613.61,-112 613.61,-112 613.61,-100 613.61,-100 613.61,-94 619.61,-88 625.61,-88 625.61,-88 660.39,-88 660.39,-88 666.39,-88 672.39,-94 672.39,-100 672.39,-100 672.39,-112 672.39,-112 672.39,-118 666.39,-124 660.39,-124"/>
<text text-anchor="middle" x="643" y="-101.8" font-family="Futura" font-size="14.00">DRAW</text>
</g>
<!-- p2_INVISIBLE_HAND_0&#45;&gt;p2_MEMORY_DRAW_0 -->
<g id="edge9" class="edge">
<title>p2_INVISIBLE_HAND_0-&gt;p2_MEMORY_DRAW_0</title>
<path fill="none" stroke="black" d="M642.23,-164.45C642.35,-155.86 642.49,-145.27 642.62,-135.52"/>
<polygon fill="black" stroke="black" points="646.12,-135.81 642.75,-125.77 639.12,-135.72 646.12,-135.81"/>
</g>
</g>
</svg>