<?xml version="1.0" encoding="UTF-8" standalone="no"?>
<!DOCTYPE svg PUBLIC "-//W3C//DTD SVG 1.1//EN"
 "http://www.w3.org/Graphics/SVG/1.1/DTD/svg11.dtd">
<!-- Generated by graphviz version 13.1.2 (20250808.2320)
 -->
<!-- Pages: 1 -->
<svg width="576pt" height="280pt"
 viewBox="0.00 0.00 576.00 280.00" xmlns="http://www.w3.org/2000/svg" xmlns:xlink="http://www.w3.org/1999/xlink">
<g id="graph0" class="graph" transform="scale(1 1) rotate(0) translate(4 276.25)">
<polygon fill="white" stroke="none" points="-4,4 -4,-276.25 572,-276.25 572,4 -4,4"/>
<text xml:space="preserve" text-anchor="middle" x="284" y="-254.95" font-family="Futura" font-size="14.00">Scarto</text>
<g id="clust1" class="cluster">
<title>cluster_table</title>
<polygon fill="ghostwhite" stroke="black" points="134,-80 134,-158.75 308,-158.75 308,-80 134,-80"/>
<text xml:space="preserve" text-anchor="middle" x="221" y="-141.45" font-family="Futura" font-size="14.00">table</text>
</g>
<g id="clust2" class="cluster">
<title>cluster_p1</title>
<polygon fill="ghostwhite" stroke="black" points="8,-8 8,-237.5 126,-237.5 126,-8 8,-8"/>
<text xml:space="preserve" text-anchor="middle" x="67" y="-220.2" font-family="Futura" font-size="14.00">p1</text>
</g>
<g id="clust3" class="cluster">
<title>cluster_p2</title>
<polygon fill="ghostwhite" stroke="black" points="316,-8 316,-237.5 434,-237.5 434,-8 316,-8"/>
<text xml:space="preserve" text-anchor="middle" x="375" y="-220.2" font-family="Futura" font-size="14.00">p2</text>
</g>
<g id="clust4" class="cluster">
<title>cluster_p3</title>
<polygon fill="ghostwhite" stroke="black" points="442,-8 442,-237.5 560,-237.5 560,-8 442,-8"/>
<text xml:space="preserve" text-anchor="middle" x="501" y="-220.2" font-family="Futura" font-size="14.00">p3</text>
</g>
<!-- table_INVISIBLE_STOCK_0 -->
<g id="node1" class="node">
<title>table_INVISIBLE_STOCK_0</title>
<path fill="khaki" stroke="black" stroke-width="3" d="M192.25,-124C192.25,-124 153.75,-124 153.75,-124 147.75,-124 141.75,-118 141.75,-112 141.75,-112 141.75,-100 141.75,-100 141.75,-94 147.75,-88 153.75,-88 153.75,-88 192.25,-88 192.25,-88 198.25,-88 204.25,-94 204.25,-100 204.25,-100 204.25,-112 204.25,-112 204.25,-118 198.25,-124 192.25,-124"/>
<text xml:space="preserve" text-anchor="middle" x="173" y="-102.08" font-family="Futura" font-size="14.00">STOCK</text>
</g>
<!-- p1_INVISIBLE_HAND_0 -->
<g id="node3" class="node">
<title>p1_INVISIBLE_HAND_0</title>
<path fill="lightblue" stroke="black" d="M105.75,-202.75C105.75,-202.75 70.25,-202.75 70.25,-202.75 64.25,-202.75 58.25,-196.75 58.25,-190.75 58.25,-190.75 58.25,-178.75 58.25,-178.75 58.25,-172.75 64.25,-166.75 70.25,-166.75 70.25,-166.75 105.75,-166.75 105.75,-166.75 111.75,-166.75 117.75,-172.75 117.75,-178.75 117.75,-178.75 117.75,-190.75 117.75,-190.75 117.75,-196.75 111.75,-202.75 105.75,-202.75"/>
<text xml:space="preserve" text-anchor="middle" x="88" y="-180.82" font-family="Futura" font-size="14.00">HAND</text>
</g>
<!-- table_INVISIBLE_STOCK_0&#45;&gt;p1_INVISIBLE_HAND_0 -->
<g id="edge1" class="edge">
<title>table_INVISIBLE_STOCK_0&#45;&gt;p1_INVISIBLE_HAND_0</title>
<path fill="none" stroke="black" d="M160.39,-125.1C152.45,-135.69 141.54,-148.88 130,-158.75 129.21,-159.43 128.4,-160.09 127.57,-160.75"/>
<polygon fill="black" stroke="black" points="125.54,-157.9 119.46,-166.58 129.63,-163.59 125.54,-157.9"/>
</g>
<!-- p1_VISIBLE_TRICKSWON_0 -->
<g id="node4" class="node">
<title>p1_VISIBLE_TRICKSWON_0</title>
<path fill="lightgreen" stroke="black" d="M105.75,-52C105.75,-52 28.25,-52 28.25,-52 22.25,-52 16.25,-46 16.25,-40 16.25,-40 16.25,-28 16.25,-28 16.25,-22 22.25,-16 28.25,-16 28.25,-16 105.75,-16 105.75,-16 111.75,-16 117.75,-22 117.75,-28 117.75,-28 117.75,-40 117.75,-40 117.75,-46 111.75,-52 105.75,-52"/>
<text xml:space="preserve" text-anchor="middle" x="67" y="-30.07" font-family="Futura" font-size="14.00">TRICKSWON</text>
</g>
<!-- table_INVISIBLE_STOCK_0&#45;&gt;p1_VISIBLE_TRICKSWON_0 -->
<g id="edge4" class="edge">
<title>table_INVISIBLE_STOCK_0&#45;&gt;p1_VISIBLE_TRICKSWON_0</title>
<path fill="none" stroke="green" stroke-width="3" d="M145.15,-86.61C132.97,-78.57 118.49,-69 105.31,-60.3"/>
<polygon fill="green" stroke="green" stroke-width="3" points="107.27,-57.4 97,-54.81 103.41,-63.24 107.27,-57.4"/>
</g>
<!-- p2_INVISIBLE_HAND_0 -->
<g id="node6" class="node">
<title>p2_INVISIBLE_HAND_0</title>
<path fill="lightblue" stroke="black" d="M381.75,-202.75C381.75,-202.75 346.25,-202.75 346.25,-202.75 340.25,-202.75 334.25,-196.75 334.25,-190.75 334.25,-190.75 334.25,-178.75 334.25,-178.75 334.25,-172.75 340.25,-166.75 346.25,-166.75 346.25,-166.75 381.75,-166.75 381.75,-166.75 387.75,-166.75 393.75,-172.75 393.75,-178.75 393.75,-178.75 393.75,-190.75 393.75,-190.75 393.75,-196.75 387.75,-202.75 381.75,-202.75"/>
<text xml:space="preserve" text-anchor="middle" x="364" y="-180.82" font-family="Futura" font-size="14.00">HAND</text>
</g>
<!-- table_INVISIBLE_STOCK_0&#45;&gt;p2_INVISIBLE_HAND_0 -->
<g id="edge2" class="edge">
<title>table_INVISIBLE_STOCK_0&#45;&gt;p2_INVISIBLE_HAND_0</title>
<path fill="none" stroke="black" d="M182.54,-125.49C189.44,-136.93 199.84,-150.89 213,-158.75 231.04,-169.52 284.41,-176.53 322.58,-180.31"/>
<polygon fill="black" stroke="black" points="322.09,-183.78 332.38,-181.23 322.75,-176.81 322.09,-183.78"/>
</g>
<!-- p3_INVISIBLE_HAND_0 -->
<g id="node9" class="node">
<title>p3_INVISIBLE_HAND_0</title>
<path fill="lightblue" stroke="black" d="M497.75,-202.75C497.75,-202.75 462.25,-202.75 462.25,-202.75 456.25,-202.75 450.25,-196.75 450.25,-190.75 450.25,-190.75 450.25,-178.75 450.25,-178.75 450.25,-172.75 456.25,-166.75 462.25,-166.75 462.25,-166.75 497.75,-166.75 497.75,-166.75 503.75,-166.75 509.75,-172.75 509.75,-178.75 509.75,-178.75 509.75,-190.75 509.75,-190.75 509.75,-196.75 503.75,-202.75 497.75,-202.75"/>
<text xml:space="preserve" text-anchor="middle" x="480" y="-180.82" font-family="Futura" font-size="14.00">HAND</text>
</g>
<!-- table_INVISIBLE_STOCK_0&#45;&gt;p3_INVISIBLE_HAND_0 -->
<g id="edge3" class="edge">
<title>table_INVISIBLE_STOCK_0&#45;&gt;p3_INVISIBLE_HAND_0</title>
<path fill="none" stroke="black" d="M181.77,-125.29C188.52,-137.12 199.06,-151.6 213,-158.75 235.26,-170.17 413.53,-161.53 438,-166.75 438.38,-166.83 438.75,-166.91 439.13,-167"/>
<polygon fill="black" stroke="black" points="438.08,-170.34 448.66,-169.77 440.04,-163.62 438.08,-170.34"/>
</g>
<!-- table_VISIBLE_DISCARD_0 -->
<g id="node2" class="node">
<title>table_VISIBLE_DISCARD_0</title>
<path fill="lightgreen" stroke="black" d="M288.12,-124C288.12,-124 233.88,-124 233.88,-124 227.88,-124 221.88,-118 221.88,-112 221.88,-112 221.88,-100 221.88,-100 221.88,-94 227.88,-88 233.88,-88 233.88,-88 288.12,-88 288.12,-88 294.12,-88 300.12,-94 300.12,-100 300.12,-100 300.12,-112 300.12,-112 300.12,-118 294.12,-124 288.12,-124"/>
<text xml:space="preserve" text-anchor="middle" x="261" y="-102.08" font-family="Futura" font-size="14.00">DISCARD</text>
</g>
<!-- p1_VISIBLE_TRICK_0 -->
<g id="node5" class="node">
<title>p1_VISIBLE_TRICK_0</title>
<path fill="lightgreen" stroke="black" d="M104.12,-124C104.12,-124 73.88,-124 73.88,-124 67.88,-124 61.88,-118 61.88,-112 61.88,-112 61.88,-100 61.88,-100 61.88,-94 67.88,-88 73.88,-88 73.88,-88 104.12,-88 104.12,-88 110.12,-88 116.12,-94 116.12,-100 116.12,-100 116.12,-112 116.12,-112 116.12,-118 110.12,-124 104.12,-124"/>
<text xml:space="preserve" text-anchor="middle" x="89" y="-102.08" font-family="Futura" font-size="14.00">TRICK</text>
</g>
<!-- p1_INVISIBLE_HAND_0&#45;&gt;p1_VISIBLE_TRICK_0 -->
<g id="edge5" class="edge">
<title>p1_INVISIBLE_HAND_0&#45;&gt;p1_VISIBLE_TRICK_0</title>
<path fill="none" stroke="green" stroke-width="3" d="M88.23,-166.33C88.33,-158.19 88.46,-148.23 88.59,-138.81"/>
<polygon fill="green" stroke="green" stroke-width="3" points="92.08,-138.93 88.71,-128.89 85.08,-138.84 92.08,-138.93"/>
</g>
<!-- p1_VISIBLE_TRICKSWON_0&#45;&gt;table_VISIBLE_DISCARD_0 -->
<g id="edge17" class="edge">
<title>p1_VISIBLE_TRICKSWON_0&#45;&gt;table_VISIBLE_DISCARD_0</title>
<path fill="none" stroke="green" stroke-width="3" d="M118.13,-48.3C146.52,-56.3 182.21,-67.36 213,-80 214.09,-80.45 215.2,-80.92 216.31,-81.39"/>
<polygon fill="green" stroke="green" stroke-width="3" points="214.71,-84.51 225.25,-85.58 217.68,-78.17 214.71,-84.51"/>
</g>
<!-- p1_VISIBLE_TRICK_0&#45;&gt;p1_VISIBLE_TRICKSWON_0 -->
<g id="edge8" class="edge">
<title>p1_VISIBLE_TRICK_0&#45;&gt;p1_VISIBLE_TRICKSWON_0</title>
<path fill="none" stroke="green" stroke-width="3" d="M83.56,-87.7C81.48,-81.08 79.05,-73.33 76.69,-65.83"/>
<polygon fill="green" stroke="green" stroke-width="3" points="80.07,-64.93 73.74,-56.44 73.4,-67.03 80.07,-64.93"/>
</g>
<!-- p2_VISIBLE_TRICKSWON_0 -->
<g id="node8" class="node">
<title>p2_VISIBLE_TRICKSWON_0</title>
<path fill="lightgreen" stroke="black" d="M413.75,-52C413.75,-52 336.25,-52 336.25,-52 330.25,-52 324.25,-46 324.25,-40 324.25,-40 324.25,-28 324.25,-28 324.25,-22 330.25,-16 336.25,-16 336.25,-16 413.75,-16 413.75,-16 419.75,-16 425.75,-22 425.75,-28 425.75,-28 425.75,-40 425.75,-40 425.75,-46 419.75,-52 413.75,-52"/>
<text xml:space="preserve" text-anchor="middle" x="375" y="-30.07" font-family="Futura" font-size="14.00">TRICKSWON</text>
</g>
<!-- p1_VISIBLE_TRICK_0&#45;&gt;p2_VISIBLE_TRICKSWON_0 -->
<g id="edge14" class="edge">
<title>p1_VISIBLE_TRICK_0&#45;&gt;p2_VISIBLE_TRICKSWON_0</title>
<path fill="none" stroke="green" stroke-width="3" d="M114.29,-87.63C119.33,-84.73 124.7,-82.02 130,-80 188.47,-57.68 259.13,-46.22 309.51,-40.47"/>
<polygon fill="green" stroke="green" stroke-width="3" points="309.72,-43.96 319.29,-39.41 308.97,-37 309.72,-43.96"/>
</g>
<!-- p3_VISIBLE_TRICKSWON_0 -->
<g id="node11" class="node">
<title>p3_VISIBLE_TRICKSWON_0</title>
<path fill="lightgreen" stroke="black" d="M539.75,-52C539.75,-52 462.25,-52 462.25,-52 456.25,-52 450.25,-46 450.25,-40 450.25,-40 450.25,-28 450.25,-28 450.25,-22 456.25,-16 462.25,-16 462.25,-16 539.75,-16 539.75,-16 545.75,-16 551.75,-22 551.75,-28 551.75,-28 551.75,-40 551.75,-40 551.75,-46 545.75,-52 539.75,-52"/>
<text xml:space="preserve" text-anchor="middle" x="501" y="-30.07" font-family="Futura" font-size="14.00">TRICKSWON</text>
</g>
<!-- p1_VISIBLE_TRICK_0&#45;&gt;p3_VISIBLE_TRICKSWON_0 -->
<g id="edge11" class="edge">
<title>p1_VISIBLE_TRICK_0&#45;&gt;p3_VISIBLE_TRICKSWON_0</title>
<path fill="none" stroke="green" stroke-width="3" d="M113.26,-87.74C118.56,-84.68 124.3,-81.88 130,-80 256.18,-38.31 299.8,-73.7 435.61,-52.01"/>
<polygon fill="green" stroke="green" stroke-width="3" points="436.19,-55.46 445.46,-50.33 435.02,-48.56 436.19,-55.46"/>
</g>
<!-- p2_VISIBLE_TRICK_0 -->
<g id="node7" class="node">
<title>p2_VISIBLE_TRICK_0</title>
<path fill="lightgreen" stroke="black" d="M384.12,-124C384.12,-124 353.88,-124 353.88,-124 347.88,-124 341.88,-118 341.88,-112 341.88,-112 341.88,-100 341.88,-100 341.88,-94 347.88,-88 353.88,-88 353.88,-88 384.12,-88 384.12,-88 390.12,-88 396.12,-94 396.12,-100 396.12,-100 396.12,-112 396.12,-112 396.12,-118 390.12,-124 384.12,-124"/>
<text xml:space="preserve" text-anchor="middle" x="369" y="-102.08" font-family="Futura" font-size="14.00">TRICK</text>
</g>
<!-- p2_INVISIBLE_HAND_0&#45;&gt;p2_VISIBLE_TRICK_0 -->
<g id="edge6" class="edge">
<title>p2_INVISIBLE_HAND_0&#45;&gt;p2_VISIBLE_TRICK_0</title>
<path fill="none" stroke="green" stroke-width="3" d="M365.13,-166.33C365.67,-158.19 366.31,-148.23 366.93,-138.81"/>
<polygon fill="green" stroke="green" stroke-width="3" points="370.42,-139.08 367.57,-128.88 363.43,-138.63 370.42,-139.08"/>
</g>
<!-- p2_VISIBLE_TRICK_0&#45;&gt;p1_VISIBLE_TRICKSWON_0 -->
<g id="edge9" class="edge">
<title>p2_VISIBLE_TRICK_0&#45;&gt;p1_VISIBLE_TRICKSWON_0</title>
<path fill="none" stroke="green" stroke-width="3" d="M341.66,-91.47C332.41,-87.32 321.92,-83.04 312,-80 252.35,-61.71 182.13,-49.75 132.19,-42.78"/>
<polygon fill="green" stroke="green" stroke-width="3" points="132.91,-39.35 122.53,-41.48 131.97,-46.29 132.91,-39.35"/>
</g>
<!-- p2_VISIBLE_TRICK_0&#45;&gt;p2_VISIBLE_TRICKSWON_0 -->
<g id="edge15" class="edge">
<title>p2_VISIBLE_TRICK_0&#45;&gt;p2_VISIBLE_TRICKSWON_0</title>
<path fill="none" stroke="green" stroke-width="3" d="M370.48,-87.7C371.04,-81.25 371.68,-73.73 372.31,-66.41"/>
<polygon fill="green" stroke="green" stroke-width="3" points="375.78,-66.89 373.15,-56.63 368.8,-66.29 375.78,-66.89"/>
</g>
<!-- p2_VISIBLE_TRICK_0&#45;&gt;p3_VISIBLE_TRICKSWON_0 -->
<g id="edge12" class="edge">
<title>p2_VISIBLE_TRICK_0&#45;&gt;p3_VISIBLE_TRICKSWON_0</title>
<path fill="none" stroke="green" stroke-width="3" d="M396.35,-90.5C413.37,-81.47 435.67,-69.64 455.32,-59.22"/>
<polygon fill="green" stroke="green" stroke-width="3" points="456.87,-62.36 464.07,-54.59 453.59,-56.18 456.87,-62.36"/>
</g>
<!-- p2_VISIBLE_TRICKSWON_0&#45;&gt;table_VISIBLE_DISCARD_0 -->
<g id="edge18" class="edge">
<title>p2_VISIBLE_TRICKSWON_0&#45;&gt;table_VISIBLE_DISCARD_0</title>
<path fill="none" stroke="green" stroke-width="3" d="M346.89,-52.26C333.24,-60.64 316.58,-70.87 301.58,-80.08"/>
<polygon fill="green" stroke="green" stroke-width="3" points="300.03,-76.93 293.34,-85.14 303.7,-82.89 300.03,-76.93"/>
</g>
<!-- p3_VISIBLE_TRICK_0 -->
<g id="node10" class="node">
<title>p3_VISIBLE_TRICK_0</title>
<path fill="lightgreen" stroke="black" d="M493.12,-124C493.12,-124 462.88,-124 462.88,-124 456.88,-124 450.88,-118 450.88,-112 450.88,-112 450.88,-100 450.88,-100 450.88,-94 456.88,-88 462.88,-88 462.88,-88 493.12,-88 493.12,-88 499.12,-88 505.12,-94 505.12,-100 505.12,-100 505.12,-112 505.12,-112 505.12,-118 499.12,-124 493.12,-124"/>
<text xml:space="preserve" text-anchor="middle" x="478" y="-102.08" font-family="Futura" font-size="14.00">TRICK</text>
</g>
<!-- p3_INVISIBLE_HAND_0&#45;&gt;p3_VISIBLE_TRICK_0 -->
<g id="edge7" class="edge">
<title>p3_INVISIBLE_HAND_0&#45;&gt;p3_VISIBLE_TRICK_0</title>
<path fill="none" stroke="green" stroke-width="3" d="M479.55,-166.33C479.33,-158.19 479.07,-148.23 478.83,-138.81"/>
<polygon fill="green" stroke="green" stroke-width="3" points="482.33,-138.79 478.57,-128.89 475.33,-138.97 482.33,-138.79"/>
</g>
<!-- p3_VISIBLE_TRICK_0&#45;&gt;p1_VISIBLE_TRICKSWON_0 -->
<g id="edge10" class="edge">
<title>p3_VISIBLE_TRICK_0&#45;&gt;p1_VISIBLE_TRICKSWON_0</title>
<path fill="none" stroke="green" stroke-width="3" d="M453.9,-87.61C448.84,-84.64 443.4,-81.91 438,-80 383.18,-60.63 223.29,-46.33 132.31,-39.49"/>
<polygon fill="green" stroke="green" stroke-width="3" points="132.81,-36.02 122.58,-38.77 132.3,-43 132.81,-36.02"/>
</g>
<!-- p3_VISIBLE_TRICK_0&#45;&gt;p2_VISIBLE_TRICKSWON_0 -->
<g id="edge16" class="edge">
<title>p3_VISIBLE_TRICK_0&#45;&gt;p2_VISIBLE_TRICKSWON_0</title>
<path fill="none" stroke="green" stroke-width="3" d="M452.27,-87.52C440.14,-79.27 425.43,-69.27 412.12,-60.23"/>
<polygon fill="green" stroke="green" stroke-width="3" points="414.39,-57.54 404.15,-54.81 410.46,-63.33 414.39,-57.54"/>
</g>
<!-- p3_VISIBLE_TRICK_0&#45;&gt;p3_VISIBLE_TRICKSWON_0 -->
<g id="edge13" class="edge">
<title>p3_VISIBLE_TRICK_0&#45;&gt;p3_VISIBLE_TRICKSWON_0</title>
<path fill="none" stroke="green" stroke-width="3" d="M483.69,-87.7C485.86,-81.08 488.41,-73.33 490.87,-65.83"/>
<polygon fill="green" stroke="green" stroke-width="3" points="494.17,-67.01 493.96,-56.42 487.52,-64.83 494.17,-67.01"/>
</g>
<!-- p3_VISIBLE_TRICKSWON_0&#45;&gt;table_VISIBLE_DISCARD_0 -->
<g id="edge19" class="edge">
<title>p3_VISIBLE_TRICKSWON_0&#45;&gt;table_VISIBLE_DISCARD_0</title>
<path fill="none" stroke="green" stroke-width="3" d="M449.82,-49.02C445.83,-50.05 441.85,-51.05 438,-52 382.29,-65.7 366.14,-61.02 312,-80 310.3,-80.6 308.58,-81.24 306.86,-81.91"/>
<polygon fill="green" stroke="green" stroke-width="3" points="305.68,-78.6 297.88,-85.77 308.45,-85.03 305.68,-78.6"/>
</g>
</g>
</svg>
