<svg width="100%" height="100%" xmlns="http://www.w3.org/2000/svg" xmlns:xlink="http://www.w3.org/1999/xlink" viewBox="0.00 0.00 521.85 354.40">
<g id="graph0" class="graph" transform="translate(4,350.3999938964844) scale(1)">
<polygon fill="white" stroke="none" points="-4,4 -4,-350.4 517.85,-350.4 517.85,4 -4,4"/>
<text text-anchor="middle" x="256.92" y="-329.8" font-family="Futura" font-size="14.00">Sueca</text>
<g id="clust1" class="cluster">
<title>cluster_table</title>
<polygon fill="ghostwhite" stroke="black" points="254,-236.8 254,-313.6 428,-313.6 428,-236.8 254,-236.8"/>
<text text-anchor="middle" x="341" y="-297" font-family="Futura" font-size="14.00">table</text>
</g>
<g id="clust2" class="cluster">
<title>cluster_p1</title>
<polygon fill="ghostwhite" stroke="black" points="256,-80 256,-228.8 330,-228.8 330,-80 256,-80"/>
<text text-anchor="middle" x="293" y="-212.2" font-family="Futura" font-size="14.00">p1</text>
</g>
<g id="clust3" class="cluster">
<title>cluster_p2</title>
<polygon fill="ghostwhite" stroke="black" points="338,-8 338,-228.8 454,-228.8 454,-8 338,-8"/>
<text text-anchor="middle" x="396" y="-212.2" font-family="Futura" font-size="14.00">p2</text>
</g>
<g id="clust4" class="cluster">
<title>cluster_p3</title>
<polygon fill="ghostwhite" stroke="black" points="8,-8 8,-228.8 124,-228.8 124,-8 8,-8"/>
<text text-anchor="middle" x="66" y="-212.2" font-family="Futura" font-size="14.00">p3</text>
</g>
<g id="clust5" class="cluster">
<title>cluster_p4</title>
<polygon fill="ghostwhite" stroke="black" points="132,-8 132,-228.8 248,-228.8 248,-8 132,-8"/>
<text text-anchor="middle" x="190" y="-212.2" font-family="Futura" font-size="14.00">p4</text>
</g>
<!-- table_INVISIBLE_STOCK_0 -->
<g id="node1" class="node">
<title>table_INVISIBLE_STOCK_0</title>
<path fill="khaki" stroke="black" stroke-width="3" d="M311.95,-280.8C311.95,-280.8 274.05,-280.8 274.05,-280.8 268.05,-280.8 262.05,-274.8 262.05,-268.8 262.05,-268.8 262.05,-256.8 262.05,-256.8 262.05,-250.8 268.05,-244.8 274.05,-244.8 274.05,-244.8 311.95,-244.8 311.95,-244.8 317.95,-244.8 323.95,-250.8 323.95,-256.8 323.95,-256.8 323.95,-268.8 323.95,-268.8 323.95,-274.8 317.95,-280.8 311.95,-280.8"/>
<text text-anchor="middle" x="293" y="-258.6" font-family="Futura" font-size="14.00">STOCK</text>
</g>
<!-- p1_INVISIBLE_HAND_0 -->
<g id="node3" class="node">
<title>p1_INVISIBLE_HAND_0</title>
<path fill="lightblue" stroke="black" d="M309.22,-196C309.22,-196 276.78,-196 276.78,-196 270.78,-196 264.78,-190 264.78,-184 264.78,-184 264.78,-172 264.78,-172 264.78,-166 270.78,-160 276.78,-160 276.78,-160 309.22,-160 309.22,-160 315.22,-160 321.22,-166 321.22,-172 321.22,-172 321.22,-184 321.22,-184 321.22,-190 315.22,-196 309.22,-196"/>
<text text-anchor="middle" x="293" y="-173.8" font-family="Futura" font-size="14.00">HAND</text>
</g>
<!-- table_INVISIBLE_STOCK_0&#45;&gt;p1_INVISIBLE_HAND_0 -->
<g id="edge1" class="edge">
<title>table_INVISIBLE_STOCK_0-&gt;p1_INVISIBLE_HAND_0</title>
<path fill="none" stroke="black" d="M293,-243.42C293,-232.92 293,-219.51 293,-207.65"/>
<polygon fill="black" stroke="black" points="296.5,-207.99 293,-197.99 289.5,-207.99 296.5,-207.99"/>
</g>
<!-- p2_INVISIBLE_HAND_0 -->
<g id="node5" class="node">
<title>p2_INVISIBLE_HAND_0</title>
<path fill="lightblue" stroke="black" d="M390.22,-196C390.22,-196 357.78,-196 357.78,-196 351.78,-196 345.78,-190 345.78,-184 345.78,-184 345.78,-172 345.78,-172 345.78,-166 351.78,-160 357.78,-160 357.78,-160 390.22,-160 390.22,-160 396.22,-160 402.22,-166 402.22,-172 402.22,-172 402.22,-184 402.22,-184 402.22,-190 396.22,-196 390.22,-196"/>
<text text-anchor="middle" x="374" y="-173.8" font-family="Futura" font-size="14.00">HAND</text>
</g>
<!-- table_INVISIBLE_STOCK_0&#45;&gt;p2_INVISIBLE_HAND_0 -->
<g id="edge2" class="edge">
<title>table_INVISIBLE_STOCK_0-&gt;p2_INVISIBLE_HAND_0</title>
<path fill="none" stroke="black" d="M317.6,-243.44C323.19,-238.88 328.96,-233.84 334,-228.8 341.21,-221.58 348.4,-213.12 354.66,-205.24"/>
<polygon fill="black" stroke="black" points="357.25,-207.62 360.6,-197.57 351.71,-203.34 357.25,-207.62"/>
</g>
<!-- p3_INVISIBLE_HAND_0 -->
<g id="node8" class="node">
<title>p3_INVISIBLE_HAND_0</title>
<path fill="lightblue" stroke="black" d="M104.22,-196C104.22,-196 71.78,-196 71.78,-196 65.78,-196 59.78,-190 59.78,-184 59.78,-184 59.78,-172 59.78,-172 59.78,-166 65.78,-160 71.78,-160 71.78,-160 104.22,-160 104.22,-160 110.22,-160 116.22,-166 116.22,-172 116.22,-172 116.22,-184 116.22,-184 116.22,-190 110.22,-196 104.22,-196"/>
<text text-anchor="middle" x="88" y="-173.8" font-family="Futura" font-size="14.00">HAND</text>
</g>
<!-- table_INVISIBLE_STOCK_0&#45;&gt;p3_INVISIBLE_HAND_0 -->
<g id="edge3" class="edge">
<title>table_INVISIBLE_STOCK_0-&gt;p3_INVISIBLE_HAND_0</title>
<path fill="none" stroke="black" d="M260.57,-261.73C225.49,-260.26 169.08,-253.74 128,-228.8 118.63,-223.11 110.54,-214.4 104.13,-205.84"/>
<polygon fill="black" stroke="black" points="107.05,-203.9 98.49,-197.65 101.28,-207.87 107.05,-203.9"/>
</g>
<!-- p4_INVISIBLE_HAND_0 -->
<g id="node11" class="node">
<title>p4_INVISIBLE_HAND_0</title>
<path fill="lightblue" stroke="black" d="M223.22,-196C223.22,-196 190.78,-196 190.78,-196 184.78,-196 178.78,-190 178.78,-184 178.78,-184 178.78,-172 178.78,-172 178.78,-166 184.78,-160 190.78,-160 190.78,-160 223.22,-160 223.22,-160 229.22,-160 235.22,-166 235.22,-172 235.22,-172 235.22,-184 235.22,-184 235.22,-190 229.22,-196 223.22,-196"/>
<text text-anchor="middle" x="207" y="-173.8" font-family="Futura" font-size="14.00">HAND</text>
</g>
<!-- table_INVISIBLE_STOCK_0&#45;&gt;p4_INVISIBLE_HAND_0 -->
<g id="edge4" class="edge">
<title>table_INVISIBLE_STOCK_0-&gt;p4_INVISIBLE_HAND_0</title>
<path fill="none" stroke="black" d="M269.04,-243.57C263.31,-238.92 257.31,-233.82 252,-228.8 244.12,-221.36 236.03,-212.75 228.92,-204.81"/>
<polygon fill="black" stroke="black" points="231.6,-202.56 222.37,-197.36 226.34,-207.18 231.6,-202.56"/>
</g>
<!-- table_VISIBLE_DISCARD_0 -->
<g id="node2" class="node">
<title>table_VISIBLE_DISCARD_0</title>
<path fill="lightgreen" stroke="black" d="M407.73,-280.8C407.73,-280.8 354.27,-280.8 354.27,-280.8 348.27,-280.8 342.27,-274.8 342.27,-268.8 342.27,-268.8 342.27,-256.8 342.27,-256.8 342.27,-250.8 348.27,-244.8 354.27,-244.8 354.27,-244.8 407.73,-244.8 407.73,-244.8 413.73,-244.8 419.73,-250.8 419.73,-256.8 419.73,-256.8 419.73,-268.8 419.73,-268.8 419.73,-274.8 413.73,-280.8 407.73,-280.8"/>
<text text-anchor="middle" x="381" y="-258.6" font-family="Futura" font-size="14.00">DISCARD</text>
</g>
<!-- p1_VISIBLE_TRICK_0 -->
<g id="node4" class="node">
<title>p1_VISIBLE_TRICK_0</title>
<path fill="lightgreen" stroke="black" d="M310,-124C310,-124 276,-124 276,-124 270,-124 264,-118 264,-112 264,-112 264,-100 264,-100 264,-94 270,-88 276,-88 276,-88 310,-88 310,-88 316,-88 322,-94 322,-100 322,-100 322,-112 322,-112 322,-118 316,-124 310,-124"/>
<text text-anchor="middle" x="293" y="-101.8" font-family="Futura" font-size="14.00">TRICK</text>
</g>
<!-- p1_INVISIBLE_HAND_0&#45;&gt;p1_VISIBLE_TRICK_0 -->
<g id="edge5" class="edge">
<title>p1_INVISIBLE_HAND_0-&gt;p1_VISIBLE_TRICK_0</title>
<path fill="none" stroke="green" stroke-width="3" d="M293,-159.7C293,-153.25 293,-145.73 293,-138.41"/>
<polygon fill="green" stroke="green" stroke-width="3" points="296.5,-138.64 293,-128.64 289.5,-138.64 296.5,-138.64"/>
</g>
<!-- p2_VISIBLE_TRICKSWON_0 -->
<g id="node7" class="node">
<title>p2_VISIBLE_TRICKSWON_0</title>
<path fill="lightgreen" stroke="black" d="M433.61,-52C433.61,-52 358.39,-52 358.39,-52 352.39,-52 346.39,-46 346.39,-40 346.39,-40 346.39,-28 346.39,-28 346.39,-22 352.39,-16 358.39,-16 358.39,-16 433.61,-16 433.61,-16 439.61,-16 445.61,-22 445.61,-28 445.61,-28 445.61,-40 445.61,-40 445.61,-46 439.61,-52 433.61,-52"/>
<text text-anchor="middle" x="396" y="-29.8" font-family="Futura" font-size="14.00">TRICKSWON</text>
</g>
<!-- p1_VISIBLE_TRICK_0&#45;&gt;p2_VISIBLE_TRICKSWON_0 -->
<g id="edge9" class="edge">
<title>p1_VISIBLE_TRICK_0-&gt;p2_VISIBLE_TRICKSWON_0</title>
<path fill="none" stroke="green" stroke-width="3" d="M318.73,-87.52C330.86,-79.27 345.57,-69.27 358.88,-60.23"/>
<polygon fill="green" stroke="green" stroke-width="3" points="360.54,-63.33 366.85,-54.81 356.61,-57.54 360.54,-63.33"/>
</g>
<!-- p3_VISIBLE_TRICKSWON_0 -->
<g id="node10" class="node">
<title>p3_VISIBLE_TRICKSWON_0</title>
<path fill="lightgreen" stroke="black" d="M103.61,-52C103.61,-52 28.39,-52 28.39,-52 22.39,-52 16.39,-46 16.39,-40 16.39,-40 16.39,-28 16.39,-28 16.39,-22 22.39,-16 28.39,-16 28.39,-16 103.61,-16 103.61,-16 109.61,-16 115.61,-22 115.61,-28 115.61,-28 115.61,-40 115.61,-40 115.61,-46 109.61,-52 103.61,-52"/>
<text text-anchor="middle" x="66" y="-29.8" font-family="Futura" font-size="14.00">TRICKSWON</text>
</g>
<!-- p1_VISIBLE_TRICK_0&#45;&gt;p3_VISIBLE_TRICKSWON_0 -->
<g id="edge13" class="edge">
<title>p1_VISIBLE_TRICK_0-&gt;p3_VISIBLE_TRICKSWON_0</title>
<path fill="none" stroke="green" stroke-width="3" d="M267.2,-87.54C262.3,-84.73 257.1,-82.07 252,-80 203.52,-60.36 185.51,-64.83 130.11,-52.29"/>
<polygon fill="green" stroke="green" stroke-width="3" points="130.99,-48.9 120.45,-49.98 129.36,-55.71 130.99,-48.9"/>
</g>
<!-- p4_VISIBLE_TRICKSWON_0 -->
<g id="node13" class="node">
<title>p4_VISIBLE_TRICKSWON_0</title>
<path fill="lightgreen" stroke="black" d="M227.61,-52C227.61,-52 152.39,-52 152.39,-52 146.39,-52 140.39,-46 140.39,-40 140.39,-40 140.39,-28 140.39,-28 140.39,-22 146.39,-16 152.39,-16 152.39,-16 227.61,-16 227.61,-16 233.61,-16 239.61,-22 239.61,-28 239.61,-28 239.61,-40 239.61,-40 239.61,-46 233.61,-52 227.61,-52"/>
<text text-anchor="middle" x="190" y="-29.8" font-family="Futura" font-size="14.00">TRICKSWON</text>
</g>
<!-- p1_VISIBLE_TRICK_0&#45;&gt;p4_VISIBLE_TRICKSWON_0 -->
<g id="edge17" class="edge">
<title>p1_VISIBLE_TRICK_0-&gt;p4_VISIBLE_TRICKSWON_0</title>
<path fill="none" stroke="green" stroke-width="3" d="M267.27,-87.52C255.14,-79.27 240.43,-69.27 227.12,-60.23"/>
<polygon fill="green" stroke="green" stroke-width="3" points="229.39,-57.54 219.15,-54.81 225.46,-63.33 229.39,-57.54"/>
</g>
<!-- p2_VISIBLE_TRICK_0 -->
<g id="node6" class="node">
<title>p2_VISIBLE_TRICK_0</title>
<path fill="lightgreen" stroke="black" d="M392,-124C392,-124 358,-124 358,-124 352,-124 346,-118 346,-112 346,-112 346,-100 346,-100 346,-94 352,-88 358,-88 358,-88 392,-88 392,-88 398,-88 404,-94 404,-100 404,-100 404,-112 404,-112 404,-118 398,-124 392,-124"/>
<text text-anchor="middle" x="375" y="-101.8" font-family="Futura" font-size="14.00">TRICK</text>
</g>
<!-- p2_INVISIBLE_HAND_0&#45;&gt;p2_VISIBLE_TRICK_0 -->
<g id="edge6" class="edge">
<title>p2_INVISIBLE_HAND_0-&gt;p2_VISIBLE_TRICK_0</title>
<path fill="none" stroke="green" stroke-width="3" d="M374.25,-159.7C374.34,-153.25 374.45,-145.73 374.55,-138.41"/>
<polygon fill="green" stroke="green" stroke-width="3" points="378.05,-138.69 374.69,-128.64 371.05,-138.59 378.05,-138.69"/>
</g>
<!-- p2_VISIBLE_TRICK_0&#45;&gt;p2_VISIBLE_TRICKSWON_0 -->
<g id="edge10" class="edge">
<title>p2_VISIBLE_TRICK_0-&gt;p2_VISIBLE_TRICKSWON_0</title>
<path fill="none" stroke="green" stroke-width="3" d="M380.19,-87.7C382.17,-81.08 384.5,-73.33 386.75,-65.83"/>
<polygon fill="green" stroke="green" stroke-width="3" points="390.04,-67.04 389.56,-56.45 383.34,-65.03 390.04,-67.04"/>
</g>
<!-- p2_VISIBLE_TRICK_0&#45;&gt;p3_VISIBLE_TRICKSWON_0 -->
<g id="edge14" class="edge">
<title>p2_VISIBLE_TRICK_0-&gt;p3_VISIBLE_TRICKSWON_0</title>
<path fill="none" stroke="green" stroke-width="3" d="M350.23,-87.68C345.06,-84.71 339.5,-81.95 334,-80 251.1,-50.55 221.38,-68.55 130.18,-52.06"/>
<polygon fill="green" stroke="green" stroke-width="3" points="130.89,-48.64 120.4,-50.17 129.55,-55.51 130.89,-48.64"/>
</g>
<!-- p2_VISIBLE_TRICK_0&#45;&gt;p4_VISIBLE_TRICKSWON_0 -->
<g id="edge18" class="edge">
<title>p2_VISIBLE_TRICK_0-&gt;p4_VISIBLE_TRICKSWON_0</title>
<path fill="none" stroke="green" stroke-width="3" d="M348.61,-87.62C343.85,-84.86 338.86,-82.2 334,-80 308.53,-68.47 279.27,-58.73 253.8,-51.29"/>
<polygon fill="green" stroke="green" stroke-width="3" points="255.04,-48.01 244.46,-48.64 253.13,-54.74 255.04,-48.01"/>
</g>
<!-- p2_VISIBLE_TRICKSWON_0&#45;&gt;table_VISIBLE_DISCARD_0 -->
<g id="edge22" class="edge">
<title>p2_VISIBLE_TRICKSWON_0-&gt;table_VISIBLE_DISCARD_0</title>
<path fill="none" stroke="green" stroke-width="3" d="M445.77,-48.42C461.39,-55.23 476.91,-65.29 486,-80 520.77,-136.26 525.13,-175.49 486,-228.8 473.96,-245.21 453.76,-253.67 434.28,-257.97"/>
<polygon fill="green" stroke="green" stroke-width="3" points="433.73,-254.51 424.48,-259.68 434.94,-261.41 433.73,-254.51"/>
</g>
<!-- p3_VISIBLE_TRICK_0 -->
<g id="node9" class="node">
<title>p3_VISIBLE_TRICK_0</title>
<path fill="lightgreen" stroke="black" d="M104,-124C104,-124 70,-124 70,-124 64,-124 58,-118 58,-112 58,-112 58,-100 58,-100 58,-94 64,-88 70,-88 70,-88 104,-88 104,-88 110,-88 116,-94 116,-100 116,-100 116,-112 116,-112 116,-118 110,-124 104,-124"/>
<text text-anchor="middle" x="87" y="-101.8" font-family="Futura" font-size="14.00">TRICK</text>
</g>
<!-- p3_INVISIBLE_HAND_0&#45;&gt;p3_VISIBLE_TRICK_0 -->
<g id="edge7" class="edge">
<title>p3_INVISIBLE_HAND_0-&gt;p3_VISIBLE_TRICK_0</title>
<path fill="none" stroke="green" stroke-width="3" d="M87.75,-159.7C87.66,-153.25 87.55,-145.73 87.45,-138.41"/>
<polygon fill="green" stroke="green" stroke-width="3" points="90.95,-138.59 87.31,-128.64 83.95,-138.69 90.95,-138.59"/>
</g>
<!-- p3_VISIBLE_TRICK_0&#45;&gt;p2_VISIBLE_TRICKSWON_0 -->
<g id="edge11" class="edge">
<title>p3_VISIBLE_TRICK_0-&gt;p2_VISIBLE_TRICKSWON_0</title>
<path fill="none" stroke="green" stroke-width="3" d="M112.26,-87.56C117.31,-84.67 122.69,-81.98 128,-80 164.4,-66.43 264.85,-51.7 331.9,-42.91"/>
<polygon fill="green" stroke="green" stroke-width="3" points="332.11,-46.42 341.58,-41.66 331.21,-39.47 332.11,-46.42"/>
</g>
<!-- p3_VISIBLE_TRICK_0&#45;&gt;p3_VISIBLE_TRICKSWON_0 -->
<g id="edge15" class="edge">
<title>p3_VISIBLE_TRICK_0-&gt;p3_VISIBLE_TRICKSWON_0</title>
<path fill="none" stroke="green" stroke-width="3" d="M81.81,-87.7C79.83,-81.08 77.5,-73.33 75.25,-65.83"/>
<polygon fill="green" stroke="green" stroke-width="3" points="78.66,-65.03 72.44,-56.45 71.96,-67.04 78.66,-65.03"/>
</g>
<!-- p3_VISIBLE_TRICK_0&#45;&gt;p4_VISIBLE_TRICKSWON_0 -->
<g id="edge19" class="edge">
<title>p3_VISIBLE_TRICK_0-&gt;p4_VISIBLE_TRICKSWON_0</title>
<path fill="none" stroke="green" stroke-width="3" d="M112.73,-87.52C124.86,-79.27 139.57,-69.27 152.88,-60.23"/>
<polygon fill="green" stroke="green" stroke-width="3" points="154.54,-63.33 160.85,-54.81 150.61,-57.54 154.54,-63.33"/>
</g>
<!-- p3_VISIBLE_TRICKSWON_0&#45;&gt;table_VISIBLE_DISCARD_0 -->
<g id="edge21" class="edge">
<title>p3_VISIBLE_TRICKSWON_0-&gt;table_VISIBLE_DISCARD_0</title>
<path fill="none" stroke="green" stroke-width="3" d="M57.07,-52.45C39.02,-90.45 3.73,-181.09 51,-228.8 62.03,-239.93 317.83,-232.86 333,-236.8 335.18,-237.37 337.37,-238.05 339.55,-238.81"/>
<polygon fill="green" stroke="green" stroke-width="3" points="337.91,-241.92 348.48,-242.61 340.65,-235.47 337.91,-241.92"/>
</g>
<!-- p4_VISIBLE_TRICK_0 -->
<g id="node12" class="node">
<title>p4_VISIBLE_TRICK_0</title>
<path fill="lightgreen" stroke="black" d="M218,-124C218,-124 184,-124 184,-124 178,-124 172,-118 172,-112 172,-112 172,-100 172,-100 172,-94 178,-88 184,-88 184,-88 218,-88 218,-88 224,-88 230,-94 230,-100 230,-100 230,-112 230,-112 230,-118 224,-124 218,-124"/>
<text text-anchor="middle" x="201" y="-101.8" font-family="Futura" font-size="14.00">TRICK</text>
</g>
<!-- p4_INVISIBLE_HAND_0&#45;&gt;p4_VISIBLE_TRICK_0 -->
<g id="edge8" class="edge">
<title>p4_INVISIBLE_HAND_0-&gt;p4_VISIBLE_TRICK_0</title>
<path fill="none" stroke="green" stroke-width="3" d="M205.52,-159.7C204.96,-153.25 204.32,-145.73 203.69,-138.41"/>
<polygon fill="green" stroke="green" stroke-width="3" points="207.2,-138.29 202.85,-128.63 200.22,-138.89 207.2,-138.29"/>
</g>
<!-- p4_VISIBLE_TRICK_0&#45;&gt;p2_VISIBLE_TRICKSWON_0 -->
<g id="edge12" class="edge">
<title>p4_VISIBLE_TRICK_0-&gt;p2_VISIBLE_TRICKSWON_0</title>
<path fill="none" stroke="green" stroke-width="3" d="M230.32,-89.68C237.33,-86.28 244.86,-82.85 252,-80 277.87,-69.69 307.08,-60.18 332.41,-52.59"/>
<polygon fill="green" stroke="green" stroke-width="3" points="333.07,-56.04 341.67,-49.86 331.09,-49.33 333.07,-56.04"/>
</g>
<!-- p4_VISIBLE_TRICK_0&#45;&gt;p3_VISIBLE_TRICKSWON_0 -->
<g id="edge16" class="edge">
<title>p4_VISIBLE_TRICK_0-&gt;p3_VISIBLE_TRICKSWON_0</title>
<path fill="none" stroke="green" stroke-width="3" d="M171.71,-89.81C154.36,-80.82 131.99,-69.22 112.3,-59.01"/>
<polygon fill="green" stroke="green" stroke-width="3" points="114.03,-55.96 103.55,-54.47 110.81,-62.18 114.03,-55.96"/>
</g>
<!-- p4_VISIBLE_TRICK_0&#45;&gt;p4_VISIBLE_TRICKSWON_0 -->
<g id="edge20" class="edge">
<title>p4_VISIBLE_TRICK_0-&gt;p4_VISIBLE_TRICKSWON_0</title>
<path fill="none" stroke="green" stroke-width="3" d="M198.28,-87.7C197.27,-81.25 196.09,-73.73 194.94,-66.41"/>
<polygon fill="green" stroke="green" stroke-width="3" points="198.4,-65.93 193.39,-56.59 191.49,-67.01 198.4,-65.93"/>
</g>
<!-- p4_VISIBLE_TRICKSWON_0&#45;&gt;table_VISIBLE_DISCARD_0 -->
<g id="edge23" class="edge">
<title>p4_VISIBLE_TRICKSWON_0-&gt;table_VISIBLE_DISCARD_0</title>
<path fill="none" stroke="green" stroke-width="3" d="M240.01,-41.71C315.61,-52.09 450.99,-71.72 458,-80 479.36,-105.24 476.2,-201.19 458,-228.8 452.11,-237.73 443.25,-244.26 433.61,-249.02"/>
<polygon fill="green" stroke="green" stroke-width="3" points="432.33,-245.76 424.39,-252.77 434.97,-252.24 432.33,-245.76"/>
</g>
</g>
</svg>