<?xml version="1.0" encoding="UTF-8"?>
<svg id="Layer_1" xmlns="http://www.w3.org/2000/svg" version="1.1" viewBox="0 0 1600.14 456.29">
  <!-- Generator: Adobe Illustrator 30.1.0, SVG Export Plug-In . SVG Version: 2.1.1 Build 136)  -->
  <defs>
    <style>
      .st0 {
        fill: #f8f8f8;
      }

      .st1 {
        fill: #c4e9fb;
      }
    </style>
  </defs>
  <rect id="Rectangle_582" class="st0" x=".14" width="1600" height="456"/>
  <path id="Path_29803" class="st1" d="M.36,456.29c9.12-6.35,17.48-13.74,24.9-22.01,70.71-79.34,129.35-74.16,187.99-31.04s213.86,20.7,181.09-155.22,115.56-110.38,155.22-170.74C568.53,48.29,571.29,22.08,566.46,0H0s.15,456.09.36,456.29Z"/>
  <path id="Path_29802" class="st1" d="M1599.64,2.86c-42.47-5.17-138.88-9.69-198.95,46.83-78.43,74.28-143.47,69.43-208.51,29.07s-237.21-19.38-200.86,145.33c36.35,164.71-128.17,103.34-172.17,159.86-21.04,27.13-24.1,51.67-18.75,72.34h799.24V2.86Z"/>
</svg>